<svg id="al93k4as9h1z" version="1.1" xmlns="http://www.w3.org/2000/svg" xmlns:xlink="http://www.w3.org/1999/xlink" width="264.40588107638894" height="43.90041232638889" viewBox="0 0 264.40588107638894 43.90041232638889" style="" ><svg width="43.90041232638889" height="43.90041232638889" y="0" x="0" fill="#000" ><svg xmlns="http://www.w3.org/2000/svg" xmlns:xlink="http://www.w3.org/1999/xlink" version="1.1" x="0px" y="0px" viewBox="0 0 100 100" enable-background="new 0 0 100 100" xml:space="preserve"><g><polygon points="88.548,64.244 88.557,67.176 72.541,76.422 66.137,80.119 50.126,89.363 50.001,45.238 50.001,45.238    49.875,89.363 33.865,80.119 33.896,69.08 33.891,69.076 33.87,76.385 27.471,72.691 27.46,76.422 11.445,67.176 11.454,64.203    0,70.859 50.161,99.82 100,70.855  "></polygon><path d="M27.46,76.422l0.011-3.73l-0.004-0.004l-0.425-7.363L33,69.021v0.055l0.45,0.004l0.192,11.039l16.121,9.244l0.181-44.125   l0.025,0.002L17.07,26.2l-5.506-3.183l-0.113,41.186l-0.008,2.973L27.46,76.422z M46.687,83.84l-6.408-3.699l0.021-7.363   l6.409,3.699L46.687,83.84z M46.729,69.119l-6.408-3.701l0.021-7.357l6.408,3.701L46.729,69.119z M46.791,47.039l-0.021,7.357   l-6.408-3.699l0.021-7.358L46.791,47.039z M27.576,35.945l6.403,3.697L33.958,47l-6.403-3.697L27.576,35.945z M33.938,54.363   l-0.021,7.359l-6.404-3.697l0.021-7.358L33.938,54.363z M14.764,28.548l6.403,3.697l-0.021,7.358l-6.403-3.697L14.764,28.548z    M14.722,43.27l6.403,3.697l-0.021,7.358l-6.403-3.697L14.722,43.27z M21.084,61.684l-0.021,7.363L14.66,65.35l0.021-7.363   L21.084,61.684z"></path><polygon points="59.619,43.339 53.211,47.04 53.231,54.396 59.64,50.697  "></polygon><polygon points="66.043,47 72.446,43.303 72.426,35.945 66.022,39.643  "></polygon><polygon points="85.258,35.907 85.237,28.549 78.834,32.246 78.854,39.604  "></polygon><polygon points="59.66,58.056 53.253,61.756 53.273,69.119 59.681,65.418  "></polygon><polygon points="66.063,54.358 66.085,61.723 72.488,58.025 72.468,50.661  "></polygon><polygon points="78.896,54.325 85.3,50.628 85.279,43.265 78.876,46.962  "></polygon><polygon points="53.294,76.477 53.315,83.834 59.723,80.135 59.702,72.777  "></polygon><polygon points="66.105,69.08 66.137,80.119 72.541,76.422 72.509,65.383  "></polygon><polygon points="78.917,61.684 78.938,69.041 85.342,65.344 85.32,57.986  "></polygon><polygon points="49.837,3.238 81.445,21.487 84.089,19.951 49.845,0.18  "></polygon><polygon points="18.455,21.476 49.837,3.238 49.845,0.18 15.819,19.954  "></polygon><polygon points="49.997,45.24 50.005,42.183 11.576,19.952 11.567,23.008 17.084,26.2  "></polygon></g></svg></svg><svg x="53.90041232638889" y="0" fill="#000" ><svg x="0" y="0" ><svg x="0" y="0" fill="#000" ><path d="" ></path></svg><svg x="0" y="11.044444444444444" fill="#000" ><path d="M11.655 22.583L11.655 22.583L11.655 22.583Q9.897 22.583 8.286 22.143L8.286 22.143L8.286 22.143Q6.675 21.704 5.312 20.796L5.312 20.796L5.312 20.796Q3.950 19.887 2.946 18.620L2.946 18.620L2.946 18.620Q1.943 17.353 1.372 15.595L1.372 15.595L1.372 15.595Q0.800 13.838 0.800 11.772L0.800 11.772L0.800 11.772Q0.800 9.941 1.255 8.293L1.255 8.293L1.255 8.293Q1.709 6.645 2.624 5.283L2.624 5.283L2.624 5.283Q3.540 3.921 4.821 2.917L4.821 2.917L4.821 2.917Q6.103 1.914 7.854 1.357L7.854 1.357L7.854 1.357Q9.604 0.800 11.655 0.800L11.655 0.800L11.655 0.800Q13.164 0.800 14.629 1.211L14.629 1.211L14.629 1.211Q16.093 1.621 17.551 2.558L17.551 2.558L17.551 2.558Q19.009 3.496 20.136 4.887L20.136 4.887L17.046 7.524L17.046 7.524Q16.050 6.323 14.643 5.569L14.643 5.569L14.643 5.569Q13.237 4.814 11.655 4.814L11.655 4.814L11.655 4.814Q10.864 4.814 10.132 4.975L10.132 4.975L10.132 4.975Q9.399 5.136 8.755 5.451L8.755 5.451L8.755 5.451Q8.110 5.766 7.561 6.213L7.561 6.213L7.561 6.213Q7.011 6.660 6.579 7.246L6.579 7.246L6.579 7.246Q6.147 7.832 5.840 8.528L5.840 8.528L5.840 8.528Q5.532 9.223 5.371 10.044L5.371 10.044L5.371 10.044Q5.210 10.864 5.210 11.772L5.210 11.772L5.210 11.772Q5.210 13.735 6.023 15.288L6.023 15.288L6.023 15.288Q6.836 16.841 8.308 17.712L8.308 17.712L8.308 17.712Q9.780 18.584 11.655 18.584L11.655 18.584L11.655 18.584Q13.252 18.584 14.658 17.851L14.658 17.851L14.658 17.851Q16.064 17.119 17.046 15.888L17.046 15.888L20.136 18.540L20.136 18.540Q18.672 20.371 16.504 21.477L16.504 21.477L16.504 21.477Q14.336 22.583 11.655 22.583ZM24.547 5.649L24.547 5.649L24.547 5.649Q23.888 5.649 23.324 5.327L23.324 5.327L23.324 5.327Q22.760 5.005 22.437 4.455L22.437 4.455L22.437 4.455Q22.115 3.906 22.115 3.247L22.115 3.247L22.115 3.247Q22.115 2.265 22.826 1.562L22.826 1.562L22.826 1.562Q23.536 0.859 24.547 0.859L24.547 0.859L24.547 0.859Q25.543 0.859 26.261 1.562L26.261 1.562L26.261 1.562Q26.978 2.265 26.978 3.247L26.978 3.247L26.978 3.247Q26.978 4.243 26.261 4.946L26.261 4.946L26.261 4.946Q25.543 5.649 24.547 5.649M26.510 22.363L22.584 22.363L22.584 7.715L26.510 7.715L26.510 22.363ZM33.938 22.612L33.938 22.612L33.938 22.612Q31.989 22.612 30.869 21.374L30.869 21.374L30.869 21.374Q29.748 20.136 29.748 17.734L29.748 17.734L29.748 10.967L28.020 10.967L28.020 7.715L29.748 7.715L29.748 2.925L33.674 2.500L33.674 7.715L37.658 7.715L37.658 10.967L33.674 10.967L33.674 17.192L33.674 17.192Q33.674 18.159 33.974 18.613L33.974 18.613L33.974 18.613Q34.275 19.067 34.963 19.067L34.963 19.067L34.963 19.067Q35.813 19.067 36.809 18.554L36.809 18.554L37.819 21.689L37.819 21.689Q36.984 22.143 36.135 22.378L36.135 22.378L36.135 22.378Q35.285 22.612 33.938 22.612ZM52.308 14.907L52.308 14.907L52.308 14.907Q52.308 15.947 52.205 16.313L52.205 16.313L41.937 16.313L41.937 16.313Q42.288 17.617 43.277 18.364L43.277 18.364L43.277 18.364Q44.266 19.111 45.672 19.126L45.672 19.126L45.672 19.126Q47.796 19.140 49.173 17.470L49.173 17.470L51.722 19.843L51.722 19.843Q50.726 21.103 49.115 21.858L49.115 21.858L49.115 21.858Q47.503 22.612 45.394 22.612L45.394 22.612L45.394 22.612Q43.255 22.612 41.541 21.682L41.541 21.682L41.541 21.682Q39.827 20.752 38.839 19.009L38.839 19.009L38.839 19.009Q37.850 17.265 37.850 15.024L37.850 15.024L37.850 15.024Q37.850 13.384 38.407 11.970L38.407 11.970L38.407 11.970Q38.963 10.556 39.923 9.568L39.923 9.568L39.923 9.568Q40.882 8.579 42.230 8.022L42.230 8.022L42.230 8.022Q43.577 7.466 45.116 7.466L45.116 7.466L45.116 7.466Q47.240 7.466 48.880 8.425L48.880 8.425L48.880 8.425Q50.521 9.384 51.414 11.076L51.414 11.076L51.414 11.076Q52.308 12.768 52.308 14.907M45.247 10.923L45.247 10.923L45.247 10.923Q44.032 10.923 43.160 11.582L43.160 11.582L43.160 11.582Q42.288 12.241 41.951 13.486L41.951 13.486L48.411 13.486L48.411 13.486Q48.104 12.285 47.298 11.604L47.298 11.604L47.298 11.604Q46.492 10.923 45.247 10.923ZM63.779 14.819L63.779 7.715L67.705 7.715L67.705 22.363L63.779 22.363L63.779 20.576L63.720 20.576L63.720 20.576Q62.871 21.572 61.750 22.092L61.750 22.092L61.750 22.092Q60.629 22.612 59.370 22.612L59.370 22.612L59.370 22.612Q58.139 22.612 57.187 22.282L57.187 22.282L57.187 22.282Q56.235 21.953 55.495 21.250L55.495 21.250L55.495 21.250Q54.755 20.547 54.367 19.360L54.367 19.360L54.367 19.360Q53.979 18.174 53.979 16.533L53.979 16.533L53.979 7.715L57.905 7.715L57.905 15.508L57.905 15.508Q57.905 17.485 58.513 18.283L58.513 18.283L58.513 18.283Q59.121 19.082 60.527 19.082L60.527 19.082L60.527 19.082Q61.904 19.082 62.841 17.968L62.841 17.968L62.841 17.968Q63.779 16.855 63.779 14.819L63.779 14.819ZM79.029 7.466L79.029 7.466L79.029 7.466Q80.245 7.466 81.190 7.810L81.190 7.810L81.190 7.810Q82.134 8.154 82.860 8.872L82.860 8.872L82.860 8.872Q83.585 9.590 83.966 10.805L83.966 10.805L83.966 10.805Q84.346 12.021 84.346 13.676L84.346 13.676L84.346 22.378L80.421 22.378L80.421 14.658L80.421 14.658Q80.421 12.636 79.732 11.816L79.732 11.816L79.732 11.816Q79.044 10.996 77.608 10.996L77.608 10.996L77.608 10.996Q76.085 10.996 75.184 12.036L75.184 12.036L75.184 12.036Q74.283 13.076 74.283 14.995L74.283 14.995L74.283 22.363L70.357 22.363L70.357 7.715L74.283 7.715L74.283 9.604L74.327 9.604L74.327 9.604Q75.220 8.564 76.444 8.015L76.444 8.015L76.444 8.015Q77.667 7.466 79.029 7.466ZM89.050 5.649L89.050 5.649L89.050 5.649Q88.391 5.649 87.827 5.327L87.827 5.327L87.827 5.327Q87.263 5.005 86.940 4.455L86.940 4.455L86.940 4.455Q86.618 3.906 86.618 3.247L86.618 3.247L86.618 3.247Q86.618 2.265 87.329 1.562L87.329 1.562L87.329 1.562Q88.039 0.859 89.050 0.859L89.050 0.859L89.050 0.859Q90.046 0.859 90.764 1.562L90.764 1.562L90.764 1.562Q91.481 2.265 91.481 3.247L91.481 3.247L91.481 3.247Q91.481 4.243 90.764 4.946L90.764 4.946L90.764 4.946Q90.046 5.649 89.050 5.649M91.013 22.363L87.087 22.363L87.087 7.715L91.013 7.715L91.013 22.363ZM100.125 17.558L103.494 7.715L107.684 7.715L101.927 22.363L98.265 22.363L92.493 7.715L96.639 7.715L100.081 17.558L100.125 17.558ZM121.733 14.907L121.733 14.907L121.733 14.907Q121.733 15.947 121.630 16.313L121.630 16.313L111.362 16.313L111.362 16.313Q111.713 17.617 112.702 18.364L112.702 18.364L112.702 18.364Q113.691 19.111 115.097 19.126L115.097 19.126L115.097 19.126Q117.221 19.140 118.598 17.470L118.598 17.470L121.147 19.843L121.147 19.843Q120.151 21.103 118.539 21.858L118.539 21.858L118.539 21.858Q116.928 22.612 114.819 22.612L114.819 22.612L114.819 22.612Q112.680 22.612 110.966 21.682L110.966 21.682L110.966 21.682Q109.252 20.752 108.263 19.009L108.263 19.009L108.263 19.009Q107.275 17.265 107.275 15.024L107.275 15.024L107.275 15.024Q107.275 13.384 107.831 11.970L107.831 11.970L107.831 11.970Q108.388 10.556 109.347 9.568L109.347 9.568L109.347 9.568Q110.307 8.579 111.655 8.022L111.655 8.022L111.655 8.022Q113.002 7.466 114.540 7.466L114.540 7.466L114.540 7.466Q116.664 7.466 118.305 8.425L118.305 8.425L118.305 8.425Q119.946 9.384 120.839 11.076L120.839 11.076L120.839 11.076Q121.733 12.768 121.733 14.907M114.672 10.923L114.672 10.923L114.672 10.923Q113.456 10.923 112.585 11.582L112.585 11.582L112.585 11.582Q111.713 12.241 111.376 13.486L111.376 13.486L117.836 13.486L117.836 13.486Q117.529 12.285 116.723 11.604L116.723 11.604L116.723 11.604Q115.917 10.923 114.672 10.923ZM132.061 7.466L132.061 7.466L132.061 7.466Q132.281 7.466 132.369 7.480L132.369 7.480L132.369 11.787L132.369 11.787Q131.783 11.743 131.329 11.743L131.329 11.743L131.329 11.743Q129.571 11.743 128.582 12.812L128.582 12.812L128.582 12.812Q127.593 13.882 127.593 15.566L127.593 15.566L127.593 22.363L123.667 22.363L123.667 7.715L127.593 7.715L127.593 9.868L127.637 9.868L127.637 9.868Q128.472 8.711 129.615 8.088L129.615 8.088L129.615 8.088Q130.757 7.466 132.061 7.466ZM138.449 22.612L138.449 22.612L138.449 22.612Q134.963 22.612 132.516 20.459L132.516 20.459L134.421 17.749L134.421 17.749Q136.252 19.463 138.478 19.463L138.478 19.463L138.478 19.463Q139.313 19.463 139.797 19.126L139.797 19.126L139.797 19.126Q140.280 18.789 140.280 18.247L140.280 18.247L140.280 18.247Q140.280 17.910 139.987 17.654L139.987 17.654L139.987 17.654Q139.694 17.397 139.174 17.177L139.174 17.177L139.174 17.177Q138.654 16.958 137.614 16.621L137.614 16.621L137.614 16.621Q136.955 16.401 136.435 16.181L136.435 16.181L136.435 16.181Q135.915 15.962 135.373 15.661L135.373 15.661L135.373 15.661Q134.831 15.361 134.443 14.995L134.443 14.995L134.443 14.995Q134.054 14.629 133.739 14.175L133.739 14.175L133.739 14.175Q133.425 13.720 133.263 13.134L133.263 13.134L133.263 13.134Q133.102 12.549 133.102 11.860L133.102 11.860L133.102 11.860Q133.102 10.556 133.798 9.553L133.798 9.553L133.798 9.553Q134.494 8.550 135.688 8.008L135.688 8.008L135.688 8.008Q136.882 7.466 138.376 7.466L138.376 7.466L138.376 7.466Q139.914 7.466 141.203 7.905L141.203 7.905L141.203 7.905Q142.492 8.344 143.737 9.311L143.737 9.311L141.833 12.182L141.833 12.182Q141.012 11.406 140.097 11.018L140.097 11.018L140.097 11.018Q139.181 10.630 138.332 10.630L138.332 10.630L138.332 10.630Q137.775 10.630 137.336 10.915L137.336 10.915L137.336 10.915Q136.896 11.201 136.896 11.728L136.896 11.728L136.896 11.728Q136.896 12.168 137.416 12.519L137.416 12.519L137.416 12.519Q137.936 12.871 139.093 13.310L139.093 13.310L139.093 13.310Q139.972 13.633 140.390 13.794L140.390 13.794L140.390 13.794Q140.807 13.955 141.467 14.248L141.467 14.248L141.467 14.248Q142.126 14.541 142.426 14.768L142.426 14.768L142.426 14.768Q142.726 14.995 143.129 15.346L143.129 15.346L143.129 15.346Q143.532 15.698 143.700 16.064L143.700 16.064L143.700 16.064Q143.869 16.430 144.001 16.936L144.001 16.936L144.001 16.936Q144.133 17.441 144.133 18.056L144.133 18.056L144.133 18.056Q144.133 20.092 142.675 21.352L142.675 21.352L142.675 21.352Q141.217 22.612 138.449 22.612ZM148.089 5.649L148.089 5.649L148.089 5.649Q147.430 5.649 146.866 5.327L146.866 5.327L146.866 5.327Q146.302 5.005 145.979 4.455L145.979 4.455L145.979 4.455Q145.657 3.906 145.657 3.247L145.657 3.247L145.657 3.247Q145.657 2.265 146.368 1.562L146.368 1.562L146.368 1.562Q147.078 0.859 148.089 0.859L148.089 0.859L148.089 0.859Q149.085 0.859 149.803 1.562L149.803 1.562L149.803 1.562Q150.520 2.265 150.520 3.247L150.520 3.247L150.520 3.247Q150.520 4.243 149.803 4.946L149.803 4.946L149.803 4.946Q149.085 5.649 148.089 5.649M150.052 22.363L146.126 22.363L146.126 7.715L150.052 7.715L150.052 22.363ZM157.480 22.612L157.480 22.612L157.480 22.612Q155.531 22.612 154.411 21.374L154.411 21.374L154.411 21.374Q153.290 20.136 153.290 17.734L153.290 17.734L153.290 10.967L151.562 10.967L151.562 7.715L153.290 7.715L153.290 2.925L157.216 2.500L157.216 7.715L161.200 7.715L161.200 10.967L157.216 10.967L157.216 17.192L157.216 17.192Q157.216 18.159 157.516 18.613L157.516 18.613L157.516 18.613Q157.817 19.067 158.505 19.067L158.505 19.067L158.505 19.067Q159.355 19.067 160.351 18.554L160.351 18.554L161.361 21.689L161.361 21.689Q160.526 22.143 159.677 22.378L159.677 22.378L159.677 22.378Q158.827 22.612 157.480 22.612ZM172.730 9.370L172.730 7.715L176.656 7.715L176.656 22.363L172.920 22.363L172.920 20.591L172.847 20.591L172.847 20.591Q171.280 22.612 168.467 22.612L168.467 22.612L168.467 22.612Q166.958 22.612 165.662 22.070L165.662 22.070L165.662 22.070Q164.366 21.528 163.435 20.554L163.435 20.554L163.435 20.554Q162.505 19.580 161.978 18.166L161.978 18.166L161.978 18.166Q161.450 16.753 161.450 15.083L161.450 15.083L161.450 15.083Q161.450 13.442 161.978 12.021L161.978 12.021L161.978 12.021Q162.505 10.600 163.421 9.604L163.421 9.604L163.421 9.604Q164.336 8.608 165.618 8.037L165.618 8.037L165.618 8.037Q166.900 7.466 168.350 7.466L168.350 7.466L168.350 7.466Q171.031 7.466 172.671 9.370L172.671 9.370L172.730 9.370M169.185 19.096L169.185 19.096L169.185 19.096Q170.752 19.096 171.822 17.983L171.822 17.983L171.822 17.983Q172.891 16.870 172.891 15.097L172.891 15.097L172.891 15.097Q172.891 13.340 171.844 12.168L171.844 12.168L171.844 12.168Q170.796 10.996 169.200 10.996L169.200 10.996L169.200 10.996Q167.588 10.996 166.512 12.124L166.512 12.124L166.512 12.124Q165.435 13.252 165.435 15.097L165.435 15.097L165.435 15.097Q165.435 16.870 166.482 17.983L166.482 17.983L166.482 17.983Q167.530 19.096 169.185 19.096ZM181.447 5.649L181.447 5.649L181.447 5.649Q180.788 5.649 180.224 5.327L180.224 5.327L180.224 5.327Q179.660 5.005 179.337 4.455L179.337 4.455L179.337 4.455Q179.015 3.906 179.015 3.247L179.015 3.247L179.015 3.247Q179.015 2.265 179.726 1.562L179.726 1.562L179.726 1.562Q180.436 0.859 181.447 0.859L181.447 0.859L181.447 0.859Q182.443 0.859 183.161 1.562L183.161 1.562L183.161 1.562Q183.878 2.265 183.878 3.247L183.878 3.247L183.878 3.247Q183.878 4.243 183.161 4.946L183.161 4.946L183.161 4.946Q182.443 5.649 181.447 5.649M183.410 22.363L179.484 22.363L179.484 7.715L183.410 7.715L183.410 22.363ZM194.763 7.466L194.763 7.466L194.763 7.466Q194.983 7.466 195.071 7.480L195.071 7.480L195.071 11.787L195.071 11.787Q194.485 11.743 194.031 11.743L194.031 11.743L194.031 11.743Q192.273 11.743 191.284 12.812L191.284 12.812L191.284 12.812Q190.296 13.882 190.296 15.566L190.296 15.566L190.296 22.363L186.370 22.363L186.370 7.715L190.296 7.715L190.296 9.868L190.340 9.868L190.340 9.868Q191.175 8.711 192.317 8.088L192.317 8.088L192.317 8.088Q193.460 7.466 194.763 7.466ZM209.706 14.907L209.706 14.907L209.706 14.907Q209.706 15.947 209.603 16.313L209.603 16.313L199.335 16.313L199.335 16.313Q199.686 17.617 200.675 18.364L200.675 18.364L200.675 18.364Q201.664 19.111 203.070 19.126L203.070 19.126L203.070 19.126Q205.194 19.140 206.571 17.470L206.571 17.470L209.120 19.843L209.120 19.843Q208.124 21.103 206.513 21.858L206.513 21.858L206.513 21.858Q204.901 22.612 202.792 22.612L202.792 22.612L202.792 22.612Q200.653 22.612 198.939 21.682L198.939 21.682L198.939 21.682Q197.225 20.752 196.237 19.009L196.237 19.009L196.237 19.009Q195.248 17.265 195.248 15.024L195.248 15.024L195.248 15.024Q195.248 13.384 195.805 11.970L195.805 11.970L195.805 11.970Q196.361 10.556 197.321 9.568L197.321 9.568L197.321 9.568Q198.280 8.579 199.628 8.022L199.628 8.022L199.628 8.022Q200.975 7.466 202.514 7.466L202.514 7.466L202.514 7.466Q204.638 7.466 206.278 8.425L206.278 8.425L206.278 8.425Q207.919 9.384 208.812 11.076L208.812 11.076L208.812 11.076Q209.706 12.768 209.706 14.907M202.645 10.923L202.645 10.923L202.645 10.923Q201.430 10.923 200.558 11.582L200.558 11.582L200.558 11.582Q199.686 12.241 199.350 13.486L199.350 13.486L205.809 13.486L205.809 13.486Q205.502 12.285 204.696 11.604L204.696 11.604L204.696 11.604Q203.891 10.923 202.645 10.923Z" ></path></svg></svg></svg></svg>