<svg id="al93k4as9h1z" version="1.1" xmlns="http://www.w3.org/2000/svg" xmlns:xlink="http://www.w3.org/1999/xlink" width="263.02376612103177" height="65.68333643353175" viewBox="0 0 263.02376612103177 65.68333643353175" style="" ><svg width="65.68333643353175" height="65.68333643353175" y="0" x="0" fill="#000" ><svg xmlns="http://www.w3.org/2000/svg" xmlns:xlink="http://www.w3.org/1999/xlink" version="1.1" x="0px" y="0px" viewBox="0 0 100 100" enable-background="new 0 0 100 100" xml:space="preserve"><path d="M95,61.045v-1.631l-3.797-5.242h-36.41V13.917h3.168V10.75h-3.168H8.168H5v3.167h3.168v72.166H5v3.167h3.168h43.605h3.02  h3.168h36.316v-3.167h-1.809V61.045H95L95,61.045z M17.171,82.966h-4.667v-4.667h4.667L17.171,82.966L17.171,82.966z M17.171,75.341  h-4.667v-4.667h4.667L17.171,75.341L17.171,75.341z M17.171,67.717h-4.667v-4.668h4.667L17.171,67.717L17.171,67.717z M17.171,60.09  h-4.667v-4.665h4.667L17.171,60.09L17.171,60.09z M17.171,52.466h-4.667v-4.667h4.667L17.171,52.466L17.171,52.466z M17.171,44.841  h-4.667v-4.668h4.667L17.171,44.841L17.171,44.841z M17.171,37.215h-4.667v-4.669h4.667L17.171,37.215L17.171,37.215z   M17.171,29.592h-4.667v-4.67h4.667L17.171,29.592L17.171,29.592z M17.171,21.965h-4.667v-4.667h4.667L17.171,21.965L17.171,21.965z   M25.496,82.966h-4.668v-4.667h4.668V82.966z M25.496,75.341h-4.668v-4.667h4.668V75.341z M25.496,67.717h-4.668v-4.668h4.668  V67.717z M25.496,60.09h-4.668v-4.665h4.668V60.09z M25.496,52.466h-4.668v-4.667h4.668V52.466z M25.496,44.841h-4.668v-4.668h4.668  V44.841z M25.496,37.215h-4.668v-4.669h4.668V37.215z M25.496,29.592h-4.668v-4.67h4.668V29.592z M25.496,21.965h-4.668v-4.667  h4.668V21.965z M33.819,82.966h-4.667v-4.667h4.667V82.966z M33.819,75.341h-4.667v-4.667h4.667V75.341z M33.819,67.717h-4.667  v-4.668h4.667V67.717z M33.819,60.09h-4.667v-4.665h4.667V60.09z M33.819,52.466h-4.667v-4.667h4.667V52.466z M33.819,44.841h-4.667  v-4.668h4.667V44.841z M33.819,37.215h-4.667v-4.669h4.667V37.215z M33.819,29.592h-4.667v-4.67h4.667V29.592z M33.819,21.965  h-4.667v-4.667h4.667V21.965z M42.144,82.966h-4.669v-4.667h4.669V82.966z M42.144,75.341h-4.669v-4.667h4.669V75.341z   M42.144,67.717h-4.669v-4.668h4.669V67.717z M42.144,60.09h-4.669v-4.665h4.669V60.09z M42.144,52.466h-4.669v-4.667h4.669V52.466z   M42.144,44.841h-4.669v-4.668h4.669V44.841z M42.144,37.215h-4.669v-4.669h4.669V37.215z M42.144,29.592h-4.669v-4.67h4.669V29.592  z M42.144,21.965h-4.669v-4.667h4.669V21.965z M50.469,82.966h-4.668v-4.667h4.668V82.966z M50.469,75.341h-4.668v-4.667h4.668  V75.341z M50.469,67.717h-4.668v-4.668h4.668V67.717z M50.469,60.09h-4.668v-4.665h4.668V60.09z M50.469,52.466h-4.668v-4.667h4.668  V52.466z M50.469,44.841h-4.668v-4.668h4.668V44.841z M50.469,37.215h-4.668v-4.669h4.668V37.215z M50.469,29.592h-4.668v-4.67  h4.668V29.592z M50.469,21.965h-4.668v-4.667h4.668V21.965z M64.46,82.966h-4.884V73.82h4.884V82.966z M64.46,69.944h-4.884V60.8  h4.884V69.944z M75.13,82.966h-4.882V73.82h4.882V82.966z M75.13,69.944h-4.882V60.8h4.882V69.944z M85.8,82.966h-4.88V73.82h4.88  V82.966z M85.8,69.944h-4.88V60.8h4.88V69.944z"></path></svg></svg><svg x="75.68333643353175" y="0" fill="#000" ><svg x="0" y="0" ><svg x="0" y="0" fill="#000" ><path d="M11.655 22.583L11.655 22.583L11.655 22.583Q9.897 22.583 8.286 22.143L8.286 22.143L8.286 22.143Q6.675 21.704 5.312 20.796L5.312 20.796L5.312 20.796Q3.950 19.887 2.946 18.620L2.946 18.620L2.946 18.620Q1.943 17.353 1.372 15.595L1.372 15.595L1.372 15.595Q0.800 13.838 0.800 11.772L0.800 11.772L0.800 11.772Q0.800 9.941 1.255 8.293L1.255 8.293L1.255 8.293Q1.709 6.645 2.624 5.283L2.624 5.283L2.624 5.283Q3.540 3.921 4.821 2.917L4.821 2.917L4.821 2.917Q6.103 1.914 7.854 1.357L7.854 1.357L7.854 1.357Q9.604 0.800 11.655 0.800L11.655 0.800L11.655 0.800Q13.164 0.800 14.629 1.211L14.629 1.211L14.629 1.211Q16.093 1.621 17.551 2.558L17.551 2.558L17.551 2.558Q19.009 3.496 20.136 4.887L20.136 4.887L17.046 7.524L17.046 7.524Q16.050 6.323 14.643 5.569L14.643 5.569L14.643 5.569Q13.237 4.814 11.655 4.814L11.655 4.814L11.655 4.814Q10.864 4.814 10.132 4.975L10.132 4.975L10.132 4.975Q9.399 5.136 8.755 5.451L8.755 5.451L8.755 5.451Q8.110 5.766 7.561 6.213L7.561 6.213L7.561 6.213Q7.011 6.660 6.579 7.246L6.579 7.246L6.579 7.246Q6.147 7.832 5.840 8.528L5.840 8.528L5.840 8.528Q5.532 9.223 5.371 10.044L5.371 10.044L5.371 10.044Q5.210 10.864 5.210 11.772L5.210 11.772L5.210 11.772Q5.210 13.735 6.023 15.288L6.023 15.288L6.023 15.288Q6.836 16.841 8.308 17.712L8.308 17.712L8.308 17.712Q9.780 18.584 11.655 18.584L11.655 18.584L11.655 18.584Q13.252 18.584 14.658 17.851L14.658 17.851L14.658 17.851Q16.064 17.119 17.046 15.888L17.046 15.888L20.136 18.540L20.136 18.540Q18.672 20.371 16.504 21.477L16.504 21.477L16.504 21.477Q14.336 22.583 11.655 22.583ZM26.612 22.363L22.364 22.363L22.364 1.050L26.612 1.050L26.612 22.363ZM38.845 22.363L34.641 22.363L34.641 4.829L28.767 4.829L28.767 1.050L44.748 1.050L44.748 4.829L38.845 4.829L38.845 22.363ZM60.994 22.363L46.742 22.363L46.742 1.050L60.365 1.050L60.365 4.829L50.902 4.829L50.902 9.941L58.490 9.941L58.490 13.662L50.902 13.662L50.902 18.598L60.994 18.598L60.994 22.363Z" ></path></svg><svg x="0" y="32.826671006944444" fill="#000" ><path d="M9.399 22.655L9.399 22.655L9.399 22.655Q7.480 22.655 5.891 22.047L5.891 22.047L5.891 22.047Q4.301 21.439 3.173 20.304L3.173 20.304L3.173 20.304Q2.046 19.169 1.423 17.455L1.423 17.455L1.423 17.455Q0.800 15.741 0.800 13.588L0.800 13.588L0.800 1.093L5.034 1.093L5.034 13.309L5.034 13.309Q5.034 14.862 5.532 16.071L5.532 16.071L5.532 16.071Q6.030 17.279 7.033 17.989L7.033 17.989L7.033 17.989Q8.037 18.700 9.399 18.700L9.399 18.700L9.399 18.700Q11.377 18.700 12.607 17.257L12.607 17.257L12.607 17.257Q13.838 15.814 13.838 13.309L13.838 13.309L13.838 1.093L18.056 1.093L18.056 13.588L18.056 13.588Q18.056 16.356 17.038 18.392L17.038 18.392L17.038 18.392Q16.020 20.428 14.065 21.542L14.065 21.542L14.065 21.542Q12.109 22.655 9.399 22.655ZM35.020 15.492L35.020 1.093L39.239 1.093L39.239 22.406L34.918 22.406L25.543 8.285L25.484 8.285L25.484 22.406L21.280 22.406L21.280 1.093L25.484 1.093L34.962 15.492L35.020 15.492ZM47.106 22.406L42.858 22.406L42.858 1.093L47.106 1.093L47.106 22.406ZM58.826 16.400L64.041 1.093L68.568 1.093L60.687 22.406L56.966 22.406L49.056 1.093L53.626 1.093L58.782 16.400L58.826 16.400ZM84.536 22.406L70.283 22.406L70.283 1.093L83.906 1.093L83.906 4.872L74.443 4.872L74.443 9.984L82.031 9.984L82.031 13.705L74.443 13.705L74.443 18.641L84.536 18.641L84.536 22.406ZM93.487 22.655L93.487 22.655L93.487 22.655Q91.363 22.655 89.363 21.820L89.363 21.820L89.363 21.820Q87.364 20.985 85.723 19.301L85.723 19.301L88.257 16.180L88.257 16.180Q88.843 16.854 89.525 17.367L89.525 17.367L89.525 17.367Q90.206 17.880 90.887 18.202L90.887 18.202L90.887 18.202Q91.568 18.524 92.242 18.685L92.242 18.685L92.242 18.685Q92.916 18.846 93.560 18.846L93.560 18.846L93.560 18.846Q94.556 18.846 95.252 18.553L95.252 18.553L95.252 18.553Q95.948 18.260 96.285 17.762L96.285 17.762L96.285 17.762Q96.622 17.264 96.622 16.591L96.622 16.591L96.622 16.591Q96.622 16.122 96.475 15.756L96.475 15.756L96.475 15.756Q96.329 15.389 96.072 15.111L96.072 15.111L96.072 15.111Q95.816 14.833 95.325 14.562L95.325 14.562L95.325 14.562Q94.835 14.291 94.307 14.078L94.307 14.078L94.307 14.078Q93.780 13.866 92.916 13.573L92.916 13.573L92.916 13.573Q92.139 13.295 91.539 13.060L91.539 13.060L91.539 13.060Q90.938 12.826 90.235 12.467L90.235 12.467L90.235 12.467Q89.532 12.108 89.019 11.749L89.019 11.749L89.019 11.749Q88.506 11.390 88.001 10.885L88.001 10.885L88.001 10.885Q87.496 10.380 87.181 9.816L87.181 9.816L87.181 9.816Q86.866 9.252 86.668 8.512L86.668 8.512L86.668 8.512Q86.470 7.772 86.470 6.937L86.470 6.937L86.470 6.937Q86.470 5.253 87.379 3.861L87.379 3.861L87.379 3.861Q88.287 2.469 89.854 1.671L89.854 1.671L89.854 1.671Q91.422 0.873 93.311 0.844L93.311 0.844L93.311 0.844Q97.178 0.800 100.489 3.524L100.489 3.524L98.057 6.703L98.057 6.703Q95.494 4.608 93.414 4.608L93.414 4.608L93.414 4.608Q92.286 4.608 91.575 5.179L91.575 5.179L91.575 5.179Q90.865 5.751 90.850 6.747L90.850 6.747L90.850 6.747Q90.850 7.142 90.997 7.465L90.997 7.465L90.997 7.465Q91.143 7.787 91.392 8.043L91.392 8.043L91.392 8.043Q91.641 8.300 92.132 8.571L92.132 8.571L92.132 8.571Q92.623 8.842 93.113 9.054L93.113 9.054L93.113 9.054Q93.604 9.266 94.439 9.589L94.439 9.589L94.439 9.589Q94.586 9.647 94.864 9.750L94.864 9.750L94.864 9.750Q95.845 10.131 96.321 10.328L96.321 10.328L96.321 10.328Q96.797 10.526 97.589 10.907L97.589 10.907L97.589 10.907Q98.380 11.288 98.768 11.581L98.768 11.581L98.768 11.581Q99.156 11.874 99.676 12.357L99.676 12.357L99.676 12.357Q100.196 12.841 100.438 13.353L100.438 13.353L100.438 13.353Q100.679 13.866 100.855 14.562L100.855 14.562L100.855 14.562Q101.031 15.258 101.031 16.093L101.031 16.093L101.031 16.093Q101.031 17.440 100.577 18.561L100.577 18.561L100.577 18.561Q100.123 19.681 99.376 20.421L99.376 20.421L99.376 20.421Q98.629 21.161 97.640 21.681L97.640 21.681L97.640 21.681Q96.651 22.201 95.611 22.428L95.611 22.428L95.611 22.428Q94.571 22.655 93.487 22.655ZM107.785 22.406L103.537 22.406L103.537 1.093L107.785 1.093L107.785 22.406ZM120.018 22.406L115.814 22.406L115.814 4.872L109.939 4.872L109.939 1.093L125.921 1.093L125.921 4.872L120.018 4.872L120.018 22.406ZM144.262 22.406L139.853 22.406L138.403 18.143L130.229 18.143L128.779 22.406L124.369 22.406L132.265 1.093L136.337 1.093L144.262 22.406M134.286 6.176L131.445 14.540L137.172 14.540L134.316 6.176L134.286 6.176ZM150.284 22.406L146.036 22.406L146.036 1.093L150.284 1.093L150.284 22.406ZM165.021 14.672L170.280 22.406L165.285 22.406L160.509 15.111L158.063 15.111L158.063 22.406L153.903 22.406L153.903 1.093L161.960 1.093L161.960 1.093Q163.835 1.093 165.277 1.620L165.277 1.620L165.277 1.620Q166.720 2.147 167.607 3.114L167.607 3.114L167.607 3.114Q168.493 4.081 168.940 5.355L168.940 5.355L168.940 5.355Q169.386 6.630 169.386 8.197L169.386 8.197L169.386 8.197Q169.386 9.867 168.852 11.163L168.852 11.163L168.852 11.163Q168.317 12.460 167.358 13.309L167.358 13.309L167.358 13.309Q166.398 14.159 165.021 14.613L165.021 14.613L165.021 14.672M161.198 4.843L158.063 4.843L158.063 11.390L161.022 11.390L161.022 11.390Q162.941 11.390 163.981 10.504L163.981 10.504L163.981 10.504Q165.021 9.618 165.021 8.109L165.021 8.109L165.021 8.109Q165.021 6.600 164.018 5.721L164.018 5.721L164.018 5.721Q163.014 4.843 161.198 4.843L161.198 4.843ZM186.541 22.406L172.288 22.406L172.288 1.093L185.911 1.093L185.911 4.872L176.448 4.872L176.448 9.984L184.036 9.984L184.036 13.705L176.448 13.705L176.448 18.641L186.541 18.641L186.541 22.406Z" ></path></svg></svg></svg></svg>