<svg id="al93k4as9h1z" version="1.1" xmlns="http://www.w3.org/2000/svg" xmlns:xlink="http://www.w3.org/1999/xlink" width="205.00768000000002" height="60" viewBox="0 0 205.00768000000002 60" style="" ><svg stroke-opacity="1" stroke="#fff" stroke-width="3.5" fill="transparent" x="3.5" y="3.5" ><path d="M1.75,1.75h54h0v0v54v0h0h-54h0v0v-54v0h0z" ></path></svg><svg x="19.93696883852691" y="16.75" fill="#fff" ><path d="M14.830 0.000L14.830 0.000L14.830 0.000Q17.039 0.000 19.355 0.638L19.355 0.638L19.355 0.638Q21.671 1.275 23.328 2.380L23.328 2.380L21.034 7.607L21.034 7.607Q18.782 6.842 17.571 6.587L17.571 6.587L17.571 6.587Q16.360 6.332 14.915 6.332L14.915 6.332L14.915 6.332Q13.173 6.332 11.579 7.437L11.579 7.437L11.579 7.437Q9.986 8.541 8.987 10.539L8.987 10.539L8.987 10.539Q7.988 12.536 7.988 15.085L7.988 15.085L7.988 15.085Q7.988 17.677 9.008 19.632L9.008 19.632L9.008 19.632Q10.028 21.587 11.707 22.628L11.707 22.628L11.707 22.628Q13.385 23.669 15.212 23.669L15.212 23.669L15.212 23.669Q18.059 23.669 20.694 22.097L20.694 22.097L23.626 27.876L23.626 27.876Q21.969 28.853 19.610 29.427L19.610 29.427L19.610 29.427Q17.252 30.000 15.000 30.000L15.000 30.000L15.000 30.000Q10.411 30.000 7.011 28.109L7.011 28.109L7.011 28.109Q3.612 26.219 1.806 22.862L1.806 22.862L1.806 22.862Q-0.000 19.505-0.000 15.128L-0.000 15.128L-0.000 15.128Q-0.000 10.751 1.912 7.309L1.912 7.309L1.912 7.309Q3.824 3.867 7.202 1.934L7.202 1.934L7.202 1.934Q10.581 0.000 14.830 0.000Z" ></path></svg><svg x="70" y="8.559999999999999" fill="#fff" ><path d="M7.483 0.000L7.483 0.000L7.483 0.000Q8.598 0.000 9.766 0.322L9.766 0.322L9.766 0.322Q10.935 0.643 11.771 1.201L11.771 1.201L10.613 3.838L10.613 3.838Q9.477 3.452 8.866 3.323L8.866 3.323L8.866 3.323Q8.255 3.195 7.526 3.195L7.526 3.195L7.526 3.195Q6.647 3.195 5.843 3.752L5.843 3.752L5.843 3.752Q5.039 4.310 4.535 5.317L4.535 5.317L4.535 5.317Q4.031 6.325 4.031 7.611L4.031 7.611L4.031 7.611Q4.031 8.919 4.545 9.905L4.545 9.905L4.545 9.905Q5.060 10.892 5.907 11.417L5.907 11.417L5.907 11.417Q6.754 11.942 7.676 11.942L7.676 11.942L7.676 11.942Q9.112 11.942 10.441 11.149L10.441 11.149L11.921 14.065L11.921 14.065Q11.085 14.558 9.895 14.847L9.895 14.847L9.895 14.847Q8.705 15.137 7.569 15.137L7.569 15.137L7.569 15.137Q5.253 15.137 3.538 14.183L3.538 14.183L3.538 14.183Q1.823 13.229 0.911 11.535L0.911 11.535L0.911 11.535Q0.000 9.841 0.000 7.633L0.000 7.633L0.000 7.633Q0.000 5.424 0.965 3.688L0.965 3.688L0.965 3.688Q1.930 1.951 3.634 0.976L3.634 0.976L3.634 0.976Q5.339 0.000 7.483 0.000ZM12.564 0.279L16.466 0.279L16.466 14.858L12.564 14.858L12.564 0.279ZM17.109 3.345L17.109 0.279L29.587 0.279L29.952 3.345L25.299 3.345L25.299 14.858L21.397 14.858L21.397 3.345L17.109 3.345ZM34.497 11.792L40.908 11.792L41.272 14.858L30.595 14.858L30.595 0.279L40.908 0.279L41.272 3.345L34.497 3.345L34.497 6.003L38.978 6.003L39.343 9.069L34.497 9.069L34.497 11.792Z" ></path></svg><svg x="70" y="30.69664" fill="#fff" ><path d="M-0.000 9.284L-0.000 0.279L3.902 0.279L3.902 9.091L3.902 9.091Q3.902 10.420 4.631 11.160L4.631 11.160L4.631 11.160Q5.360 11.899 6.539 11.899L6.539 11.899L6.539 11.899Q7.718 11.899 8.447 11.160L8.447 11.160L8.447 11.160Q9.176 10.420 9.176 9.091L9.176 9.091L9.176 0.279L13.078 0.279L13.078 9.284L13.078 9.284Q13.078 11.149 12.263 12.467L12.263 12.467L12.263 12.467Q11.449 13.786 9.969 14.472L9.969 14.472L9.969 14.472Q8.490 15.158 6.539 15.158L6.539 15.158L6.539 15.158Q4.588 15.158 3.109 14.472L3.109 14.472L3.109 14.472Q1.629 13.786 0.815 12.467L0.815 12.467L0.815 12.467Q-0.000 11.149-0.000 9.284L-0.000 9.284ZM24.506 14.858L18.910 7.182L18.910 14.858L15.008 14.858L15.008 0.279L18.631 0.279L24.248 8.190L24.248 0.279L28.151 0.279L28.151 14.858L24.506 14.858ZM30.295 0.279L34.197 0.279L34.197 14.858L30.295 14.858L30.295 0.279ZM40.286 14.858L34.840 0.450L38.678 0.064L42.301 10.184L45.774 0.279L49.655 0.279L44.188 14.858L40.286 14.858ZM54.200 11.792L60.611 11.792L60.975 14.858L50.298 14.858L50.298 0.279L60.611 0.279L60.975 3.345L54.200 3.345L54.200 6.003L58.681 6.003L59.046 9.069L54.200 9.069L54.200 11.792ZM65.606 15.137L65.606 15.137L65.606 15.137Q64.470 15.137 63.066 14.794L63.066 14.794L63.066 14.794Q61.661 14.451 60.825 13.958L60.825 13.958L62.111 11.020L62.111 11.020Q62.690 11.363 63.709 11.653L63.709 11.653L63.709 11.653Q64.727 11.942 65.499 11.942L65.499 11.942L65.499 11.942Q66.357 11.942 66.871 11.588L66.871 11.588L66.871 11.588Q67.386 11.235 67.386 10.806L67.386 10.806L67.386 10.806Q67.386 10.527 67.011 10.259L67.011 10.259L67.011 10.259Q66.635 9.991 65.799 9.498L65.799 9.498L65.135 9.112L65.135 9.112Q63.677 8.254 62.862 7.686L62.862 7.686L62.862 7.686Q62.047 7.118 61.404 6.218L61.404 6.218L61.404 6.218Q60.761 5.317 60.761 4.181L60.761 4.181L60.761 4.181Q60.761 2.980 61.436 2.026L61.436 2.026L61.436 2.026Q62.111 1.072 63.334 0.536L63.334 0.536L63.334 0.536Q64.556 0.000 66.185 0.000L66.185 0.000L66.185 0.000Q67.300 0.000 68.468 0.322L68.468 0.322L68.468 0.322Q69.637 0.643 70.473 1.201L70.473 1.201L69.315 3.838L69.315 3.838Q68.179 3.452 67.568 3.323L67.568 3.323L67.568 3.323Q66.957 3.195 66.228 3.195L66.228 3.195L66.228 3.195Q65.585 3.195 65.188 3.495L65.188 3.495L65.188 3.495Q64.791 3.795 64.791 4.224L64.791 4.224L64.791 4.224Q64.791 4.545 65.124 4.792L65.124 4.792L65.124 4.792Q65.456 5.038 66.228 5.446L66.228 5.446L67.000 5.875L67.000 5.875Q68.351 6.646 69.251 7.300L69.251 7.300L69.251 7.300Q70.151 7.954 70.784 8.844L70.784 8.844L70.784 8.844Q71.416 9.734 71.416 10.849L71.416 10.849L71.416 10.849Q71.416 12.092 70.709 13.057L70.709 13.057L70.709 13.057Q70.001 14.022 68.683 14.579L68.683 14.579L68.683 14.579Q67.364 15.137 65.606 15.137ZM72.274 0.279L76.176 0.279L76.176 14.858L72.274 14.858L72.274 0.279ZM76.819 3.345L76.819 0.279L89.297 0.279L89.662 3.345L85.009 3.345L85.009 14.858L81.107 14.858L81.107 3.345L76.819 3.345ZM92.685 14.858L88.804 14.858L94.271 0.279L98.174 0.279L103.619 14.686L99.782 15.072L98.731 11.985L93.693 11.985L92.685 14.858M96.158 4.953L94.765 8.919L97.616 8.919L96.158 4.953ZM104.263 0.279L108.165 0.279L108.165 14.858L104.263 14.858L104.263 0.279ZM114.211 14.858L110.309 14.858L110.309 0.279L116.440 0.279L116.440 0.279Q119.056 0.279 120.750 1.522L120.750 1.522L120.750 1.522Q122.444 2.766 122.444 5.253L122.444 5.253L122.444 5.253Q122.444 6.539 121.918 7.515L121.918 7.515L121.918 7.515Q121.393 8.490 120.471 9.112L120.471 9.112L123.687 14.858L119.163 14.858L116.805 10.270L114.211 10.270L114.211 14.858M118.413 5.253L118.413 5.253L118.413 5.253Q118.413 4.310 117.866 3.827L117.866 3.827L117.866 3.827Q117.319 3.345 116.312 3.345L116.312 3.345L114.211 3.345L114.211 7.204L116.355 7.204L116.355 7.204Q117.255 7.204 117.834 6.657L117.834 6.657L117.834 6.657Q118.413 6.110 118.413 5.253ZM128.232 11.792L134.643 11.792L135.007 14.858L124.330 14.858L124.330 0.279L134.643 0.279L135.007 3.345L128.232 3.345L128.232 6.003L132.713 6.003L133.078 9.069L128.232 9.069L128.232 11.792Z" ></path></svg></svg>