<svg id="al93k4as9h1z" version="1.1" xmlns="http://www.w3.org/2000/svg" xmlns:xlink="http://www.w3.org/1999/xlink" width="301.7388888888889" height="44.28888888888889" viewBox="0 0 301.7388888888889 44.28888888888889" style="" ><svg width="44.288888888888884" height="44.288888888888884" y="3.552713678800501e-15" x="0" fill="#000" ><svg xmlns="http://www.w3.org/2000/svg" xmlns:xlink="http://www.w3.org/1999/xlink" version="1.1" x="0px" y="0px" viewBox="0 0 100 100" enable-background="new 0 0 100 100" xml:space="preserve"><path  d="M55.082,6.891v82.057l22.003-11.521V18.345L55.082,6.891z M62.645,80.137l-3.945,1.926v-6.318l3.945-1.42  V80.137z M62.645,68.458l-3.945,1.207v-6.212l3.945-0.777V68.458z M58.699,57.275V51.08l3.9-0.127l0.045,5.764L58.699,57.275z   M62.645,45.011l-3.945-0.085v-6.253l3.945,0.518V45.011z M62.645,33.199l-3.945-0.738v-6.192l3.945,1.21V33.199z M62.645,21.523  l-3.945-1.384v-6.203l3.945,1.865V21.523z M69.431,77.002l-3.216,1.492v-5.621l3.216-1.154V77.002z M69.431,66.4l-3.216,0.98v-5.55  l3.216-0.653V66.4z M69.431,55.868l-3.216,0.456v-5.59l3.216-0.106V55.868z M69.431,45.22l-3.216-0.072v-5.586l3.216,0.418V45.22z   M69.431,34.623l-3.216-0.599v-5.616l3.216,0.938V34.623z M69.431,23.998l-3.216-1.128v-5.558l3.216,1.423V23.998z M75.059,74.514  l-2.715,1.277v-5.132l2.715-0.979V74.514z M75.059,64.805l-2.715,0.832v-5.082l2.715-0.514V64.805z M75.059,55.143l-2.715,0.338  v-5.04l2.715-0.089V55.143z M75.059,45.448l-2.715-0.108v-5.047l2.715,0.356V45.448z M75.059,35.771l-2.715-0.505v-5.119  l2.715,0.849V35.771z M75.059,26.049l-2.715-0.954v-5.044l2.715,1.203V26.049z"></path><path  d="M32.079,18.345v59.083l22.003,11.521V6.891L32.079,18.345z M46.518,74.323l3.945,1.42v6.319l-3.945-1.928  V74.323z M46.518,62.676l3.945,0.777v6.212l-3.945-1.207V62.676z M46.518,56.717l0.045-5.764l3.9,0.127v6.195L46.518,56.717z   M46.518,39.19l3.945-0.518v6.253l-3.945,0.085V39.19z M46.518,27.478l3.945-1.21v6.192l-3.945,0.738V27.478z M46.518,15.801  l3.945-1.865v6.203l-3.945,1.384V15.801z M39.732,71.719l3.216,1.154v5.621l-3.216-1.492V71.719z M39.732,61.178l3.216,0.653v5.55  l-3.216-0.98V61.178z M39.732,50.628l3.216,0.106v5.59l-3.216-0.456V50.628z M39.732,39.98l3.216-0.418v5.586l-3.216,0.072V39.98z   M39.732,29.347l3.216-0.938v5.616l-3.216,0.599V29.347z M39.732,18.735l3.216-1.423v5.558l-3.216,1.128V18.735z M34.104,69.68  l2.716,0.979v5.132l-2.716-1.277V69.68z M34.104,60.041l2.716,0.514v5.082l-2.716-0.832V60.041z M34.104,50.352l2.716,0.089v5.04  l-2.716-0.338V50.352z M34.104,40.649l2.716-0.356v5.047l-2.716,0.108V40.649z M34.104,30.996l2.716-0.849v5.119l-2.716,0.505  V30.996z M34.104,21.254l2.716-1.203v5.044l-2.716,0.954V21.254z"></path><polygon  points="5,85.231 31.56,78.949 52.306,89.743 4.999,94.596 "></polygon></svg></svg><svg x="54.288888888888884" y="0" fill="#000" ><svg x="0" y="0" ><svg x="0" y="0" fill="#000" ><path d="" ></path></svg><svg x="0" y="11.044444444444444" fill="#000" ><path d="M1.745 16.955L1.745 16.955L1.745 16.955Q0.800 14.750 0.800 11.900L0.800 11.900L0.800 11.900Q0.800 9.050 1.745 6.845L1.745 6.845L1.745 6.845Q2.690 4.640 4.265 3.350L4.265 3.350L4.265 3.350Q5.840 2.060 7.745 1.430L7.745 1.430L7.745 1.430Q9.650 0.800 11.750 0.800L11.750 0.800L11.750 0.800Q13.070 0.800 14.315 0.980L14.315 0.980L14.315 0.980Q15.560 1.160 16.130 1.340L16.130 1.340L16.700 1.550L16.700 4.700L16.700 4.700Q14.450 3.950 11.750 3.950L11.750 3.950L11.750 3.950Q8.750 3.950 6.935 6.200L6.935 6.200L6.935 6.200Q5.120 8.450 5.120 11.900L5.120 11.900L5.120 11.900Q5.120 15.350 6.935 17.600L6.935 17.600L6.935 17.600Q8.750 19.850 11.750 19.850L11.750 19.850L11.750 19.850Q12.950 19.850 14.195 19.655L14.195 19.655L14.195 19.655Q15.440 19.460 16.070 19.280L16.070 19.280L16.700 19.100L16.700 22.250L16.700 22.250Q14.750 23 11.750 23L11.750 23L11.750 23Q9.650 23 7.745 22.370L7.745 22.370L7.745 22.370Q5.840 21.740 4.265 20.450L4.265 20.450L4.265 20.450Q2.690 19.160 1.745 16.955ZM22.400 1.100L22.400 22.700L18.200 22.700L18.200 1.100L22.400 1.100ZM23.150 1.100L40.550 1.100L40.550 4.250L33.950 4.250L33.950 22.700L29.750 22.700L29.750 4.250L23.150 4.250L23.150 1.100ZM45.500 13.040L45.500 19.550L54.800 19.550L54.800 22.700L41.300 22.700L41.300 1.100L54.500 1.100L54.500 4.250L45.500 4.250L45.500 9.890L53.750 9.890L53.750 13.040L45.500 13.040ZM73.400 1.100L73.400 15.200L73.400 15.200Q73.400 18.740 71.105 20.870L71.105 20.870L71.105 20.870Q68.810 23 64.700 23L64.700 23L64.700 23Q60.590 23 58.295 20.870L58.295 20.870L58.295 20.870Q56 18.740 56 15.200L56 15.200L56 1.100L60.200 1.100L60.200 15.200L60.200 15.200Q60.200 17.660 61.535 18.755L61.535 18.755L61.535 18.755Q62.870 19.850 64.700 19.850L64.700 19.850L64.700 19.850Q66.530 19.850 67.865 18.755L67.865 18.755L67.865 18.755Q69.200 17.660 69.200 15.200L69.200 15.200L69.200 1.100L73.400 1.100ZM94.190 22.700L89.930 22.700L81.980 10.700L81.980 10.700Q80.030 7.580 79.280 5.990L79.280 5.990L79.250 5.990L79.250 5.990Q79.400 7.910 79.400 10.700L79.400 10.700L79.400 22.700L75.200 22.700L75.200 1.100L79.460 1.100L87.410 13.100L87.410 13.100Q89.360 16.220 90.110 17.810L90.110 17.810L90.140 17.810L90.140 17.810Q89.990 15.890 89.990 13.100L89.990 13.100L89.990 1.100L94.190 1.100L94.190 22.700ZM100.490 1.100L100.490 22.700L96.290 22.700L96.290 1.100L100.490 1.100ZM121.010 1.100L113.210 22.700L108.890 22.700L101.090 1.100L105.410 1.100L109.520 13.100L109.520 13.100Q110.540 16.220 111.020 18.200L111.020 18.200L111.050 18.200L111.050 18.200Q111.620 15.860 112.580 13.100L112.580 13.100L116.690 1.100L121.010 1.100ZM125.810 13.040L125.810 19.550L135.110 19.550L135.110 22.700L121.610 22.700L121.610 1.100L134.810 1.100L134.810 4.250L125.810 4.250L125.810 9.890L134.060 9.890L134.060 13.040L125.810 13.040ZM143.510 3.950L140.810 4.100L140.810 10.700L140.810 10.700Q142.370 10.760 143.510 10.760L143.510 10.760L143.510 10.760Q145.640 10.760 146.615 9.875L146.615 9.875L146.615 9.875Q147.590 8.990 147.590 7.100L147.590 7.100L147.590 7.100Q147.590 5.750 146.525 4.850L146.525 4.850L146.525 4.850Q145.460 3.950 143.510 3.950L143.510 3.950M140.810 22.700L136.610 22.700L136.610 1.100L136.610 1.100Q140.990 0.800 143.510 0.800L143.510 0.800L143.510 0.800Q147.470 0.800 149.690 2.510L149.690 2.510L149.690 2.510Q151.910 4.220 151.910 7.100L151.910 7.100L151.910 7.100Q151.910 9.170 150.785 10.490L150.785 10.490L150.785 10.490Q149.660 11.810 148.160 12.140L148.160 12.140L148.160 12.140Q149.360 12.470 150.050 13.370L150.050 13.370L150.050 13.370Q150.740 14.270 151.160 16.550L151.160 16.550L151.160 16.550Q151.520 18.560 151.955 20.090L151.955 20.090L151.955 20.090Q152.390 21.620 152.630 22.160L152.630 22.160L152.870 22.700L148.490 22.700L148.490 22.700Q147.860 21.920 146.990 16.550L146.990 16.550L146.990 16.550Q146.750 15.080 145.955 14.495L145.955 14.495L145.955 14.495Q145.160 13.910 143.510 13.910L143.510 13.910L140.810 14L140.810 22.700ZM152.870 6.350L152.870 6.350L152.870 6.350Q152.870 3.800 154.955 2.300L154.955 2.300L154.955 2.300Q157.040 0.800 160.580 0.800L160.580 0.800L160.580 0.800Q161.840 0.800 163.100 1.025L163.100 1.025L163.100 1.025Q164.360 1.250 164.990 1.460L164.990 1.460L165.620 1.700L165.620 4.850L165.620 4.850Q163.820 3.950 160.580 3.950L160.580 3.950L160.580 3.950Q157.190 3.950 157.190 6.350L157.190 6.350L157.190 6.350Q157.190 7.400 158.030 8.225L158.030 8.225L158.030 8.225Q158.870 9.050 160.670 10.160L160.670 10.160L160.670 10.160Q162.590 11.330 163.700 12.215L163.700 12.215L163.700 12.215Q164.810 13.100 165.590 14.405L165.590 14.405L165.590 14.405Q166.370 15.710 166.370 17.300L166.370 17.300L166.370 17.300Q166.370 20.240 164.255 21.620L164.255 21.620L164.255 21.620Q162.140 23 158.630 23L158.630 23L158.630 23Q157.250 23 155.840 22.775L155.840 22.775L155.840 22.775Q154.430 22.550 153.740 22.340L153.740 22.340L153.020 22.100L153.020 18.950L153.020 18.950Q155.600 19.850 158.630 19.850L158.630 19.850L158.630 19.850Q162.050 19.850 162.050 17.300L162.050 17.300L162.050 17.300Q162.050 16.400 161.360 15.650L161.360 15.650L161.360 15.650Q160.670 14.900 158.570 13.640L158.570 13.640L158.570 13.640Q155.810 11.990 154.340 10.265L154.340 10.265L154.340 10.265Q152.870 8.540 152.870 6.350ZM171.920 1.100L171.920 22.700L167.720 22.700L167.720 1.100L171.920 1.100ZM172.670 1.100L190.070 1.100L190.070 4.250L183.470 4.250L183.470 22.700L179.270 22.700L179.270 4.250L172.670 4.250L172.670 1.100ZM209.240 22.700L204.920 22.700L203.060 17.300L195.500 17.300L193.640 22.700L189.320 22.700L197.120 1.100L201.440 1.100L209.240 22.700M197.690 10.640L196.490 14.180L202.070 14.180L200.870 10.640L200.870 10.640Q199.700 7.220 199.280 5.390L199.280 5.390L199.250 5.390L199.250 5.390Q198.860 7.220 197.690 10.640L197.690 10.640ZM214.040 1.100L214.040 22.700L209.840 22.700L209.840 1.100L214.040 1.100ZM223.040 3.950L220.340 4.100L220.340 10.700L220.340 10.700Q221.900 10.760 223.040 10.760L223.040 10.760L223.040 10.760Q225.170 10.760 226.145 9.875L226.145 9.875L226.145 9.875Q227.120 8.990 227.120 7.100L227.120 7.100L227.120 7.100Q227.120 5.750 226.055 4.850L226.055 4.850L226.055 4.850Q224.990 3.950 223.040 3.950L223.040 3.950M220.340 22.700L216.140 22.700L216.140 1.100L216.140 1.100Q220.520 0.800 223.040 0.800L223.040 0.800L223.040 0.800Q227.000 0.800 229.220 2.510L229.220 2.510L229.220 2.510Q231.440 4.220 231.440 7.100L231.440 7.100L231.440 7.100Q231.440 9.170 230.315 10.490L230.315 10.490L230.315 10.490Q229.190 11.810 227.690 12.140L227.690 12.140L227.690 12.140Q228.890 12.470 229.580 13.370L229.580 13.370L229.580 13.370Q230.270 14.270 230.690 16.550L230.690 16.550L230.690 16.550Q231.050 18.560 231.485 20.090L231.485 20.090L231.485 20.090Q231.920 21.620 232.160 22.160L232.160 22.160L232.400 22.700L228.020 22.700L228.020 22.700Q227.390 21.920 226.520 16.550L226.520 16.550L226.520 16.550Q226.280 15.080 225.485 14.495L225.485 14.495L225.485 14.495Q224.690 13.910 223.040 13.910L223.040 13.910L220.340 14L220.340 22.700ZM237.350 13.040L237.350 19.550L246.650 19.550L246.650 22.700L233.150 22.700L233.150 1.100L246.350 1.100L246.350 4.250L237.350 4.250L237.350 9.890L245.600 9.890L245.600 13.040L237.350 13.040Z" ></path></svg></svg></svg></svg>