<svg id="al93k4as9h1z" version="1.1" xmlns="http://www.w3.org/2000/svg" xmlns:xlink="http://www.w3.org/1999/xlink" width="143.76999999999998" height="154.6" viewBox="0 0 143.76999999999998 154.6" style="" ><svg y="0" x="31.88499999999999" ><svg width="80" height="80" fill="#fff" x="0" y="0" ><svg xmlns="http://www.w3.org/2000/svg" xmlns:xlink="http://www.w3.org/1999/xlink" version="1.1" x="0px" y="0px" viewBox="0 0 100 100" enable-background="new 0 0 100 100" xml:space="preserve"><path d="M95,61.045v-1.631l-3.797-5.242h-36.41V13.917h3.168V10.75h-3.168H8.168H5v3.167h3.168v72.166H5v3.167h3.168h43.605h3.02  h3.168h36.316v-3.167h-1.809V61.045H95L95,61.045z M17.171,82.966h-4.667v-4.667h4.667L17.171,82.966L17.171,82.966z M17.171,75.341  h-4.667v-4.667h4.667L17.171,75.341L17.171,75.341z M17.171,67.717h-4.667v-4.668h4.667L17.171,67.717L17.171,67.717z M17.171,60.09  h-4.667v-4.665h4.667L17.171,60.09L17.171,60.09z M17.171,52.466h-4.667v-4.667h4.667L17.171,52.466L17.171,52.466z M17.171,44.841  h-4.667v-4.668h4.667L17.171,44.841L17.171,44.841z M17.171,37.215h-4.667v-4.669h4.667L17.171,37.215L17.171,37.215z   M17.171,29.592h-4.667v-4.67h4.667L17.171,29.592L17.171,29.592z M17.171,21.965h-4.667v-4.667h4.667L17.171,21.965L17.171,21.965z   M25.496,82.966h-4.668v-4.667h4.668V82.966z M25.496,75.341h-4.668v-4.667h4.668V75.341z M25.496,67.717h-4.668v-4.668h4.668  V67.717z M25.496,60.09h-4.668v-4.665h4.668V60.09z M25.496,52.466h-4.668v-4.667h4.668V52.466z M25.496,44.841h-4.668v-4.668h4.668  V44.841z M25.496,37.215h-4.668v-4.669h4.668V37.215z M25.496,29.592h-4.668v-4.67h4.668V29.592z M25.496,21.965h-4.668v-4.667  h4.668V21.965z M33.819,82.966h-4.667v-4.667h4.667V82.966z M33.819,75.341h-4.667v-4.667h4.667V75.341z M33.819,67.717h-4.667  v-4.668h4.667V67.717z M33.819,60.09h-4.667v-4.665h4.667V60.09z M33.819,52.466h-4.667v-4.667h4.667V52.466z M33.819,44.841h-4.667  v-4.668h4.667V44.841z M33.819,37.215h-4.667v-4.669h4.667V37.215z M33.819,29.592h-4.667v-4.67h4.667V29.592z M33.819,21.965  h-4.667v-4.667h4.667V21.965z M42.144,82.966h-4.669v-4.667h4.669V82.966z M42.144,75.341h-4.669v-4.667h4.669V75.341z   M42.144,67.717h-4.669v-4.668h4.669V67.717z M42.144,60.09h-4.669v-4.665h4.669V60.09z M42.144,52.466h-4.669v-4.667h4.669V52.466z   M42.144,44.841h-4.669v-4.668h4.669V44.841z M42.144,37.215h-4.669v-4.669h4.669V37.215z M42.144,29.592h-4.669v-4.67h4.669V29.592  z M42.144,21.965h-4.669v-4.667h4.669V21.965z M50.469,82.966h-4.668v-4.667h4.668V82.966z M50.469,75.341h-4.668v-4.667h4.668  V75.341z M50.469,67.717h-4.668v-4.668h4.668V67.717z M50.469,60.09h-4.668v-4.665h4.668V60.09z M50.469,52.466h-4.668v-4.667h4.668  V52.466z M50.469,44.841h-4.668v-4.668h4.668V44.841z M50.469,37.215h-4.668v-4.669h4.668V37.215z M50.469,29.592h-4.668v-4.67  h4.668V29.592z M50.469,21.965h-4.668v-4.667h4.668V21.965z M64.46,82.966h-4.884V73.82h4.884V82.966z M64.46,69.944h-4.884V60.8  h4.884V69.944z M75.13,82.966h-4.882V73.82h4.882V82.966z M75.13,69.944h-4.882V60.8h4.882V69.944z M85.8,82.966h-4.88V73.82h4.88  V82.966z M85.8,69.944h-4.88V60.8h4.88V69.944z"></path></svg></svg></svg><svg x="0" y="95" fill="#fff" ><svg x="0" y="0" ><svg x="49.10999999999999" y="0" fill="#fff" ><path d="M5.555 5.090L5.555 5.090L5.555 5.090Q3.260 7.430 3.260 11.900L3.260 11.900L3.260 11.900Q3.260 16.370 5.555 18.710L5.555 18.710L5.555 18.710Q7.850 21.050 11.150 21.050L11.150 21.050L11.150 21.050Q12.110 21.050 13.280 20.825L13.280 20.825L13.280 20.825Q14.450 20.600 15.140 20.360L15.140 20.360L15.800 20.150L15.800 22.100L15.800 22.100Q13.640 23 10.850 23L10.850 23L10.850 23Q6.530 23 3.665 20.150L3.665 20.150L3.665 20.150Q0.800 17.300 0.800 11.900L0.800 11.900L0.800 11.900Q0.800 6.500 3.665 3.650L3.665 3.650L3.665 3.650Q6.530 0.800 10.850 0.800L10.850 0.800L10.850 0.800Q12.080 0.800 13.325 1.025L13.325 1.025L13.325 1.025Q14.570 1.250 15.200 1.460L15.200 1.460L15.800 1.700L15.800 3.650L15.800 3.650Q13.340 2.750 11.150 2.750L11.150 2.750L11.150 2.750Q7.850 2.750 5.555 5.090ZM20.300 7.100L20.300 22.700L17.900 22.700L17.900 7.100L20.300 7.100M20.165 1.235L20.165 1.235L20.165 1.235Q20.600 1.670 20.600 2.300L20.600 2.300L20.600 2.300Q20.600 2.930 20.165 3.365L20.165 3.365L20.165 3.365Q19.730 3.800 19.100 3.800L19.100 3.800L19.100 3.800Q18.470 3.800 18.035 3.365L18.035 3.365L18.035 3.365Q17.600 2.930 17.600 2.300L17.600 2.300L17.600 2.300Q17.600 1.670 18.035 1.235L18.035 1.235L18.035 1.235Q18.470 0.800 19.100 0.800L19.100 0.800L19.100 0.800Q19.730 0.800 20.165 1.235ZM26.450 7.100L30.050 7.100L30.050 9.050L26.450 9.050L26.450 18.800L26.450 18.800Q26.450 20.090 26.855 20.570L26.855 20.570L26.855 20.570Q27.260 21.050 28.250 21.050L28.250 21.050L30.050 20.900L30.050 22.850L30.050 22.850Q30.020 23 27.950 23L27.950 23L27.950 23Q25.880 23 24.965 22.145L24.965 22.145L24.965 22.145Q24.050 21.290 24.050 19.100L24.050 19.100L24.050 9.050L21.500 9.050L21.500 7.100L24.050 7.100L24.050 3.500L26.450 3.500L26.450 7.100ZM44.660 15.050L33.350 15.050L33.350 15.050Q33.350 18.050 34.910 19.550L34.910 19.550L34.910 19.550Q36.470 21.050 39.050 21.050L39.050 21.050L39.050 21.050Q40.220 21.050 41.270 20.900L41.270 20.900L41.270 20.900Q42.320 20.750 42.770 20.600L42.770 20.600L43.250 20.450L43.250 22.400L43.250 22.400Q42.290 23 39.350 23L39.350 23L39.350 23Q35.690 23 33.320 20.975L33.320 20.975L33.320 20.975Q30.950 18.950 30.950 14.900L30.950 14.900L30.950 14.900Q30.950 11.180 33.125 8.990L33.125 8.990L33.125 8.990Q35.300 6.800 38.150 6.800L38.150 6.800L38.150 6.800Q39.860 6.800 41.210 7.490L41.210 7.490L41.210 7.490Q42.560 8.180 43.295 9.230L43.295 9.230L43.295 9.230Q44.030 10.280 44.390 11.360L44.390 11.360L44.390 11.360Q44.750 12.440 44.750 13.400L44.750 13.400L44.660 15.050M38.150 8.750L38.150 8.750L38.150 8.750Q36.200 8.750 34.835 10.085L34.835 10.085L34.835 10.085Q33.470 11.420 33.470 13.250L33.470 13.250L42.470 13.250L42.470 13.250Q42.470 11.270 41.315 10.010L41.315 10.010L41.315 10.010Q40.160 8.750 38.150 8.750Z" ></path></svg><svg x="0" y="29.8" fill="#fff" ><path d="M16.400 1.100L16.400 14.900L16.400 14.900Q16.400 18.530 14.405 20.765L14.405 20.765L14.405 20.765Q12.410 23 8.600 23L8.600 23L8.600 23Q4.790 23 2.795 20.765L2.795 20.765L2.795 20.765Q0.800 18.530 0.800 14.900L0.800 14.900L0.800 1.100L3.200 1.100L3.200 14.900L3.200 14.900Q3.200 21.050 8.600 21.050L8.600 21.050L8.600 21.050Q14 21.050 14 14.900L14 14.900L14 1.100L16.400 1.100ZM21.200 9.500L21.200 9.500L21.200 9.500Q22.760 6.800 26.300 6.800L26.300 6.800L26.300 6.800Q29.240 6.800 30.620 8.780L30.620 8.780L30.620 8.780Q32 10.760 32 13.700L32 13.700L32 22.700L29.600 22.700L29.600 14.300L29.600 14.300Q29.600 11.600 28.760 10.175L28.760 10.175L28.760 10.175Q27.920 8.750 25.700 8.750L25.700 8.750L25.700 8.750Q23.600 8.750 22.400 10.070L22.400 10.070L22.400 10.070Q21.200 11.390 21.200 13.550L21.200 13.550L21.200 22.700L18.800 22.700L18.800 7.100L20.900 7.100L20.900 7.100Q21.200 8.120 21.200 9.500ZM36.950 7.100L36.950 22.700L34.550 22.700L34.550 7.100L36.950 7.100M36.815 1.235L36.815 1.235L36.815 1.235Q37.250 1.670 37.250 2.300L37.250 2.300L37.250 2.300Q37.250 2.930 36.815 3.365L36.815 3.365L36.815 3.365Q36.380 3.800 35.750 3.800L35.750 3.800L35.750 3.800Q35.120 3.800 34.685 3.365L34.685 3.365L34.685 3.365Q34.250 2.930 34.250 2.300L34.250 2.300L34.250 2.300Q34.250 1.670 34.685 1.235L34.685 1.235L34.685 1.235Q35.120 0.800 35.750 0.800L35.750 0.800L35.750 0.800Q36.380 0.800 36.815 1.235ZM45.380 20.180L45.410 20.180L45.410 20.180Q45.890 18.530 47.060 15.500L47.060 15.500L50.150 7.100L52.670 7.100L46.670 22.700L44.150 22.700L38.150 7.100L40.670 7.100L43.760 15.500L43.760 15.500Q44.930 18.560 45.380 20.180L45.380 20.180ZM66.680 15.050L55.370 15.050L55.370 15.050Q55.370 18.050 56.930 19.550L56.930 19.550L56.930 19.550Q58.490 21.050 61.070 21.050L61.070 21.050L61.070 21.050Q62.240 21.050 63.290 20.900L63.290 20.900L63.290 20.900Q64.340 20.750 64.790 20.600L64.790 20.600L65.270 20.450L65.270 22.400L65.270 22.400Q64.310 23 61.370 23L61.370 23L61.370 23Q57.710 23 55.340 20.975L55.340 20.975L55.340 20.975Q52.970 18.950 52.970 14.900L52.970 14.900L52.970 14.900Q52.970 11.180 55.145 8.990L55.145 8.990L55.145 8.990Q57.320 6.800 60.170 6.800L60.170 6.800L60.170 6.800Q61.880 6.800 63.230 7.490L63.230 7.490L63.230 7.490Q64.580 8.180 65.315 9.230L65.315 9.230L65.315 9.230Q66.050 10.280 66.410 11.360L66.410 11.360L66.410 11.360Q66.770 12.440 66.770 13.400L66.770 13.400L66.680 15.050M60.170 8.750L60.170 8.750L60.170 8.750Q58.220 8.750 56.855 10.085L56.855 10.085L56.855 10.085Q55.490 11.420 55.490 13.250L55.490 13.250L64.490 13.250L64.490 13.250Q64.490 11.270 63.335 10.010L63.335 10.010L63.335 10.010Q62.180 8.750 60.170 8.750ZM71.270 10.400L71.270 10.400L71.270 10.400Q71.630 8.870 72.935 7.835L72.935 7.835L72.935 7.835Q74.240 6.800 76.370 6.800L76.370 6.800L76.370 8.900L76.370 8.900Q73.670 8.900 72.470 10.520L72.470 10.520L72.470 10.520Q71.270 12.140 71.270 16.100L71.270 16.100L71.270 22.700L68.870 22.700L68.870 7.100L70.970 7.100L70.970 7.100Q71.270 8.270 71.270 10.400ZM81.050 15.920L81.050 15.920L81.050 15.920Q79.820 15.230 79.295 14.900L79.295 14.900L79.295 14.900Q78.770 14.570 78.065 13.970L78.065 13.970L78.065 13.970Q77.360 13.370 77.090 12.695L77.090 12.695L77.090 12.695Q76.820 12.020 76.820 11.150L76.820 11.150L76.820 11.150Q76.820 9.200 78.305 8L78.305 8L78.305 8Q79.790 6.800 82.070 6.800L82.070 6.800L82.070 6.800Q82.970 6.800 83.870 6.920L83.870 6.920L83.870 6.920Q84.770 7.040 85.220 7.160L85.220 7.160L85.670 7.250L85.670 9.200L85.670 9.200Q84.410 8.750 81.770 8.750L81.770 8.750L81.770 8.750Q80.690 8.750 79.985 9.440L79.985 9.440L79.985 9.440Q79.280 10.130 79.280 11.150L79.280 11.150L79.280 11.150Q79.280 11.810 79.910 12.380L79.910 12.380L79.910 12.380Q80.540 12.950 82.190 13.880L82.190 13.880L82.190 13.880Q84.500 15.170 85.460 16.250L85.460 16.250L85.460 16.250Q86.420 17.330 86.420 18.800L86.420 18.800L86.420 18.800Q86.420 20.660 85.070 21.830L85.070 21.830L85.070 21.830Q83.720 23 81.170 23L81.170 23L81.170 23Q79.910 23 78.860 22.895L78.860 22.895L78.860 22.895Q77.810 22.790 77.390 22.670L77.390 22.670L76.970 22.550L76.970 20.600L76.970 20.600Q78.320 21.050 81.170 21.050L81.170 21.050L81.170 21.050Q82.550 21.050 83.255 20.390L83.255 20.390L83.255 20.390Q83.960 19.730 83.960 18.800L83.960 18.800L83.960 18.800Q83.960 18.020 83.225 17.375L83.225 17.375L83.225 17.375Q82.490 16.730 81.050 15.920ZM90.770 7.100L90.770 22.700L88.370 22.700L88.370 7.100L90.770 7.100M90.635 1.235L90.635 1.235L90.635 1.235Q91.070 1.670 91.070 2.300L91.070 2.300L91.070 2.300Q91.070 2.930 90.635 3.365L90.635 3.365L90.635 3.365Q90.200 3.800 89.570 3.800L89.570 3.800L89.570 3.800Q88.940 3.800 88.505 3.365L88.505 3.365L88.505 3.365Q88.070 2.930 88.070 2.300L88.070 2.300L88.070 2.300Q88.070 1.670 88.505 1.235L88.505 1.235L88.505 1.235Q88.940 0.800 89.570 0.800L89.570 0.800L89.570 0.800Q90.200 0.800 90.635 1.235ZM96.920 7.100L100.520 7.100L100.520 9.050L96.920 9.050L96.920 18.800L96.920 18.800Q96.920 20.090 97.325 20.570L97.325 20.570L97.325 20.570Q97.730 21.050 98.720 21.050L98.720 21.050L100.520 20.900L100.520 22.850L100.520 22.850Q100.490 23 98.420 23L98.420 23L98.420 23Q96.350 23 95.435 22.145L95.435 22.145L95.435 22.145Q94.520 21.290 94.520 19.100L94.520 19.100L94.520 9.050L91.970 9.050L91.970 7.100L94.520 7.100L94.520 3.500L96.920 3.500L96.920 7.100ZM107.570 6.800L107.570 6.800L107.570 6.800Q110.390 6.800 112.055 8.675L112.055 8.675L112.055 8.675Q113.720 10.550 113.720 13.100L113.720 13.100L113.720 22.700L111.620 22.700L111.620 22.700Q111.320 21.680 111.320 20.300L111.320 20.300L111.320 20.300Q110.720 21.590 109.565 22.295L109.565 22.295L109.565 22.295Q108.410 23 106.970 23L106.970 23L106.970 23Q104.720 23 103.145 21.800L103.145 21.800L103.145 21.800Q101.570 20.600 101.570 18.050L101.570 18.050L101.570 18.050Q101.570 15.710 103.145 14.105L103.145 14.105L103.145 14.105Q104.720 12.500 107.270 12.500L107.270 12.500L107.270 12.500Q108.440 12.500 109.445 12.650L109.445 12.650L109.445 12.650Q110.450 12.800 110.900 12.950L110.900 12.950L111.320 13.100L111.320 13.100Q111.320 8.750 107.270 8.750L107.270 8.750L107.270 8.750Q106.010 8.750 104.885 8.975L104.885 8.975L104.885 8.975Q103.760 9.200 103.280 9.440L103.280 9.440L102.770 9.650L102.770 7.700L102.770 7.700Q104.900 6.800 107.570 6.800M111.320 16.250L111.320 16.250L111.320 14.900L111.320 14.900Q109.910 14.450 107.270 14.450L107.270 14.450L107.270 14.450Q105.800 14.450 104.915 15.455L104.915 15.455L104.915 15.455Q104.030 16.460 104.030 18.050L104.030 18.050L104.030 18.050Q104.030 19.520 104.840 20.285L104.840 20.285L104.840 20.285Q105.650 21.050 106.970 21.050L106.970 21.050L106.970 21.050Q108.890 21.050 110.105 19.700L110.105 19.700L110.105 19.700Q111.320 18.350 111.320 16.250ZM118.670 7.100L118.670 22.700L116.270 22.700L116.270 7.100L118.670 7.100M118.535 1.235L118.535 1.235L118.535 1.235Q118.970 1.670 118.970 2.300L118.970 2.300L118.970 2.300Q118.970 2.930 118.535 3.365L118.535 3.365L118.535 3.365Q118.100 3.800 117.470 3.800L117.470 3.800L117.470 3.800Q116.840 3.800 116.405 3.365L116.405 3.365L116.405 3.365Q115.970 2.930 115.970 2.300L115.970 2.300L115.970 2.300Q115.970 1.670 116.405 1.235L116.405 1.235L116.405 1.235Q116.840 0.800 117.470 0.800L117.470 0.800L117.470 0.800Q118.100 0.800 118.535 1.235ZM123.770 10.400L123.770 10.400L123.770 10.400Q124.130 8.870 125.435 7.835L125.435 7.835L125.435 7.835Q126.740 6.800 128.870 6.800L128.870 6.800L128.870 8.900L128.870 8.900Q126.170 8.900 124.970 10.520L124.970 10.520L124.970 10.520Q123.770 12.140 123.770 16.100L123.770 16.100L123.770 22.700L121.370 22.700L121.370 7.100L123.470 7.100L123.470 7.100Q123.770 8.270 123.770 10.400ZM142.880 15.050L131.570 15.050L131.570 15.050Q131.570 18.050 133.130 19.550L133.130 19.550L133.130 19.550Q134.690 21.050 137.270 21.050L137.270 21.050L137.270 21.050Q138.440 21.050 139.490 20.900L139.490 20.900L139.490 20.900Q140.540 20.750 140.990 20.600L140.990 20.600L141.470 20.450L141.470 22.400L141.470 22.400Q140.510 23 137.570 23L137.570 23L137.570 23Q133.910 23 131.540 20.975L131.540 20.975L131.540 20.975Q129.170 18.950 129.170 14.900L129.170 14.900L129.170 14.900Q129.170 11.180 131.345 8.990L131.345 8.990L131.345 8.990Q133.520 6.800 136.370 6.800L136.370 6.800L136.370 6.800Q138.080 6.800 139.430 7.490L139.430 7.490L139.430 7.490Q140.780 8.180 141.515 9.230L141.515 9.230L141.515 9.230Q142.250 10.280 142.610 11.360L142.610 11.360L142.610 11.360Q142.970 12.440 142.970 13.400L142.970 13.400L142.880 15.050M136.370 8.750L136.370 8.750L136.370 8.750Q134.420 8.750 133.055 10.085L133.055 10.085L133.055 10.085Q131.690 11.420 131.690 13.250L131.690 13.250L140.690 13.250L140.690 13.250Q140.690 11.270 139.535 10.010L139.535 10.010L139.535 10.010Q138.380 8.750 136.370 8.750Z" ></path></svg></svg></svg></svg>