<?xml version="1.0" encoding="UTF-8" standalone="no"?>
<svg width="44px" height="36px" viewBox="0 0 44 36" version="1.1" xmlns="http://www.w3.org/2000/svg" xmlns:xlink="http://www.w3.org/1999/xlink" xmlns:sketch="http://www.bohemiancoding.com/sketch/ns">
    <!-- Generator: Sketch 3.2.2 (9983) - http://www.bohemiancoding.com/sketch -->
    <title>Imported Layers</title>
    <desc>Created with Sketch.</desc>
    <defs></defs>
    <g id="Page-1" stroke="none" stroke-width="1" fill="none" fill-rule="evenodd" sketch:type="MSPage">
        <g id="Desktop-HD" sketch:type="MSArtboardGroup" transform="translate(-695.000000, -1197.000000)" fill="#000000">
            <g id="Features" sketch:type="MSLayerGroup" transform="translate(-30.000000, 904.000000)">
                <g id="Business" transform="translate(725.000000, 289.000000)" sketch:type="MSShapeGroup">
                    <path d="M37,20 L29,20 C28.448,20 28,20.448 28,21 C28,21.553 28.448,22 29,22 L37,22 C37.552,22 38,21.553 38,21 C38,20.448 37.552,20 37,20 L37,20 Z M21,12 L29,12 C29.552,12 30,11.552 30,11 C30,10.447 29.552,10 29,10 L21,10 C20.448,10 20,10.447 20,11 C20,11.552 20.448,12 21,12 L21,12 Z M33,12 C33.552,12 34,11.552 34,11 C34,10.447 33.552,10 33,10 C32.448,10 32,10.447 32,11 C32,11.552 32.448,12 33,12 L33,12 Z M37,12 C37.552,12 38,11.552 38,11 C38,10.447 37.552,10 37,10 C36.448,10 36,10.447 36,11 C36,11.552 36.448,12 37,12 L37,12 Z M37,16 L29,16 C28.448,16 28,16.448 28,17 C28,17.553 28.448,18 29,18 L37,18 C37.552,18 38,17.553 38,17 C38,16.448 37.552,16 37,16 L37,16 Z M37,24.001 L29,24.001 C28.448,24.001 28,24.447 28,25 C28,25.553 28.448,26 29,26 L37,26 C37.552,26 38,25.553 38,25 C38,24.447 37.552,24.001 37,24.001 L37,24.001 Z M13,34 L37,34 C37.552,34 38,33.553 38,33 C38,32.447 37.552,32.001 37,32.001 L13,32.001 C12.448,32.001 12,32.447 12,33 C12,33.553 12.448,34 13,34 L13,34 Z M17,12 C17.552,12 18,11.552 18,11 C18,10.447 17.552,10 17,10 C16.448,10 16,10.447 16,11 C16,11.552 16.448,12 17,12 L17,12 Z M42,4 L8,4 C6.896,4 6,4.896 6,6 L6,10 L2,10 C0.896,10 0,10.896 0,12 L0,34 C0,37.314 2.687,40 6,40 L42,40 C43.104,40 44,39.105 44,38 L44,6 C44,4.896 43.104,4 42,4 L42,4 Z M42,38 L6,38 C3.791,38 2,36.209 2,34 L2,12 L6,12 L6,33 C6,33.553 6.448,34 7,34 C7.552,34 8,33.553 8,33 L8,6 L42,6 L42,38 L42,38 Z M13,30 L37,30 C37.552,30 38,29.553 38,29 C38,28.447 37.552,28.001 37,28.001 L13,28.001 C12.448,28.001 12,28.447 12,29 C12,29.553 12.448,30 13,30 L13,30 Z M13,12 C13.552,12 14,11.552 14,11 C14,10.447 13.552,10 13,10 C12.448,10 12,10.447 12,11 C12,11.552 12.448,12 13,12 L13,12 Z M13,26 L23,26 C23.552,26 24,25.553 24,25 L24,17 C24,16.448 23.552,16 23,16 L13,16 C12.448,16 12,16.448 12,17 L12,25 C12,25.553 12.448,26 13,26 L13,26 Z M14,18 L22,18 L22,24.001 L14,24.001 L14,18 Z" id="Imported-Layers"></path>
                </g>
            </g>
        </g>
    </g>
</svg>