<?xml version="1.0" encoding="UTF-8" standalone="no"?>
<svg width="18px" height="18px" viewBox="0 0 18 18" version="1.1" xmlns="http://www.w3.org/2000/svg" xmlns:xlink="http://www.w3.org/1999/xlink" xmlns:sketch="http://www.bohemiancoding.com/sketch/ns">
    <!-- Generator: Sketch 3.3 (11970) - http://www.bohemiancoding.com/sketch -->
    <title>Imported Layers</title>
    <desc>Created with Sketch.</desc>
    <defs></defs>
    <g id="Page-1" stroke="none" stroke-width="1" fill="none" fill-rule="evenodd" sketch:type="MSPage">
        <g id="top-bar-action-bar" sketch:type="MSArtboardGroup" transform="translate(-1360.000000, -12.000000)" fill="#FFFFFF">
            <path d="M1369.707,21 L1377.8535,12.8535 C1377.9445,12.763 1378,12.638 1378,12.5 C1378,12.224 1377.7765,12 1377.5,12 C1377.362,12 1377.237,12.056 1377.1465,12.1465 L1369,20.293 L1360.8535,12.1465 C1360.763,12.056 1360.638,12 1360.5,12 C1360.2235,12 1360,12.224 1360,12.5 C1360,12.638 1360.0555,12.763 1360.1465,12.854 L1368.293,21 L1360.1465,29.1465 C1360.0555,29.237 1360,29.362 1360,29.5 C1360,29.7765 1360.2235,30 1360.5,30 C1360.638,30 1360.763,29.944 1360.8535,29.8535 L1369,21.707 L1377.1465,29.8535 C1377.237,29.944 1377.362,30 1377.5,30 C1377.7765,30 1378,29.7765 1378,29.5 C1378,29.362 1377.9445,29.237 1377.8535,29.1465 L1369.707,21" id="Imported-Layers" sketch:type="MSShapeGroup"></path>
        </g>
    </g>
</svg>