<?xml version="1.0" encoding="UTF-8" standalone="no"?>
<svg width="100px" height="100px" viewBox="0 0 100 100" version="1.1" xmlns="http://www.w3.org/2000/svg" xmlns:xlink="http://www.w3.org/1999/xlink" xmlns:sketch="http://www.bohemiancoding.com/sketch/ns">
    <!-- Generator: Sketch 3.2.2 (9983) - http://www.bohemiancoding.com/sketch -->
    <title>Imported Layers</title>
    <desc>Created with Sketch.</desc>
    <defs></defs>
    <g id="Page-1" stroke="none" stroke-width="1" fill="none" fill-rule="evenodd" sketch:type="MSPage">
        <g id="Desktop-HD" sketch:type="MSArtboardGroup" transform="translate(-331.000000, -2940.000000)" fill="#FFFFFF">
            <g id="stats" sketch:type="MSLayerGroup" transform="translate(-31.000000, 2654.000000)">
                <g id="Imported-Layers-+-Download-+-683,725" transform="translate(329.000000, 286.000000)" sketch:type="MSShapeGroup">
                    <path d="M92.0909091,40.9090909 C91.4636364,40.9090909 90.8954545,41.1636364 90.4840909,41.575 L85.2727273,46.7863636 L85.2727273,20.4568182 L85.2727273,20.4545455 C85.2727273,19.2 84.2545455,18.1818182 83,18.1818182 C81.7454545,18.1818182 80.7272727,19.2 80.7272727,20.4545455 L80.7272727,46.7863636 L75.5159091,41.575 C75.1045455,41.1636364 74.5363636,40.9090909 73.9090909,40.9090909 C72.6545455,40.9090909 71.6363636,41.9272727 71.6363636,43.1818182 C71.6363636,43.8113636 71.8909091,44.3795455 72.3022727,44.7886364 L81.3931818,53.8795455 C81.8045455,54.2931818 82.3727273,54.5454545 83,54.5454545 C83.6272727,54.5454545 84.1954545,54.2931818 84.6068182,53.8795455 L93.6977273,44.7886364 C94.1090909,44.3795455 94.3636364,43.8113636 94.3636364,43.1818182 C94.3636364,41.9272727 93.3454545,40.9090909 92.0909091,40.9090909 L92.0909091,40.9090909 Z M123.909091,0 L42.0909091,0 C37.0704545,0 33,4.07045455 33,9.09090909 L33,77.2727273 C33,82.2931818 37.0704545,86.3636364 42.0909091,86.3636364 L73.9090909,86.3636364 L73.9090909,95.4545455 L67.0909091,95.4545455 C65.8363636,95.4545455 64.8181818,96.4704545 64.8181818,97.7272727 C64.8181818,98.9840909 65.8363636,100 67.0909091,100 L98.9090909,100 C100.163636,100 101.181818,98.9840909 101.181818,97.7272727 C101.181818,96.4704545 100.163636,95.4545455 98.9090909,95.4545455 L92.0909091,95.4545455 L92.0909091,86.3636364 L123.909091,86.3636364 C128.929545,86.3636364 133,82.2931818 133,77.2727273 L133,9.09090909 C133,4.07045455 128.929545,0 123.909091,0 L123.909091,0 Z M78.4545455,86.3636364 L87.5454545,86.3636364 L87.5454545,95.4545455 L78.4545455,95.4545455 L78.4545455,86.3636364 Z M128.454545,77.2727273 C128.454545,79.7840909 126.420455,81.8181818 123.909091,81.8181818 L42.0909091,81.8181818 C39.5818182,81.8181818 37.5454545,79.7840909 37.5454545,77.2727273 L37.5454545,72.7272727 L128.454545,72.7272727 L128.454545,77.2727273 L128.454545,77.2727273 Z M128.454545,68.1818182 L37.5454545,68.1818182 L37.5454545,9.09090909 C37.5454545,6.58181818 39.5818182,4.54545455 42.0909091,4.54545455 L123.909091,4.54545455 C126.420455,4.54545455 128.454545,6.58181818 128.454545,9.09090909 L128.454545,68.1818182 L128.454545,68.1818182 Z" id="Imported-Layers"></path>
                </g>
            </g>
        </g>
    </g>
</svg>