<?xml version="1.0" encoding="UTF-8" standalone="no"?>
<svg width="60px" height="60px" viewBox="0 0 60 60" version="1.1" xmlns="http://www.w3.org/2000/svg" xmlns:xlink="http://www.w3.org/1999/xlink" xmlns:sketch="http://www.bohemiancoding.com/sketch/ns">
    <!-- Generator: Sketch 3.3 (11970) - http://www.bohemiancoding.com/sketch -->
    <title>Imported Layers</title>
    <desc>Created with Sketch.</desc>
    <defs></defs>
    <g id="Page-1" stroke="none" stroke-width="1" fill="none" fill-rule="evenodd" sketch:type="MSPage">
        <g id="Desktop-HD" sketch:type="MSArtboardGroup" transform="translate(-525.000000, -7933.000000)" fill="#FFFFFF">
            <g id="share-the-love" sketch:type="MSLayerGroup" transform="translate(0.000000, 7672.000000)">
                <g id="Group" transform="translate(525.000000, 261.000000)" sketch:type="MSShapeGroup">
                    <path d="M30,0 C13.4318182,0 0,13.4318182 0,30 C0,46.5681818 13.4318182,60 30,60 C46.5681818,60 60,46.5681818 60,30 C60,13.4318182 46.5681818,0 30,0 L30,0 Z M30,57.2727273 C14.9372727,57.2727273 2.72727273,45.0627273 2.72727273,30 C2.72727273,14.9386364 14.9372727,2.72727273 30,2.72727273 C45.0627273,2.72727273 57.2727273,14.9386364 57.2727273,30 C57.2727273,45.0627273 45.0627273,57.2727273 30,57.2727273 L30,57.2727273 Z M32.7109091,23.5227273 C32.7109091,22.4195455 32.8240909,21.8290909 34.5218182,21.8290909 L36.7895455,21.8290909 L36.7895455,17.7245455 L33.1595455,17.7245455 C28.8013636,17.7245455 27.2659091,19.7781818 27.2659091,23.2295455 L27.2659091,25.8954545 L24.5481818,25.8954545 L24.5481818,30 L27.2659091,30 L27.2659091,42.2754545 L32.7040909,42.2754545 L32.7040909,30 L36.3354545,30 L36.8168182,25.8954545 L32.7040909,25.8954545 L32.7109091,23.5227273 L32.7109091,23.5227273 Z" id="Imported-Layers"></path>
                </g>
            </g>
        </g>
    </g>
</svg>