<?xml version="1.0" encoding="UTF-8" standalone="no"?>
<svg width="24px" height="33px" viewBox="0 0 24 33" version="1.1" xmlns="http://www.w3.org/2000/svg" xmlns:xlink="http://www.w3.org/1999/xlink" xmlns:sketch="http://www.bohemiancoding.com/sketch/ns">
    <!-- Generator: Sketch 3.3 (11970) - http://www.bohemiancoding.com/sketch -->
    <title>Imported Layers</title>
    <desc>Created with Sketch.</desc>
    <defs></defs>
    <g id="Page-1" stroke="none" stroke-width="1" fill="none" fill-rule="evenodd" sketch:type="MSPage">
        <g id="Desktop-HD" sketch:type="MSArtboardGroup" transform="translate(-398.000000, -11949.000000)" fill="#535353">
            <g id="COntact" sketch:type="MSLayerGroup" transform="translate(0.000000, 11648.000000)">
                <g id="Group" transform="translate(398.000000, 296.000000)" sketch:type="MSShapeGroup">
                    <path d="M16.00425,10.01675 C16.00425,10.01675 15.77625,10.241 16.00425,11.0525 C16.233,11.8655 16.617,12.04175 17.74875,11.58575 C18.234,11.38925 18.60225,11.4905 18.54825,11.978 C18.43425,13.0145 17.61975,12.97025 18.234,14.639 C18.606,15.647 19.52025,16.03925 19.86375,16.82375 C19.98225,17.096 20.3205,17.3495 20.70375,17.5715 C20.89275,16.913 21,16.21925 21,15.5 C21,12.26 18.94125,9.5075 16.0635,8.459 C15.9195,8.684 15.7695,8.888 15.6045,8.98025 C15.20475,9.2045 15.2325,10.10075 16.00425,10.01675 L16.00425,10.01675 Z M18.59175,17.45375 C18.26325,17.6495 18.27675,18.08375 18.54825,18.32225 C18.8205,18.56 19.3635,18.86825 19.5345,18.32225 C19.70625,17.7755 18.92025,17.258 18.59175,17.45375 L18.59175,17.45375 Z M12.5745,16.3475 C11.34525,16.3475 10.5735,16.628 10.8885,18.308 C11.20275,19.98875 12.117,19.23275 12.0315,20.52125 C11.94525,21.80975 12.26025,22.0895 12.45975,22.39775 C12.573,22.57175 12.813,22.922 13.0425,22.9775 C13.0755,22.97975 13.10925,22.98125 13.14225,22.98275 C13.281,22.95275 13.4085,22.7855 13.48875,22.3415 C13.71825,21.08075 14.1465,20.381 14.6325,19.76525 C15.1185,19.14875 15.633,18.33575 14.661,17.5235 C13.689,16.71125 13.80375,16.3475 12.5745,16.3475 L12.5745,16.3475 Z M22.875,23.375 C22.67475,23.375 22.49475,23.456 22.35975,23.58425 L22.35525,23.57825 C20.16075,25.98275 17.0115,27.5 13.5,27.5 C6.873,27.5 1.5,22.12775 1.5,15.5 C1.5,12.03725 2.97525,8.927 5.3205,6.73625 L5.30775,6.72125 C5.49525,6.58475 5.625,6.37475 5.625,6.125 C5.625,5.71025 5.289,5.375 4.875,5.375 C4.6575,5.375 4.46625,5.47025 4.32975,5.618 L4.32675,5.615 C1.67175,8.08025 0,11.591 0,15.5 C0,22.70225 5.64525,28.571 12.75,28.96175 L12.75,36.5 L8.25,36.5 C7.836,36.5 7.5,36.83525 7.5,37.25 C7.5,37.66475 7.836,38 8.25,38 L18.75,38 C19.164,38 19.5,37.66475 19.5,37.25 C19.5,36.83525 19.164,36.5 18.75,36.5 L14.25,36.5 L14.25,28.96175 C17.853,28.76375 21.07725,27.15275 23.3835,24.677 L23.379,24.6725 C23.52825,24.536 23.625,24.34325 23.625,24.125 C23.625,23.711 23.289,23.375 22.875,23.375 L22.875,23.375 Z M13.5,26 C19.299,26 24,21.299 24,15.5 C24,9.70175 19.299,5 13.5,5 C7.701,5 3,9.70175 3,15.5 C3,21.299 7.701,26 13.5,26 L13.5,26 Z M13.5,6.5 C18.47025,6.5 22.5,10.52975 22.5,15.5 C22.5,20.471 18.47025,24.5 13.5,24.5 C8.52975,24.5 4.5,20.471 4.5,15.5 C4.5,10.52975 8.52975,6.5 13.5,6.5 L13.5,6.5 Z M6.972,14.58275 C6.972,14.58275 7.401,15.563 9.9735,16.7675 C9.9735,16.7675 10.4595,16.79525 9.888,16.235 C9.31575,15.67475 8.68725,14.975 9.402,14.6105 C10.116,14.24675 10.31625,14.2745 10.488,14.94725 C10.659,15.6185 11.23125,15.227 11.28825,14.58275 C11.34525,13.9385 12.40275,13.26575 13.1175,12.95825 C13.83225,12.64925 14.48925,12.53825 14.40375,12.00575 C14.31825,11.47325 14.118,11.081 13.0035,11.081 C11.88825,11.081 12.37425,12.53825 11.46,11.66975 C10.545,10.8005 11.6595,11.02475 12.117,10.829 C12.5745,10.63325 13.032,9.821 12.23175,9.7655 C11.43075,9.7085 11.6025,10.10075 10.974,9.8765 C10.34475,9.65225 10.059,10.66175 9.6585,10.52075 C9.465,10.45325 9.0345,10.15475 8.63325,9.8 C7.5195,10.75175 6.6915,12.02225 6.285,13.47275 C6.57675,14.1995 6.972,14.58275 6.972,14.58275 L6.972,14.58275 Z" id="Imported-Layers"></path>
                </g>
            </g>
        </g>
    </g>
</svg>