<?xml version="1.0" encoding="UTF-8" standalone="no"?>
<svg width="44px" height="41px" viewBox="0 0 44 41" version="1.1" xmlns="http://www.w3.org/2000/svg" xmlns:xlink="http://www.w3.org/1999/xlink" xmlns:sketch="http://www.bohemiancoding.com/sketch/ns">
    <!-- Generator: Sketch 3.3 (11970) - http://www.bohemiancoding.com/sketch -->
    <title>Imported Layers</title>
    <desc>Created with Sketch.</desc>
    <defs></defs>
    <g id="Page-1" stroke="none" stroke-width="1" fill="none" fill-rule="evenodd" sketch:type="MSPage">
        <g id="How-it-works" sketch:type="MSArtboardGroup" transform="translate(-648.000000, -620.000000)" fill="#FFFFFF">
            <g id="Group" sketch:type="MSLayerGroup" transform="translate(192.000000, 157.000000)">
                <g transform="translate(398.000000, 420.000000)" id="Imported-Layers" sketch:type="MSShapeGroup">
                    <path d="M84.037,73.24 C84.037,73.24 79.976,72.291 79.976,68.131 C79.976,64.477 81.645,63.19 82.289,62.301 C82.289,62.301 83.612,61.164 82.727,57.494 C84.203,55.484 84.481,51.93 82.875,48.166 C81.867,45.804 80.977,44.51 79.62,43.758 C78.623,43.205 77.493,43 76.394,43 C74.345,43 72.402,43.712 71.627,44.21 C69.359,45.208 67.834,46.127 66.404,49.63 C65.244,52.473 66.641,55.765 67.367,57.369 C66.481,61.039 67.711,62.301 67.711,62.301 C68.356,63.19 70.024,64.477 70.024,68.131 C70.024,72.291 65.963,73.24 65.963,73.24 C63.383,74.15 58,76.01 58,82.01 C58,82.01 58,83.01 59,83.01 L91,83.01 C92,83.01 92,82.01 92,82.01 C92,76.01 86.617,74.15 84.037,73.24 L84.037,73.24 Z M60.069,81.01 C60.563,77.592 63.606,76.198 66.538,75.159 C68.504,74.651 72.024,72.584 72.024,68.131 C72.024,64.32 70.452,62.463 69.607,61.465 C69.502,61.341 69.405,61.231 69.33,61.126 C69.307,61.095 69.282,61.064 69.257,61.032 C69.186,60.897 68.79,59.998 69.312,57.838 C69.416,57.406 69.373,56.949 69.19,56.544 C68.693,55.449 67.376,52.541 68.256,50.386 C69.447,47.466 70.508,46.888 72.433,46.041 C72.528,45.999 72.62,45.95 72.708,45.893 C73.192,45.581 74.771,45.001 76.394,45.001 C77.285,45.001 78.044,45.171 78.65,45.507 C79.37,45.906 80.052,46.645 81.035,48.951 C82.428,52.214 82.078,54.998 81.114,56.311 C80.766,56.785 80.644,57.391 80.782,57.963 C81.268,59.974 80.91,60.786 80.835,60.928 C80.776,60.991 80.721,61.057 80.67,61.126 C80.595,61.231 80.498,61.341 80.393,61.465 C79.548,62.463 77.976,64.32 77.976,68.131 C77.976,72.585 81.497,74.651 83.463,75.159 C86.367,76.185 89.435,77.574 89.931,81.01 L60.069,81.01 L60.069,81.01 Z M94.739,72.218 C94.739,72.218 91.036,71.363 91.036,67.618 C91.036,64.329 92.809,63.171 93.396,62.372 C93.396,62.372 94.603,61.348 93.795,58.045 C95.141,56.236 95.456,53.037 93.992,49.65 C93.074,47.524 91.949,46.36 90.713,45.683 C89.804,45.185 88.773,45.002 87.771,45.002 C86.275,45.002 84.853,45.41 83.978,45.804 C84.233,46.299 84.477,46.824 84.715,47.382 C84.749,47.462 84.773,47.543 84.805,47.623 C85.371,47.371 86.507,47.001 87.771,47.001 C88.558,47.001 89.225,47.148 89.753,47.438 C90.374,47.778 91.3,48.459 92.156,50.444 C93.375,53.263 93.051,55.694 92.19,56.852 C91.835,57.33 91.711,57.942 91.852,58.521 C92.257,60.176 91.996,60.871 91.931,61.01 C91.878,61.067 91.829,61.126 91.783,61.189 C91.743,61.242 91.605,61.392 91.503,61.5 C90.641,62.427 89.036,64.151 89.036,67.618 C89.036,71.748 92.327,73.664 94.171,74.137 C96.807,75.057 99.375,76.204 99.902,79.009 L93.576,79.009 C93.756,79.626 93.883,80.29 93.944,81.009 L101.088,81.009 C102,81.009 102,80.11 102,80.11 C102,74.709 97.092,73.035 94.739,72.218 L94.739,72.218 Z"></path>
                </g>
            </g>
        </g>
    </g>
</svg>