<?xml version="1.0" encoding="UTF-8" standalone="no"?>
<svg width="60px" height="60px" viewBox="0 0 60 60" version="1.1" xmlns="http://www.w3.org/2000/svg" xmlns:xlink="http://www.w3.org/1999/xlink" xmlns:sketch="http://www.bohemiancoding.com/sketch/ns">
    <!-- Generator: Sketch 3.3 (11970) - http://www.bohemiancoding.com/sketch -->
    <title>Imported Layers</title>
    <desc>Created with Sketch.</desc>
    <defs></defs>
    <g id="Page-1" stroke="none" stroke-width="1" fill="none" fill-rule="evenodd" sketch:type="MSPage">
        <g id="Desktop-HD" sketch:type="MSArtboardGroup" transform="translate(-856.000000, -7933.000000)" fill="#FFFFFF">
            <g id="share-the-love" sketch:type="MSLayerGroup" transform="translate(0.000000, 7672.000000)">
                <g id="Group" transform="translate(525.000000, 261.000000)" sketch:type="MSShapeGroup">
                    <path d="M361,0 C344.431818,0 331,13.4318182 331,30 C331,46.5681818 344.431818,60 361,60 C377.568182,60 391,46.5681818 391,30 C391,13.4318182 377.568182,0 361,0 L361,0 Z M361,57.2727273 C345.937273,57.2727273 333.727273,45.0627273 333.727273,30 C333.727273,14.9386364 345.937273,2.72727273 361,2.72727273 C376.062727,2.72727273 388.272727,14.9386364 388.272727,30 C388.272727,45.0627273 376.062727,57.2727273 361,57.2727273 L361,57.2727273 Z M369.181818,16.3636364 L352.818182,16.3636364 C349.805909,16.3636364 347.363636,18.8059091 347.363636,21.8181818 L347.363636,38.1818182 C347.363636,41.1940909 349.805909,43.6363636 352.818182,43.6363636 L369.181818,43.6363636 C372.194091,43.6363636 374.636364,41.1940909 374.636364,38.1818182 L374.636364,21.8181818 C374.636364,18.8059091 372.194091,16.3636364 369.181818,16.3636364 L369.181818,16.3636364 Z M366.454545,20.4545455 L370.545455,20.4545455 L370.545455,24.5454545 L366.454545,24.5454545 L366.454545,20.4545455 Z M361,24.5454545 C364.012273,24.5454545 366.454545,26.9877273 366.454545,30 C366.454545,33.0122727 364.012273,35.4545455 361,35.4545455 C357.987727,35.4545455 355.545455,33.0122727 355.545455,30 C355.545455,26.9877273 357.987727,24.5454545 361,24.5454545 L361,24.5454545 Z M371.909091,38.1818182 C371.909091,39.6872727 370.687273,40.9090909 369.181818,40.9090909 L352.818182,40.9090909 C351.311364,40.9090909 350.090909,39.6872727 350.090909,38.1818182 L350.090909,28.6363636 L352.955909,28.6363636 C352.880909,29.0822727 352.818182,29.5336364 352.818182,30 C352.818182,34.5204545 356.480909,38.1818182 361,38.1818182 C365.517727,38.1818182 369.181818,34.5204545 369.181818,30 C369.181818,29.5336364 369.120455,29.0822727 369.044091,28.6363636 L371.909091,28.6363636 L371.909091,38.1818182 L371.909091,38.1818182 Z" id="Imported-Layers"></path>
                </g>
            </g>
        </g>
    </g>
</svg>