<?xml version="1.0" encoding="UTF-8" standalone="no"?>
<svg width="40px" height="44px" viewBox="0 0 40 44" version="1.1" xmlns="http://www.w3.org/2000/svg" xmlns:xlink="http://www.w3.org/1999/xlink" xmlns:sketch="http://www.bohemiancoding.com/sketch/ns">
    <!-- Generator: Sketch 3.2.2 (9983) - http://www.bohemiancoding.com/sketch -->
    <title>Imported Layers</title>
    <desc>Created with Sketch.</desc>
    <defs></defs>
    <g id="Page-1" stroke="none" stroke-width="1" fill="none" fill-rule="evenodd" sketch:type="MSPage">
        <g id="Desktop-HD" sketch:type="MSArtboardGroup" transform="translate(-694.000000, -1428.000000)" fill="#000000">
            <g id="Features" sketch:type="MSLayerGroup" transform="translate(-30.000000, 904.000000)">
                <g id="Musicians" transform="translate(724.000000, 519.000000)" sketch:type="MSShapeGroup">
                    <path d="M39,5 C38.947,5 38.901,5.023 38.851,5.03 L38.848,5.012 L12.848,9.012 L12.851,9.03 C12.373,9.105 12,9.501 12,10 L12,40.022 C11.163,39.39 10.131,39.001 9,39.001 L5,39.001 C2.239,39.001 0,41.239 0,44.001 C0,46.762 2.239,49 5,49 L9,49 C11.762,49 14,46.762 14,44.001 L14,20.858 L38,17.166 L38,34.023 C37.163,33.391 36.131,33 35,33 L31,33 C28.239,33 26,35.239 26,38 C26,40.762 28.239,43 31,43 L35,43 C37.762,43 40,40.762 40,38 L40,6 C40,5.448 39.552,5 39,5 L39,5 Z M9,47 L5,47 C3.343,47 2,45.657 2,44.001 C2,42.344 3.343,41 5,41 L9,41 C10.657,41 12,42.344 12,44.001 C12,45.657 10.657,47 9,47 L9,47 Z M35,41 L31,41 C29.343,41 28,39.657 28,38 C28,36.344 29.343,35 31,35 L35,35 C36.657,35 38,36.344 38,38 C38,39.657 36.657,41 35,41 L35,41 Z M38,15.143 L14,18.835 L14,10.859 L38,7.166 L38,15.143 L38,15.143 Z" id="Imported-Layers"></path>
                </g>
            </g>
        </g>
    </g>
</svg>