<?xml version="1.0" encoding="UTF-8" standalone="no"?>
<svg width="18px" height="33px" viewBox="0 0 18 33" version="1.1" xmlns="http://www.w3.org/2000/svg" xmlns:xlink="http://www.w3.org/1999/xlink" xmlns:sketch="http://www.bohemiancoding.com/sketch/ns">
    <!-- Generator: Sketch 3.3 (11970) - http://www.bohemiancoding.com/sketch -->
    <title>Imported Layers</title>
    <desc>Created with Sketch.</desc>
    <defs></defs>
    <g id="Page-1" stroke="none" stroke-width="1" fill="none" fill-rule="evenodd" sketch:type="MSPage">
        <g id="Desktop-HD" sketch:type="MSArtboardGroup" transform="translate(-402.000000, -12018.000000)" fill="#535353">
            <g id="COntact" sketch:type="MSLayerGroup" transform="translate(0.000000, 11648.000000)">
                <g id="Group" transform="translate(398.000000, 296.000000)" sketch:type="MSShapeGroup">
                    <path d="M13,104.75 C13.41475,104.75 13.75,104.41475 13.75,104 C13.75,103.586 13.41475,103.25 13,103.25 C12.58525,103.25 12.25,103.586 12.25,104 C12.25,104.41475 12.58525,104.75 13,104.75 L13,104.75 Z M19,74 L7,74 C5.34325,74 4,75.34325 4,77 L4,104 C4,105.6575 5.34325,107 7,107 L19,107 C20.65675,107 22,105.6575 22,104 L22,77 C22,75.34325 20.65675,74 19,74 L19,74 Z M20.5,104 C20.5,104.82875 19.828,105.5 19,105.5 L7,105.5 C6.17125,105.5 5.5,104.82875 5.5,104 L5.5,102.5 L20.5,102.5 L20.5,104 L20.5,104 Z M5.5,80 L20.5,80 L20.5,101 L5.5,101 L5.5,80 Z M20.5,78.5 L5.5,78.5 L5.5,77 C5.5,76.172 6.17125,75.5 7,75.5 L19,75.5 C19.828,75.5 20.5,76.172 20.5,77 L20.5,78.5 L20.5,78.5 Z M13.75,76.25 L12.25,76.25 C11.83525,76.25 11.5,76.58525 11.5,77 C11.5,77.41475 11.83525,77.75 12.25,77.75 L13.75,77.75 C14.16475,77.75 14.5,77.41475 14.5,77 C14.5,76.58525 14.16475,76.25 13.75,76.25 L13.75,76.25 Z" id="Imported-Layers"></path>
                </g>
            </g>
        </g>
    </g>
</svg>