<?xml version="1.0" encoding="UTF-8" standalone="no"?>
<svg width="44px" height="44px" viewBox="0 0 44 44" version="1.1" xmlns="http://www.w3.org/2000/svg" xmlns:xlink="http://www.w3.org/1999/xlink" xmlns:sketch="http://www.bohemiancoding.com/sketch/ns">
    <!-- Generator: Sketch 3.3 (11970) - http://www.bohemiancoding.com/sketch -->
    <title>Imported Layers</title>
    <desc>Created with Sketch.</desc>
    <defs></defs>
    <g id="Page-1" stroke="none" stroke-width="1" fill="none" fill-rule="evenodd" sketch:type="MSPage">
        <g id="Features" sketch:type="MSArtboardGroup" transform="translate(-984.000000, -310.000000)" fill="#49C2BE">
            <path d="M1009.378,327.965687 L1005.969,318.937687 L1002.56,327.965687 L993.469,327.965687 L1000.856,333.710687 L997.446,343.937687 L1005.969,337.686687 L1014.491,343.937687 L1011.082,333.710687 L1018.469,327.965687 L1009.378,327.965687 L1009.378,327.965687 Z M1009.185,334.342687 L1010.606,338.607687 L1005.969,335.206687 L1001.331,338.607687 L1003.2,332.999687 L1002.083,332.131687 L999.299,329.965687 L1003.942,329.965687 L1005.969,324.599687 L1007.995,329.965687 L1012.639,329.965687 L1009.854,332.131687 L1008.737,332.999687 L1009.185,334.342687 L1009.185,334.342687 Z M1023.962,310.725687 C1023.88,310.439687 1023.675,310.204687 1023.402,310.084687 C1023.132,309.964687 1022.819,309.972687 1022.553,310.105687 C1022.475,310.143687 1014.664,313.999687 1006,313.999687 C997.355,313.999687 989.525,310.143687 989.447,310.105687 C989.181,309.972687 988.87,309.965687 988.597,310.084687 C988.325,310.204687 988.12,310.439687 988.039,310.725687 C987.998,310.866687 984,322.998687 984,334.999687 C984,347.681687 1004.922,353.811687 1005.813,353.981687 C1005.875,353.993687 1005.937,353.999687 1006,353.999687 C1006.063,353.999687 1006.126,353.993687 1006.187,353.981687 C1007.078,353.811687 1028,347.681687 1028,334.999687 C1028,322.998687 1024.002,310.866687 1023.962,310.725687 L1023.962,310.725687 Z M1006,351.978687 C1003.954,351.548687 986,345.468687 986,334.999687 C986,325.225687 988.73,315.950687 989.658,312.401687 C992.192,313.504687 998.732,315.999687 1006,315.999687 C1013.269,315.999687 1019.808,313.504687 1022.343,312.401687 C1023.271,315.948687 1026,325.218687 1026,334.999687 C1026,345.456687 1008.044,351.548687 1006,351.978687 L1006,351.978687 Z" id="Imported-Layers" sketch:type="MSShapeGroup"></path>
        </g>
    </g>
</svg>