<?xml version="1.0" encoding="UTF-8" standalone="no"?>
<svg width="22px" height="11px" viewBox="0 0 22 11" version="1.1" xmlns="http://www.w3.org/2000/svg" xmlns:xlink="http://www.w3.org/1999/xlink" xmlns:sketch="http://www.bohemiancoding.com/sketch/ns">
    <!-- Generator: Sketch 3.3.2 (12043) - http://www.bohemiancoding.com/sketch -->
    <title>Imported Layers</title>
    <desc>Created with Sketch.</desc>
    <defs></defs>
    <g id="Demo-1" stroke="none" stroke-width="1" fill="none" fill-rule="evenodd" sketch:type="MSPage">
        <g sketch:type="MSArtboardGroup" transform="translate(-1311.000000, -5424.000000)" id="screens" fill="#000000">
            <g sketch:type="MSLayerGroup" transform="translate(-4.000000, 4930.000000)">
                <g id="Rectangle-22-+-Imported-Layers" transform="translate(1296.000000, 479.000000)" sketch:type="MSShapeGroup">
                    <path d="M40.8535,20.1465 L35.8535,15.1465 C35.763,15.056 35.638,15 35.5,15 C35.2235,15 35,15.2235 35,15.5 C35,15.638 35.056,15.763 35.1465,15.8535 L39.293,20 L19.5,20 C19.2235,20 19,20.2235 19,20.5 C19,20.7765 19.2235,21 19.5,21 L39.293,21 L35.1465,25.1465 C35.056,25.2375 35,25.362 35,25.5 C35,25.7765 35.2235,26 35.5,26 C35.638,26 35.763,25.9445 35.8535,25.8535 L40.8535,20.8535 C40.9445,20.763 41,20.638 41,20.5 C41,20.362 40.9445,20.2375 40.8535,20.1465" id="Imported-Layers"></path>
                </g>
            </g>
        </g>
    </g>
</svg>