<?xml version="1.0" encoding="UTF-8" standalone="no"?>
<svg width="44px" height="40px" viewBox="0 0 44 40" version="1.1" xmlns="http://www.w3.org/2000/svg" xmlns:xlink="http://www.w3.org/1999/xlink" xmlns:sketch="http://www.bohemiancoding.com/sketch/ns">
    <!-- Generator: Sketch 3.2.2 (9983) - http://www.bohemiancoding.com/sketch -->
    <title>Imported Layers</title>
    <desc>Created with Sketch.</desc>
    <defs></defs>
    <g id="Page-1" stroke="none" stroke-width="1" fill="none" fill-rule="evenodd" sketch:type="MSPage">
        <g id="Desktop-HD" sketch:type="MSArtboardGroup" transform="translate(-696.000000, -1311.000000)" fill="#000000">
            <g id="Features" sketch:type="MSLayerGroup" transform="translate(-30.000000, 904.000000)">
                <g id="Artists" transform="translate(696.000000, 382.000000)" sketch:type="MSShapeGroup">
                    <path d="M43,55 C42.448,55 42,55.448 42,56 L42,60 C42,60.553 42.448,61 43,61 C43.552,61 44,60.553 44,60 L44,56 C44,55.448 43.552,55 43,55 L43,55 Z M49,57 C48.448,57 48,57.447 48,58 L48,64 C48,64.553 48.448,65 49,65 C49.552,65 50,64.553 50,64 L50,58 C50,57.447 49.552,57 49,57 L49,57 Z M37,53 C36.448,53 36,53.447 36,54 L36,60 C36,60.553 36.448,61 37,61 C37.552,61 38,60.553 38,60 L38,54 C38,53.447 37.552,53 37,53 L37,53 Z M55,55 C54.448,55 54,55.448 54,56 L54,62 C54,62.553 54.448,63 55,63 C55.552,63 56,62.553 56,62 L56,56 C56,55.448 55.552,55 55,55 L55,55 Z M67,53 C66.448,53 66,53.447 66,54 L66,58 C66,58.553 66.448,59 67,59 C67.552,59 68,58.553 68,58 L68,54 C68,53.447 67.552,53 67,53 L67,53 Z M61,53 C60.448,53 60,53.447 60,54 L60,60 C60,60.553 60.448,61 61,61 C61.552,61 62,60.553 62,60 L62,54 C62,53.447 61.552,53 61,53 L61,53 Z M67.986,35.259 C67.99,35.173 68,35.088 68,35 C68,31.687 65.313,29 62,29 C60.488,29 59.11,29.563 58.055,30.486 C55.92,27.19 52.222,25 48,25 C41.977,25 37.005,29.441 36.146,35.225 C32.623,36.062 30,39.221 30,43 C30,47.418 33.581,51 38,51 L66,51 C70.418,51 74,47.418 74,43 C74,39.269 71.441,36.144 67.986,35.259 L67.986,35.259 Z M66,49 L38,49 C34.691,49 32,46.309 32,43 C32,40.213 33.895,37.815 36.608,37.17 C37.403,36.981 38.003,36.327 38.124,35.519 C38.846,30.662 43.092,27 48,27 C51.391,27 53.522,27.71 55.376,30.573 C55.691,31.06 57.203,32.387 57.777,32.467 C57.87,32.481 58.055,32.486 58.055,32.486 C58.536,32.486 59.004,32.312 59.371,31.992 C60.102,31.352 61.036,31 62,31 C64.206,31 66,32.795 65.997,35.021 L65.988,35.168 C65.945,36.115 66.572,36.961 67.49,37.196 C70.146,37.877 72,40.263 72,43 C72,46.309 69.309,49 66,49 L66,49 Z" id="Imported-Layers"></path>
                </g>
            </g>
        </g>
    </g>
</svg>