<?xml version="1.0" encoding="UTF-8" standalone="no"?>
<svg width="64px" height="100px" viewBox="0 0 64 100" version="1.1" xmlns="http://www.w3.org/2000/svg" xmlns:xlink="http://www.w3.org/1999/xlink" xmlns:sketch="http://www.bohemiancoding.com/sketch/ns">
    <!-- Generator: Sketch 3.2.2 (9983) - http://www.bohemiancoding.com/sketch -->
    <title>Imported Layers</title>
    <desc>Created with Sketch.</desc>
    <defs></defs>
    <g id="Page-1" stroke="none" stroke-width="1" fill="none" fill-rule="evenodd" sketch:type="MSPage">
        <g id="Desktop-HD" sketch:type="MSArtboardGroup" transform="translate(-934.000000, -2933.000000)" fill="#FFFFFF">
            <g id="stats" sketch:type="MSLayerGroup" transform="translate(-31.000000, 2654.000000)">
                <g id="Imported-Layers-+-Download-+-683,725-3" transform="translate(958.000000, 279.000000)" sketch:type="MSShapeGroup">
                    <path d="M68.7142857,0 L9.28571429,0 C8.024,0 7,1.01590909 7,2.27272727 L7,27.2727273 C7,44.0772727 20.1131429,57.8068182 36.7142857,58.975 L36.7142857,95.4545455 L18.4285714,95.4545455 C17.1668571,95.4545455 16.1428571,96.4704545 16.1428571,97.7272727 C16.1428571,98.9840909 17.1668571,100 18.4285714,100 L59.5714286,100 C60.8331429,100 61.8571429,98.9840909 61.8571429,97.7272727 C61.8571429,96.4704545 60.8331429,95.4545455 59.5714286,95.4545455 L41.2857143,95.4545455 L41.2857143,58.975 C57.8868571,57.8068182 71,44.0772727 71,27.2727273 L71,2.27272727 C71,1.01590909 69.976,0 68.7142857,0 L68.7142857,0 Z M66.4285714,27.2727273 C66.4285714,42.3340909 54.1474286,54.5454545 39,54.5454545 C23.8525714,54.5454545 11.5714286,42.3340909 11.5714286,27.2727273 L11.5714286,16.8227273 C17.9074286,16.2022727 21.1234286,17.7818182 26.4377143,20.4295455 C29.7748571,22.0931818 33.928,24.1636364 39.9417143,26.1568182 C42.168,26.8954545 44.3805714,27.2090909 46.536,27.2090909 C54.8651429,27.2090909 62.3325714,22.5090909 66.4285714,19.3340909 L66.4285714,27.2727273 L66.4285714,27.2727273 Z M66.4285714,13.35 C65.8502857,13.9136364 53.4022857,25.8340909 41.3885714,21.8431818 C35.6834286,19.9522727 31.8594286,18.0477273 28.4857143,16.3659091 C23.0754286,13.6727273 18.9771429,11.6340909 11.5714286,12.2545455 L11.5714286,4.54545455 L66.4285714,4.54545455 L66.4285714,13.35 L66.4285714,13.35 Z" id="Imported-Layers"></path>
                </g>
            </g>
        </g>
    </g>
</svg>