<?xml version="1.0" encoding="UTF-8" standalone="no"?>
<svg width="36px" height="44px" viewBox="0 0 36 44" version="1.1" xmlns="http://www.w3.org/2000/svg" xmlns:xlink="http://www.w3.org/1999/xlink" xmlns:sketch="http://www.bohemiancoding.com/sketch/ns">
    <!-- Generator: Sketch 3.3 (11970) - http://www.bohemiancoding.com/sketch -->
    <title>Imported Layers</title>
    <desc>Created with Sketch.</desc>
    <defs></defs>
    <g id="Page-1" stroke="none" stroke-width="1" fill="none" fill-rule="evenodd" sketch:type="MSPage">
        <g id="Features-with-phone" sketch:type="MSArtboardGroup" transform="translate(-99.000000, -629.000000)" fill="#000000">
            <g id="Musicians-Copy-2" sketch:type="MSLayerGroup" transform="translate(99.000000, 625.000000)">
                <path d="M9,15 L14,15 C14.553,15 15,14.553 15,14 C15,13.448 14.553,13 14,13 L9,13 C8.447,13 8,13.448 8,14 C8,14.553 8.447,15 9,15 L9,15 Z M21,37 L9,37 C8.447,37 8,37.448 8,38 C8,38.553 8.447,39 9,39 L21,39 C21.553,39 22,38.553 22,38 C22,37.448 21.553,37 21,37 L21,37 Z M27,29 L9,29 C8.447,29 8,29.448 8,30 C8,30.553 8.447,31 9,31 L27,31 C27.553,31 28,30.553 28,30 C28,29.448 27.553,29 27,29 L27,29 Z M8,22 C8,22.553 8.447,23 9,23 L27,23 C27.553,23 28,22.553 28,22 C28,21.448 27.553,21 27,21 L9,21 C8.447,21 8,21.448 8,22 L8,22 Z M26,4 L4,4 C1.791,4 0,5.791 0,8 L0,44 C0,46.209 1.791,48 4,48 L32,48 C34.209,48 36,46.209 36,44 L36,15 L26,4 L26,4 Z M34,44 C34,45.105 33.105,46 32,46 L4,46 C2.895,46 2,45.105 2,44 L2,8 C2,6.896 2.895,6 4,6 L22,6 L22,16 C22,17.104 22.896,18 24,18 L34,18 L34,44 L34,44 Z M24,16 L24,6 L25,6 L34,16 L24,16 L24,16 Z" id="Imported-Layers" sketch:type="MSShapeGroup"></path>
            </g>
        </g>
    </g>
</svg>