<?xml version="1.0" encoding="UTF-8" standalone="no"?>
<svg width="46px" height="57px" viewBox="0 0 46 57" version="1.1" xmlns="http://www.w3.org/2000/svg" xmlns:xlink="http://www.w3.org/1999/xlink" xmlns:sketch="http://www.bohemiancoding.com/sketch/ns">
    <!-- Generator: Sketch 3.2.2 (9983) - http://www.bohemiancoding.com/sketch -->
    <title>Imported Layers</title>
    <desc>Created with Sketch.</desc>
    <defs></defs>
    <g id="Page-1" stroke="none" stroke-width="1" fill="none" fill-rule="evenodd" sketch:type="MSPage">
        <g id="Desktop-HD" sketch:type="MSArtboardGroup" transform="translate(-365.000000, -6537.000000)" fill="#31B876">
            <g id="How-it-works" sketch:type="MSLayerGroup" transform="translate(0.000000, 6114.000000)">
                <g id="DOWNLOAD-+-Download-the-app-fro-+-Imported-Layers" transform="translate(302.000000, 423.000000)" sketch:type="MSShapeGroup">
                    <path d="M77.0555556,41.4545455 L71.9444444,41.4545455 C71.2391111,41.4545455 70.6666667,42.0349091 70.6666667,42.7512955 C70.6666667,43.4663864 71.2391111,44.0454545 71.9444444,44.0454545 L77.0555556,44.0454545 C77.7608889,44.0454545 78.3333333,43.4663864 78.3333333,42.7512955 C78.3333333,42.0349091 77.7608889,41.4545455 77.0555556,41.4545455 L77.0555556,41.4545455 Z M74.5,46.6363636 L71.9444444,46.6363636 C71.2391111,46.6363636 70.6666667,47.2167273 70.6666667,47.9318182 C70.6666667,48.6482045 71.2391111,49.2272727 71.9444444,49.2272727 L74.5,49.2272727 C75.2053333,49.2272727 75.7777778,48.6482045 75.7777778,47.9318182 C75.7777778,47.2167273 75.2053333,46.6363636 74.5,46.6363636 L74.5,46.6363636 Z M93.6666667,10.3636364 L68.1111111,10.3636364 C65.2885,10.3636364 63,12.6837955 63,15.5454545 L63,51.8181818 C63,54.6811364 65.2885,57 68.1111111,57 L93.6666667,57 C96.4892778,57 98.7777778,54.6811364 98.7777778,51.8181818 L98.7777778,15.5454545 C98.7777778,12.6837955 96.4892778,10.3636364 93.6666667,10.3636364 L93.6666667,10.3636364 Z M96.2222222,51.8181818 C96.2222222,53.2496591 95.0773333,54.4103864 93.6666667,54.4103864 L68.1111111,54.4103864 C66.6991667,54.4103864 65.5555556,53.2496591 65.5555556,51.8181818 L65.5555556,19.3113409 C68.6592778,21.7545682 72.1603889,22.8673636 77.2536111,23.1964091 C77.7468333,24.7652045 79.1779444,25.9103864 80.8888889,25.9103864 C82.5998333,25.9103864 84.0322222,24.7652045 84.5254444,23.1964091 C89.6173889,22.8673636 93.1185,21.7545682 96.2222222,19.3113409 L96.2222222,51.8181818 L96.2222222,51.8181818 Z M79.6111111,22.0240227 C79.6111111,21.3063409 80.1835556,20.7272727 80.8888889,20.7272727 C81.5942222,20.7272727 82.1666667,21.3063409 82.1666667,22.0240227 C82.1666667,22.7391136 81.5942222,23.3181818 80.8888889,23.3181818 C80.1835556,23.3181818 79.6111111,22.7391136 79.6111111,22.0240227 L79.6111111,22.0240227 Z M96.2222222,16.0351364 C93.7267222,18.7581818 90.0147778,20.1857727 84.4462222,20.5899545 C83.8827222,19.1545909 82.5065556,18.1363636 80.8888889,18.1363636 C79.2712222,18.1363636 77.8950556,19.1545909 77.3315556,20.5899545 C71.7642778,20.1857727 68.0510556,18.7581818 65.5555556,16.0351364 L65.5555556,15.5454545 C65.5555556,14.1139773 66.6991667,12.9545455 68.1111111,12.9545455 L93.6666667,12.9545455 C95.0773333,12.9545455 96.2222222,14.1139773 96.2222222,15.5454545 L96.2222222,16.0351364 L96.2222222,16.0351364 Z M103.888889,0 L78.3333333,0 C75.5107222,0 73.2222222,2.32015909 73.2222222,5.18311364 L73.2222222,6.47727273 C73.2222222,7.19365909 73.7946667,7.77272727 74.5,7.77272727 C75.2053333,7.77272727 75.7777778,7.19365909 75.7777778,6.47727273 L75.7777778,5.18311364 C75.7777778,3.75163636 76.9226667,2.59090909 78.3333333,2.59090909 L103.888889,2.59090909 C105.299556,2.59090909 106.444444,3.75163636 106.444444,5.18311364 L106.444444,41.4545455 C106.444444,42.8873182 105.299556,44.0454545 103.888889,44.0454545 L102.611111,44.0454545 C101.905778,44.0454545 101.333333,44.6258182 101.333333,45.3409091 C101.333333,46.0572955 101.905778,46.6363636 102.611111,46.6363636 L103.888889,46.6363636 C106.7115,46.6363636 109,44.3162045 109,41.4545455 L109,5.18311364 C109,2.32015909 106.7115,0 103.888889,0 L103.888889,0 Z" id="Imported-Layers"></path>
                </g>
            </g>
        </g>
    </g>
</svg>