<?xml version="1.0" encoding="UTF-8" standalone="no"?>
<svg width="26px" height="19px" viewBox="0 0 26 19" version="1.1" xmlns="http://www.w3.org/2000/svg" xmlns:xlink="http://www.w3.org/1999/xlink" xmlns:sketch="http://www.bohemiancoding.com/sketch/ns">
    <!-- Generator: Sketch 3.3 (11970) - http://www.bohemiancoding.com/sketch -->
    <title>Imported Layers</title>
    <desc>Created with Sketch.</desc>
    <defs></defs>
    <g id="Page-1" stroke="none" stroke-width="1" fill="none" fill-rule="evenodd" sketch:type="MSPage">
        <g id="Desktop-HD" sketch:type="MSArtboardGroup" transform="translate(-398.000000, -12090.000000)" fill="#535353">
            <g id="COntact" sketch:type="MSLayerGroup" transform="translate(0.000000, 11648.000000)">
                <g id="Group" transform="translate(398.000000, 296.000000)" sketch:type="MSShapeGroup">
                    <path d="M23.6363636,146 L2.36363636,146 C1.05831818,146 0,147.063406 0,148.375 L0,162.625 C0,163.936594 1.05831818,165 2.36363636,165 L23.6363636,165 C24.9416818,165 26,163.936594 26,162.625 L26,148.375 C26,147.063406 24.9416818,146 23.6363636,146 L23.6363636,146 Z M2.36363636,147.1875 L23.6363636,147.1875 C23.7752273,147.1875 23.9064091,147.216 24.0305,147.260531 L13.8012727,157.538938 C13.5867727,157.753875 13.3025455,157.872625 13,157.872625 C12.6974545,157.872625 12.4132273,157.753875 12.1987273,157.538938 L1.97009091,147.260531 C2.09359091,147.216 2.22536364,147.1875 2.36363636,147.1875 L2.36363636,147.1875 Z M1.18181818,162.625 L1.18181818,148.375 C1.18181818,148.304344 1.19127273,148.236063 1.2025,148.168375 L8.49904545,155.5 L1.2025,162.831625 C1.19127273,162.763937 1.18181818,162.695656 1.18181818,162.625 L1.18181818,162.625 Z M23.6363636,163.8125 L2.36363636,163.8125 C2.22536364,163.8125 2.09359091,163.784 1.97009091,163.740062 L9.33459091,156.339562 L11.3637727,158.3785 C11.8158182,158.832719 12.4079091,159.060125 13,159.060125 C13.5926818,159.060125 14.1847727,158.832719 14.6362273,158.3785 L16.6654091,156.339562 L24.0310909,163.740062 C23.9064091,163.784 23.7752273,163.8125 23.6363636,163.8125 L23.6363636,163.8125 Z M24.8181818,162.625 C24.8181818,162.695656 24.8087273,162.763937 24.7975,162.831625 L17.5009545,155.5 L24.7975,148.168375 C24.8087273,148.236063 24.8181818,148.304344 24.8181818,148.375 L24.8181818,162.625 L24.8181818,162.625 Z" id="Imported-Layers"></path>
                </g>
            </g>
        </g>
    </g>
</svg>