<?xml version="1.0" encoding="UTF-8" standalone="no"?>
<svg width="32px" height="33px" viewBox="0 0 32 33" version="1.1" xmlns="http://www.w3.org/2000/svg" xmlns:xlink="http://www.w3.org/1999/xlink" xmlns:sketch="http://www.bohemiancoding.com/sketch/ns">
    <!-- Generator: Sketch 3.3 (11970) - http://www.bohemiancoding.com/sketch -->
    <title>Imported Layers</title>
    <desc>Created with Sketch.</desc>
    <defs></defs>
    <g id="Page-1" stroke="none" stroke-width="1" fill="none" fill-rule="evenodd" sketch:type="MSPage">
        <g id="Desktop-HD" sketch:type="MSArtboardGroup" transform="translate(-837.000000, -12368.000000)" fill="#FFFFFF">
            <g id="Footer" sketch:type="MSLayerGroup" transform="translate(0.000000, 12323.000000)">
                <g id="Group-3" transform="translate(837.000000, 45.000000)" sketch:type="MSShapeGroup">
                    <path d="M16.0231135,0.512820513 C7.37528058,0.512820513 0.364485981,7.67645688 0.364485981,16.5128205 C0.364485981,25.3491841 7.37528058,32.5128205 16.0231135,32.5128205 C24.6709464,32.5128205 31.681741,25.3491841 31.681741,16.5128205 C31.681741,7.67645688 24.6709464,0.512820513 16.0231135,0.512820513 L16.0231135,0.512820513 Z M16.0231135,31.0582751 C8.16105898,31.0582751 1.78799758,24.5462751 1.78799758,16.5128205 C1.78799758,8.48009324 8.16105898,1.96736597 16.0231135,1.96736597 C23.885168,1.96736597 30.2582294,8.48009324 30.2582294,16.5128205 C30.2582294,24.5462751 23.885168,31.0582751 16.0231135,31.0582751 L16.0231135,31.0582751 Z M17.438084,13.0582751 C17.438084,12.4699114 17.4971598,12.1550023 18.3832957,12.1550023 L19.5669456,12.1550023 L19.5669456,9.96591142 L17.6722517,9.96591142 C15.3974802,9.96591142 14.5960431,11.0611841 14.5960431,12.9019114 L14.5960431,14.3237296 L13.1775138,14.3237296 L13.1775138,16.5128205 L14.5960431,16.5128205 L14.5960431,23.0597296 L17.4345253,23.0597296 L17.4345253,16.5128205 L19.3299309,16.5128205 L19.5811807,14.3237296 L17.4345253,14.3237296 L17.438084,13.0582751 L17.438084,13.0582751 Z" id="Imported-Layers"></path>
                </g>
            </g>
        </g>
    </g>
</svg>