<?xml version="1.0" encoding="UTF-8" standalone="no"?>
<svg width="44px" height="36px" viewBox="0 0 44 36" version="1.1" xmlns="http://www.w3.org/2000/svg" xmlns:xlink="http://www.w3.org/1999/xlink" xmlns:sketch="http://www.bohemiancoding.com/sketch/ns">
    <!-- Generator: Sketch 3.3 (11970) - http://www.bohemiancoding.com/sketch -->
    <title>Imported Layers</title>
    <desc>Created with Sketch.</desc>
    <defs></defs>
    <g id="Page-1" stroke="none" stroke-width="1" fill="none" fill-rule="evenodd" sketch:type="MSPage">
        <g id="Features" sketch:type="MSArtboardGroup" transform="translate(-359.000000, -316.000000)" fill="#EB4F4F">
            <path d="M393,324 L361,324 C359.896,324 359,324.896 359,326 L359,350 C359,351.105 359.896,352 361,352 L393,352 C394.105,352 395,351.105 395,350 L395,326 C395,324.896 394.105,324 393,324 L393,324 Z M361,336 L393,336 L393,350 L361,350 L361,336 Z M361,326 L393,326 L393,330 L361,330 L361,326 Z M384,346 L388,346 C388.552,346 389,345.553 389,345 L389,341 C389,340.447 388.552,340 388,340 L384,340 C383.448,340 383,340.447 383,341 L383,345 C383,345.553 383.448,346 384,346 L384,346 Z M366,342 L378,342 C378.552,342 379,341.553 379,341 C379,340.447 378.552,340 378,340 L366,340 C365.448,340 365,340.447 365,341 C365,341.553 365.448,342 366,342 L366,342 Z M366,346 L374,346 C374.552,346 375,345.553 375,345 C375,344.448 374.552,344 374,344 L366,344 C365.448,344 365,344.448 365,345 C365,345.553 365.448,346 366,346 L366,346 Z M401,316 L369,316 C367.896,316 367,316.896 367,318 L367,321 C367,321.553 367.448,322 368,322 C368.552,322 369,321.553 369,321 L369,318 L401,318 L401,342 L398,342 C397.448,342 397,342.448 397,343 C397,343.553 397.448,344 398,344 L401,344 C402.104,344 403,343.105 403,342 L403,318 C403,316.896 402.104,316 401,316 L401,316 Z" id="Imported-Layers" sketch:type="MSShapeGroup"></path>
        </g>
    </g>
</svg>