<?xml version="1.0" encoding="UTF-8" standalone="no"?>
<svg width="60px" height="60px" viewBox="0 0 60 60" version="1.1" xmlns="http://www.w3.org/2000/svg" xmlns:xlink="http://www.w3.org/1999/xlink" xmlns:sketch="http://www.bohemiancoding.com/sketch/ns">
    <!-- Generator: Sketch 3.3 (11970) - http://www.bohemiancoding.com/sketch -->
    <title>Imported Layers</title>
    <desc>Created with Sketch.</desc>
    <defs></defs>
    <g id="Page-1" stroke="none" stroke-width="1" fill="none" fill-rule="evenodd" sketch:type="MSPage">
        <g id="Desktop-HD" sketch:type="MSArtboardGroup" transform="translate(-746.000000, -7933.000000)" fill="#FFFFFF">
            <g id="share-the-love" sketch:type="MSLayerGroup" transform="translate(0.000000, 7672.000000)">
                <g id="Group" transform="translate(525.000000, 261.000000)" sketch:type="MSShapeGroup">
                    <path d="M251,0 C234.431818,0 221,13.4318182 221,30 C221,46.5681818 234.431818,60 251,60 C267.568182,60 281,46.5681818 281,30 C281,13.4318182 267.568182,0 251,0 L251,0 Z M251,57.2727273 C235.937273,57.2727273 223.727273,45.0627273 223.727273,30 C223.727273,14.9386364 235.937273,2.72727273 251,2.72727273 C266.062727,2.72727273 278.272727,14.9386364 278.272727,30 C278.272727,45.0627273 266.062727,57.2727273 251,57.2727273 L251,57.2727273 Z M251.105,31.1004545 C250.406818,30.5809091 249.752273,29.8104545 249.727727,29.5731818 C249.727727,29.1640909 249.727727,28.9759091 250.690455,28.1877273 C251.939545,27.165 252.626818,25.8204545 252.626818,24.3995455 C252.626818,23.1722727 252.284545,22.0745455 251.692727,21.2768182 L252.216364,21.2768182 L255.100455,19.0922727 L247.286818,19.0922727 C244.151818,19.0922727 241.402727,21.5536364 241.402727,24.3586364 C241.402727,27.2563636 243.525909,29.4586364 246.38,29.5772727 C246.336364,29.7831818 246.313182,29.9863636 246.313182,30.1868182 C246.313182,30.6054545 246.407273,31.005 246.599545,31.3909091 C243.060909,31.4140909 240.081364,33.78 240.081364,36.5754545 C240.081364,39.0859091 242.950455,40.9077273 246.902273,40.9077273 C251.170455,40.9077273 253.472273,38.2377273 253.472273,35.7231818 C253.472273,33.6327273 252.83,32.3781818 251.105,31.1004545 L251.105,31.1004545 Z M244.727273,24.2740909 C244.595,23.2281818 244.815909,22.26 245.317727,21.6818182 C245.623182,21.3327273 246.015909,21.1459091 246.455,21.1459091 L246.455,20.58 L246.505455,21.1472727 C247.814545,21.1881818 249.070455,22.7359091 249.302273,24.5972727 C249.437273,25.6622727 249.208182,26.6536364 248.692727,27.2468182 C248.388636,27.5972727 248.002727,27.7827273 247.526818,27.7813636 L247.524091,27.7813636 C246.240909,27.7431818 244.960455,26.1354545 244.727273,24.2740909 L244.727273,24.2740909 Z M246.89,38.7381818 C244.942727,38.7381818 243.418182,37.485 243.418182,35.8868182 C243.418182,34.4209091 245.203182,33.135 247.239091,33.135 L247.239091,32.565 L247.292273,33.135 C247.732727,33.1390909 248.158182,33.2072727 248.560455,33.3340909 L248.964091,33.6231818 C249.999091,34.3622727 250.545909,34.7809091 250.709545,35.4545455 C250.750455,35.6304545 250.769545,35.8090909 250.769545,35.985 C250.769545,37.8109091 249.464545,38.7381818 246.89,38.7381818 L246.89,38.7381818 Z M261.902273,20.4422727 L259.172273,20.4422727 L259.172273,24.5359091 L255.069091,24.5359091 L255.069091,27.2659091 L259.172273,27.2659091 L259.172273,31.3418182 L261.902273,31.3418182 L261.902273,27.2659091 L266.012273,27.2659091 L266.012273,24.5359091 L261.902273,24.5359091 L261.902273,20.4422727 L261.902273,20.4422727 Z" id="Imported-Layers"></path>
                </g>
            </g>
        </g>
    </g>
</svg>