<?xml version="1.0" encoding="UTF-8" standalone="no"?>
<svg width="32px" height="33px" viewBox="0 0 32 33" version="1.1" xmlns="http://www.w3.org/2000/svg" xmlns:xlink="http://www.w3.org/1999/xlink" xmlns:sketch="http://www.bohemiancoding.com/sketch/ns">
    <!-- Generator: Sketch 3.3 (11970) - http://www.bohemiancoding.com/sketch -->
    <title>Imported Layers</title>
    <desc>Created with Sketch.</desc>
    <defs></defs>
    <g id="Page-1" stroke="none" stroke-width="1" fill="none" fill-rule="evenodd" sketch:type="MSPage">
        <g id="Desktop-HD" sketch:type="MSArtboardGroup" transform="translate(-932.000000, -12368.000000)" fill="#FFFFFF">
            <g id="Footer" sketch:type="MSLayerGroup" transform="translate(0.000000, 12323.000000)">
                <g id="Group-3" transform="translate(837.000000, 45.000000)" sketch:type="MSShapeGroup">
                    <path d="M111.0479,0.512820513 C102.400067,0.512820513 95.3892727,7.67645688 95.3892727,16.5128205 C95.3892727,25.3491841 102.400067,32.5128205 111.0479,32.5128205 C119.695733,32.5128205 126.706528,25.3491841 126.706528,16.5128205 C126.706528,7.67645688 119.695733,0.512820513 111.0479,0.512820513 L111.0479,0.512820513 Z M111.0479,31.0582751 C103.185846,31.0582751 96.8127842,24.5462751 96.8127842,16.5128205 C96.8127842,8.48009324 103.185846,1.96736597 111.0479,1.96736597 C118.909955,1.96736597 125.283016,8.48009324 125.283016,16.5128205 C125.283016,24.5462751 118.909955,31.0582751 111.0479,31.0582751 L111.0479,31.0582751 Z M111.102705,17.0997296 C110.738286,16.8226387 110.396644,16.4117296 110.383832,16.2851841 C110.383832,16.0670023 110.383832,15.9666387 110.886332,15.5462751 C111.5383,15.0008205 111.897025,14.2837296 111.897025,13.5259114 C111.897025,12.871366 111.718374,12.2859114 111.409472,11.8604569 L111.682786,11.8604569 L113.18815,10.695366 L109.109789,10.695366 C107.473463,10.695366 106.038563,12.0080932 106.038563,13.5040932 C106.038563,15.0495478 107.146767,16.2240932 108.636472,16.287366 C108.613695,16.3971841 108.601596,16.5055478 108.601596,16.6124569 C108.601596,16.8357296 108.650707,17.0488205 108.751064,17.2546387 C106.904058,17.2670023 105.348872,18.5288205 105.348872,20.0197296 C105.348872,21.3586387 106.846406,22.3302751 108.909074,22.3302751 C111.13687,22.3302751 112.338313,20.9062751 112.338313,19.5651841 C112.338313,18.4502751 112.003076,17.7811841 111.102705,17.0997296 L111.102705,17.0997296 Z M107.773824,13.4590023 C107.704783,12.9011841 107.820088,12.3848205 108.082014,12.0764569 C108.241447,11.8902751 108.446433,11.7906387 108.675618,11.7906387 L108.675618,11.4888205 L108.701953,11.791366 C109.385239,11.8131841 110.040766,12.6386387 110.161764,13.631366 C110.232228,14.199366 110.112653,14.7280932 109.843609,15.0444569 C109.684888,15.231366 109.483461,15.3302751 109.235058,15.3295478 L109.233635,15.3295478 C108.563872,15.3091841 107.895534,14.4517296 107.773824,13.4590023 L107.773824,13.4590023 Z M108.902668,21.1731841 C107.886281,21.1731841 107.090538,20.5048205 107.090538,19.6524569 C107.090538,18.8706387 108.022226,18.1848205 109.084878,18.1848205 L109.084878,17.8808205 L109.112636,18.1848205 C109.342533,18.1870023 109.564601,18.223366 109.774569,18.2910023 L109.985249,18.4451841 C110.525471,18.839366 110.810886,19.0626387 110.896296,19.4219114 C110.917649,19.5157296 110.927613,19.6110023 110.927613,19.7048205 C110.927613,20.6786387 110.246463,21.1731841 108.902668,21.1731841 L108.902668,21.1731841 Z M116.738388,11.415366 L115.313453,11.415366 L115.313453,13.5986387 L113.171779,13.5986387 L113.171779,15.0546387 L115.313453,15.0546387 L115.313453,17.2284569 L116.738388,17.2284569 L116.738388,15.0546387 L118.88362,15.0546387 L118.88362,13.5986387 L116.738388,13.5986387 L116.738388,11.415366 L116.738388,11.415366 Z" id="Imported-Layers"></path>
                </g>
            </g>
        </g>
    </g>
</svg>