<?xml version="1.0" encoding="UTF-8" standalone="no"?>
<svg width="44px" height="44px" viewBox="0 0 44 44" version="1.1" xmlns="http://www.w3.org/2000/svg" xmlns:xlink="http://www.w3.org/1999/xlink" xmlns:sketch="http://www.bohemiancoding.com/sketch/ns">
    <!-- Generator: Sketch 3.3 (11970) - http://www.bohemiancoding.com/sketch -->
    <title>Imported Layers</title>
    <desc>Created with Sketch.</desc>
    <defs></defs>
    <g id="Page-1" stroke="none" stroke-width="1" fill="none" fill-rule="evenodd" sketch:type="MSPage">
        <g id="Features" sketch:type="MSArtboardGroup" transform="translate(-978.000000, -783.000000)" fill="#3E35F7">
            <path d="M1000,783 C987.85,783 978,792.85 978,805 C978,817.15 987.85,827 1000,827 C1012.15,827 1022,817.15 1022,805 C1022,792.85 1012.15,783 1000,783 L1000,783 Z M1000,785 C1005.163,785 1009.853,786.974 1013.401,790.185 L1008.452,795.135 C1006.178,793.185 1003.23,792 1000,792 C996.771,792 993.822,793.185 991.548,795.135 L986.599,790.185 C990.147,786.974 994.837,785 1000,785 L1000,785 Z M1011,805 C1011,811.075 1006.075,816 1000,816 C993.925,816 989,811.075 989,805 C989,798.925 993.925,794 1000,794 C1006.075,794 1011,798.925 1011,805 L1011,805 Z M980,805 C980,799.838 981.973,795.147 985.185,791.599 L990.134,796.549 C988.185,798.822 987,801.77 987,805 C987,808.231 988.185,811.178 990.134,813.452 L985.185,818.401 C981.973,814.854 980,810.163 980,805 L980,805 Z M1000,825.001 C994.837,825.001 990.147,823.027 986.599,819.816 L991.548,814.866 C993.822,816.815 996.771,818 1000,818 C1003.23,818 1006.178,816.815 1008.452,814.866 L1013.401,819.816 C1009.853,823.027 1005.163,825.001 1000,825.001 L1000,825.001 Z M1014.815,818.401 L1009.866,813.452 C1011.815,811.178 1013,808.231 1013,805 C1013,801.77 1011.815,798.822 1009.866,796.549 L1014.815,791.599 C1018.027,795.147 1020,799.838 1020,805 C1020,810.163 1018.027,814.854 1014.815,818.401 L1014.815,818.401 Z" id="Imported-Layers" sketch:type="MSShapeGroup"></path>
        </g>
    </g>
</svg>