<?xml version="1.0" encoding="UTF-8" standalone="no"?>
<svg width="44px" height="44px" viewBox="0 0 44 44" version="1.1" xmlns="http://www.w3.org/2000/svg" xmlns:xlink="http://www.w3.org/1999/xlink" xmlns:sketch="http://www.bohemiancoding.com/sketch/ns">
    <!-- Generator: Sketch 3.3 (11970) - http://www.bohemiancoding.com/sketch -->
    <title>Imported Layers</title>
    <desc>Created with Sketch.</desc>
    <defs></defs>
    <g id="Page-1" stroke="none" stroke-width="1" fill="none" fill-rule="evenodd" sketch:type="MSPage">
        <g id="How-it-works" sketch:type="MSArtboardGroup" transform="translate(-788.000000, -411.000000)" fill="#FFFFFF">
            <g id="Group" sketch:type="MSLayerGroup" transform="translate(192.000000, 157.000000)">
                <g transform="translate(562.000000, 194.000000)" id="Imported-Layers" sketch:type="MSShapeGroup">
                    <path d="M54.986,76.001 C54.433,76.001 53.986,76.448 53.986,77.001 C53.986,77.554 54.433,78.001 54.986,78.001 C55.539,78.001 55.986,77.554 55.986,77.001 C55.986,76.448 55.539,76.001 54.986,76.001 L54.986,76.001 Z M41.751,84.568 L34,104.002 L53.433,96.251 C53.087,96.291 52.742,96.31 52.397,96.31 C46.452,96.31 41.068,90.561 41.751,84.568 L41.751,84.568 Z M37.582,100.42 L41.197,91.357 C41.683,92.255 42.285,93.11 42.992,93.901 C44.06,95.1 45.298,96.079 46.638,96.808 L37.582,100.42 L37.582,100.42 Z M66.986,74.001 C68.643,74.001 69.986,72.657 69.986,71.001 C69.986,69.345 68.643,68.001 66.986,68.001 C65.329,68.001 63.986,69.345 63.986,71.001 C63.986,72.657 65.329,74.001 66.986,74.001 L66.986,74.001 Z M66.986,70.001 C67.539,70.001 67.986,70.448 67.986,71.001 C67.986,71.554 67.539,72.001 66.986,72.001 C66.433,72.001 65.986,71.554 65.986,71.001 C65.986,70.448 66.433,70.001 66.986,70.001 L66.986,70.001 Z M57.986,81.001 C58.539,81.001 58.986,80.554 58.986,80.001 C58.986,79.448 58.539,79.001 57.986,79.001 C57.433,79.001 56.986,79.448 56.986,80.001 C56.986,80.554 57.433,81.001 57.986,81.001 L57.986,81.001 Z M77.63,60.34 C77.404,60.112 76.844,60 76.036,60 C71.81,60 60.78,63.079 54.879,68.981 C53.487,70.373 48.878,74.616 47.807,76.053 C44.345,77.001 39.304,78.898 36.494,81.709 C36.494,81.709 39.924,81.723 44.109,84.389 C43.501,86.869 44.272,89.487 46.393,91.608 C48.046,93.261 50,94.095 51.955,94.095 C52.509,94.095 53.064,94.027 53.613,93.893 C56.279,98.078 56.293,101.508 56.293,101.508 C59.103,98.697 61.001,93.656 61.949,90.194 C63.385,89.124 67.629,84.515 69.02,83.123 C76.05,76.094 79.045,61.754 77.63,60.34 L77.63,60.34 Z M60.02,89.666 C59.289,92.335 58.327,94.778 57.259,96.74 C56.82,95.556 56.193,94.22 55.3,92.818 C54.927,92.233 54.286,91.893 53.613,91.893 C53.455,91.893 53.295,91.911 53.136,91.95 C52.747,92.046 52.349,92.095 51.955,92.095 C50.484,92.095 49.05,91.437 47.807,90.194 C46.221,88.608 45.597,86.716 46.051,84.865 C46.256,84.032 45.906,83.162 45.183,82.702 C43.781,81.809 42.446,81.183 41.261,80.743 C43.223,79.675 45.666,78.713 48.336,77.981 C48.388,77.968 48.432,77.933 48.484,77.913 L60.089,89.519 C60.07,89.569 60.035,89.612 60.02,89.666 L60.02,89.666 Z M67.606,81.709 C67.211,82.105 66.588,82.756 65.865,83.513 C64.577,84.86 62.594,86.933 61.417,88.018 L49.984,76.585 C51.068,75.407 53.141,73.425 54.489,72.138 C55.246,71.414 55.897,70.792 56.293,70.396 C61.703,64.985 72.102,62.023 75.991,62.001 C75.984,65.24 73.255,76.061 67.606,81.709 L67.606,81.709 Z M60.986,84.001 C61.539,84.001 61.986,83.554 61.986,83.001 C61.986,82.448 61.539,82.001 60.986,82.001 C60.433,82.001 59.986,82.448 59.986,83.001 C59.986,83.554 60.433,84.001 60.986,84.001 L60.986,84.001 Z"></path>
                </g>
            </g>
        </g>
    </g>
</svg>