<?xml version="1.0" encoding="UTF-8" standalone="no"?>
<svg width="40px" height="44px" viewBox="0 0 40 44" version="1.1" xmlns="http://www.w3.org/2000/svg" xmlns:xlink="http://www.w3.org/1999/xlink" xmlns:sketch="http://www.bohemiancoding.com/sketch/ns">
    <!-- Generator: Sketch 3.3 (11970) - http://www.bohemiancoding.com/sketch -->
    <title>Imported Layers</title>
    <desc>Created with Sketch.</desc>
    <defs></defs>
    <g id="Page-1" stroke="none" stroke-width="1" fill="none" fill-rule="evenodd" sketch:type="MSPage">
        <g id="How-it-works" sketch:type="MSArtboardGroup" transform="translate(-508.000000, -412.000000)" fill="#FFFFFF">
            <g id="Group" sketch:type="MSLayerGroup" transform="translate(192.000000, 157.000000)">
                <g transform="translate(0.000000, 194.000000)" id="Imported-Layers" sketch:type="MSShapeGroup">
                    <path d="M336,86 C331,86 330,89 330,92 C330,95 331,101 332,103 C333,105 334,105 334,105 L338,105 C338,105 339,105 340,103 C341,101 342,95 342,92 C342,89 341,86 336,86 L336,86 Z M338.211,102.106 C337.953,102.622 337.736,102.881 337.616,103 L334.384,103 C334.263,102.881 334.047,102.622 333.789,102.106 C333.003,100.534 332,94.867 332,92 C332,89.047 333.047,88 336,88 C338.953,88 340,89.047 340,92 C340,94.867 338.997,100.534 338.211,102.106 L338.211,102.106 Z M336,61 C324.955,61 316,69.954 316,81 C316,89.533 321.353,96.797 328.876,99.67 C328.73,98.908 328.598,98.121 328.483,97.34 C322.3,94.49 318,88.254 318,81 C318,71.059 326.059,63 336,63 C345.941,63 354,71.059 354,81 C354,88.244 349.712,94.471 343.544,97.326 C343.43,98.107 343.297,98.896 343.148,99.661 C350.659,96.781 356,89.523 356,81 C356,69.954 347.046,61 336,61 L336,61 Z M342.377,86.702 C342.776,87.221 343.099,87.815 343.353,88.469 C346.177,86.273 348,82.853 348,79 C348,72.373 342.627,67 336,67 C329.373,67 324,72.373 324,79 C324,82.824 325.794,86.222 328.581,88.42 C328.829,87.756 329.159,87.165 329.561,86.646 C327.385,84.81 326,82.068 326,79 C326,73.477 330.477,69 336,69 C341.523,69 346,73.477 346,79 C346,82.1 344.59,84.868 342.377,86.702 L342.377,86.702 Z M336,84 C338.762,84 341,81.762 341,79 C341,76.238 338.762,74 336,74 C333.239,74 331,76.238 331,79 C331,81.762 333.239,84 336,84 L336,84 Z M336,76 C337.657,76 339,77.344 339,79 C339,80.656 337.657,82 336,82 C334.343,82 333,80.656 333,79 C333,77.344 334.343,76 336,76 L336,76 Z"></path>
                </g>
            </g>
        </g>
    </g>
</svg>