<?xml version="1.0" encoding="UTF-8" standalone="no"?>
<svg width="44px" height="44px" viewBox="0 0 44 44" version="1.1" xmlns="http://www.w3.org/2000/svg" xmlns:xlink="http://www.w3.org/1999/xlink" xmlns:sketch="http://www.bohemiancoding.com/sketch/ns">
    <!-- Generator: Sketch 3.2.2 (9983) - http://www.bohemiancoding.com/sketch -->
    <title>Imported Layers</title>
    <desc>Created with Sketch.</desc>
    <defs></defs>
    <g id="Page-1" stroke="none" stroke-width="1" fill="none" fill-rule="evenodd" sketch:type="MSPage">
        <g id="Desktop-HD" sketch:type="MSArtboardGroup" transform="translate(-696.000000, -1542.000000)" fill="#000000">
            <g id="Features" sketch:type="MSLayerGroup" transform="translate(-30.000000, 904.000000)">
                <g id="BLoggers" transform="translate(726.000000, 633.000000)" sketch:type="MSShapeGroup">
                    <path d="M9.707,34.707 L10.707,33.707 C10.888,33.526 11,33.276 11,33 C11,32.448 10.552,32 10,32 C9.724,32 9.474,32.112 9.293,32.293 L8.293,33.293 C8.112,33.475 8,33.725 8,34.001 C8,34.552 8.448,35 9,35 C9.276,35 9.526,34.889 9.707,34.707 L9.707,34.707 Z M16,34.001 C16,33.447 15.552,33 15,33 C14.724,33 14.474,33.112 14.293,33.293 L4.293,43.293 C4.112,43.475 4,43.725 4,44 C4,44.553 4.448,45 5,45 C5.276,45 5.526,44.889 5.708,44.707 L15.707,34.707 C15.888,34.526 16,34.276 16,34.001 L16,34.001 Z M44,6 C44,5.448 43.552,5 43,5 C42.846,5 42.704,5.041 42.573,5.105 L42.57,5.098 L0.615,23.078 C0.612,23.079 0.609,23.08 0.606,23.082 L0.57,23.098 L0.573,23.103 C0.237,23.265 0,23.603 0,24 C0,24.454 0.308,24.822 0.723,24.944 L0.718,24.96 L17.238,31.762 L24.041,48.282 L24.056,48.277 C24.178,48.691 24.546,49 25,49 C25.398,49 25.735,48.764 25.896,48.427 L25.903,48.43 L25.919,48.394 C25.92,48.391 25.921,48.388 25.922,48.385 L43.903,6.43 L43.892,6.425 C43.956,6.296 44,6.154 44,6 L44,6 Z M3.574,23.984 L38.623,8.963 L17.76,29.826 L3.574,23.984 L3.574,23.984 Z M25.016,45.427 L19.174,31.24 L40.037,10.378 L25.016,45.427 L25.016,45.427 Z M16,38 C15.724,38 15.474,38.112 15.293,38.293 L12.293,41.293 C12.112,41.474 12,41.725 12,42 C12,42.553 12.448,43 13,43 C13.276,43 13.526,42.889 13.707,42.707 L16.707,39.707 C16.888,39.526 17,39.276 17,39 C17,38.447 16.552,38 16,38 L16,38 Z" id="Imported-Layers"></path>
                </g>
            </g>
        </g>
    </g>
</svg>