<?xml version="1.0" encoding="UTF-8" standalone="no"?>
<svg width="21px" height="21px" viewBox="0 0 21 21" version="1.1" xmlns="http://www.w3.org/2000/svg" xmlns:xlink="http://www.w3.org/1999/xlink" xmlns:sketch="http://www.bohemiancoding.com/sketch/ns">
    <!-- Generator: Sketch 3.3 (11970) - http://www.bohemiancoding.com/sketch -->
    <title>Imported Layers</title>
    <desc>Created with Sketch.</desc>
    <defs></defs>
    <g id="Page-1" stroke="none" stroke-width="1" fill="none" fill-rule="evenodd" sketch:type="MSPage">
        <g id="top-bar-action-bar" sketch:type="MSArtboardGroup" transform="translate(-476.000000, -12.000000)" fill="#FFFFFF">
            <path d="M487.902227,26.8045227 C487.610136,26.8045227 487.404432,26.75775 487.285591,26.6642045 C487.167227,26.5706591 487.107568,26.3955 487.107568,26.1377727 C487.107568,26.0351591 487.126182,25.8843409 487.162932,25.6843636 C487.199205,25.4848636 487.240727,25.3068409 487.286545,25.15125 L487.850682,23.2116136 C487.905568,23.0340682 487.943273,22.8383864 487.963795,22.6255227 C487.984318,22.4117045 487.994818,22.2632727 487.994818,22.1783182 C487.994818,21.7697727 487.846864,21.4380682 487.551909,21.1817727 C487.256477,20.9264318 486.836477,20.799 486.291909,20.799 C485.989795,20.799 485.669068,20.8510227 485.330205,20.9555455 C484.991341,21.0595909 484.636727,21.1855909 484.265886,21.3321136 L484.115068,21.9320455 C484.224841,21.8919545 484.356568,21.8499545 484.510727,21.8050909 C484.663932,21.7607045 484.814273,21.73875 484.960795,21.73875 C485.259091,21.73875 485.4605,21.7879091 485.566455,21.8852727 C485.671455,21.9831136 485.724432,22.1563636 485.724432,22.4055 C485.724432,22.5429545 485.70725,22.6952045 485.672886,22.8617727 C485.638523,23.0278636 485.596045,23.2054091 485.545455,23.3915455 L484.979409,25.3378636 C484.928818,25.5421364 484.892068,25.7258864 484.869636,25.8881591 C484.846727,26.0499545 484.835273,26.2093636 484.835273,26.3644773 C484.835273,26.7644318 484.987045,27.0942273 485.291068,27.3543409 C485.595568,27.6139773 486.021773,27.7437955 486.570636,27.7437955 C486.927159,27.7437955 487.24025,27.6984545 487.509909,27.6072955 C487.780045,27.5166136 488.141341,27.3839318 488.593795,27.2106818 L488.744614,26.61075 C488.667295,26.6465455 488.541295,26.6875909 488.368045,26.7343636 C488.194318,26.7811364 488.039205,26.8045227 487.902227,26.8045227 L487.902227,26.8045227 Z M486.5,12 C480.701136,12 476,16.7016136 476,22.5 C476,28.2988636 480.701136,33 486.5,33 C492.298864,33 497,28.2988636 497,22.5 C497,16.7016136 492.298864,12 486.5,12 L486.5,12 Z M486.5,32.0454545 C481.228045,32.0454545 476.954545,27.7719545 476.954545,22.5 C476.954545,17.2280455 481.228045,12.9545455 486.5,12.9545455 C491.771955,12.9545455 496.045455,17.2280455 496.045455,22.5 C496.045455,27.7719545 491.771955,32.0454545 486.5,32.0454545 L486.5,32.0454545 Z M487.54475,17.2461818 C487.173909,17.2461818 486.856045,17.3659773 486.591159,17.6060455 C486.325795,17.8461136 486.193114,18.1353409 486.193114,18.4722955 C486.193114,18.8106818 486.325795,19.098 486.591159,19.3356818 C486.856045,19.5733636 487.173909,19.6922045 487.54475,19.6922045 C487.914636,19.6922045 488.231545,19.5733636 488.494523,19.3356818 C488.7575,19.098 488.88875,18.8106818 488.88875,18.4722955 C488.88875,18.1353409 488.7575,17.8461136 488.494523,17.6060455 C488.231545,17.3659773 487.914636,17.2461818 487.54475,17.2461818 L487.54475,17.2461818 Z" id="Imported-Layers" sketch:type="MSShapeGroup"></path>
        </g>
    </g>
</svg>