<?xml version="1.0" encoding="UTF-8" standalone="no"?>
<svg width="32px" height="33px" viewBox="0 0 32 33" version="1.1" xmlns="http://www.w3.org/2000/svg" xmlns:xlink="http://www.w3.org/1999/xlink" xmlns:sketch="http://www.bohemiancoding.com/sketch/ns">
    <!-- Generator: Sketch 3.3 (11970) - http://www.bohemiancoding.com/sketch -->
    <title>Imported Layers</title>
    <desc>Created with Sketch.</desc>
    <defs></defs>
    <g id="Page-1" stroke="none" stroke-width="1" fill="none" fill-rule="evenodd" sketch:type="MSPage">
        <g id="Desktop-HD" sketch:type="MSArtboardGroup" transform="translate(-980.000000, -12368.000000)" fill="#FFFFFF">
            <g id="Footer" sketch:type="MSLayerGroup" transform="translate(0.000000, 12323.000000)">
                <g id="Group-3" transform="translate(837.000000, 45.000000)" sketch:type="MSShapeGroup">
                    <path d="M158.705858,0.512820513 C150.058026,0.512820513 143.047231,7.67645688 143.047231,16.5128205 C143.047231,25.3491841 150.058026,32.5128205 158.705858,32.5128205 C167.353691,32.5128205 174.364486,25.3491841 174.364486,16.5128205 C174.364486,7.67645688 167.353691,0.512820513 158.705858,0.512820513 L158.705858,0.512820513 Z M158.705858,31.0582751 C150.843804,31.0582751 144.470743,24.5462751 144.470743,16.5128205 C144.470743,8.48009324 150.843804,1.96736597 158.705858,1.96736597 C166.567913,1.96736597 172.940974,8.48009324 172.940974,16.5128205 C172.940974,24.5462751 166.567913,31.0582751 158.705858,31.0582751 L158.705858,31.0582751 Z M162.976393,9.24009324 L154.435324,9.24009324 C152.863055,9.24009324 151.5883,10.5426387 151.5883,12.1491841 L151.5883,20.8764569 C151.5883,22.4830023 152.863055,23.7855478 154.435324,23.7855478 L162.976393,23.7855478 C164.548662,23.7855478 165.823416,22.4830023 165.823416,20.8764569 L165.823416,12.1491841 C165.823416,10.5426387 164.548662,9.24009324 162.976393,9.24009324 L162.976393,9.24009324 Z M161.552882,11.4219114 L163.688149,11.4219114 L163.688149,13.6037296 L161.552882,13.6037296 L161.552882,11.4219114 Z M158.705858,13.6037296 C160.278127,13.6037296 161.552882,14.9062751 161.552882,16.5128205 C161.552882,18.119366 160.278127,19.4219114 158.705858,19.4219114 C157.13359,19.4219114 155.858835,18.119366 155.858835,16.5128205 C155.858835,14.9062751 157.13359,13.6037296 158.705858,13.6037296 L158.705858,13.6037296 Z M164.399905,20.8764569 C164.399905,21.679366 163.762172,22.3310023 162.976393,22.3310023 L154.435324,22.3310023 C153.648834,22.3310023 153.011812,21.679366 153.011812,20.8764569 L153.011812,15.7855478 L154.507211,15.7855478 C154.468064,16.023366 154.435324,16.2640932 154.435324,16.5128205 C154.435324,18.9237296 156.3471,20.8764569 158.705858,20.8764569 C161.063905,20.8764569 162.976393,18.9237296 162.976393,16.5128205 C162.976393,16.2640932 162.944364,16.023366 162.904506,15.7855478 L164.399905,15.7855478 L164.399905,20.8764569 L164.399905,20.8764569 Z" id="Imported-Layers"></path>
                </g>
            </g>
        </g>
    </g>
</svg>