<?xml version="1.0" encoding="UTF-8" standalone="no"?>
<svg width="53px" height="53px" viewBox="0 0 53 53" version="1.1" xmlns="http://www.w3.org/2000/svg" xmlns:xlink="http://www.w3.org/1999/xlink" xmlns:sketch="http://www.bohemiancoding.com/sketch/ns">
    <!-- Generator: Sketch 3.2.2 (9983) - http://www.bohemiancoding.com/sketch -->
    <title>Imported Layers</title>
    <desc>Created with Sketch.</desc>
    <defs></defs>
    <g id="Page-1" stroke="none" stroke-width="1" fill="none" fill-rule="evenodd" sketch:type="MSPage">
        <g id="Desktop-HD" sketch:type="MSArtboardGroup" transform="translate(-695.000000, -6542.000000)" fill="#27ABD8">
            <g id="How-it-works" sketch:type="MSLayerGroup" transform="translate(0.000000, 6114.000000)">
                <g id="INSTALL-+-Install-the-app-in-y-+-Imported-Layers" transform="translate(632.000000, 428.000000)" sketch:type="MSShapeGroup">
                    <path d="M111.181818,0 L67.8181818,0 C65.1573409,0 63,2.15734091 63,4.81818182 L63,40.9545455 C63,43.6153864 65.1573409,45.7727273 67.8181818,45.7727273 L84.6818182,45.7727273 L84.6818182,50.5909091 L81.0681818,50.5909091 C80.4032727,50.5909091 79.8636364,51.1293409 79.8636364,51.7954545 C79.8636364,52.4615682 80.4032727,53 81.0681818,53 L97.9318182,53 C98.5967273,53 99.1363636,52.4615682 99.1363636,51.7954545 C99.1363636,51.1293409 98.5967273,50.5909091 97.9318182,50.5909091 L94.3181818,50.5909091 L94.3181818,45.7727273 L111.181818,45.7727273 C113.842659,45.7727273 116,43.6153864 116,40.9545455 L116,4.81818182 C116,2.15734091 113.842659,0 111.181818,0 L111.181818,0 Z M87.0909091,45.7727273 L91.9090909,45.7727273 L91.9090909,50.5909091 L87.0909091,50.5909091 L87.0909091,45.7727273 Z M113.590909,40.9545455 C113.590909,42.2855682 112.512841,43.3636364 111.181818,43.3636364 L67.8181818,43.3636364 C66.4883636,43.3636364 65.4090909,42.2855682 65.4090909,40.9545455 L65.4090909,38.5454545 L113.590909,38.5454545 L113.590909,40.9545455 L113.590909,40.9545455 Z M113.590909,36.1363636 L65.4090909,36.1363636 L65.4090909,4.81818182 C65.4090909,3.48836364 66.4883636,2.40909091 67.8181818,2.40909091 L111.181818,2.40909091 C112.512841,2.40909091 113.590909,3.48836364 113.590909,4.81818182 L113.590909,36.1363636 L113.590909,36.1363636 Z M98.7846364,18.4211136 L93.96525,13.6029318 C93.7472273,13.3849091 93.4460909,13.25 93.1136364,13.25 C92.4487273,13.25 91.9090909,13.7896364 91.9090909,14.4545455 C91.9090909,14.787 92.044,15.0881364 92.2620227,15.3073636 L95.0240455,18.0681818 L81.0681818,18.0681818 C80.4032727,18.0681818 79.8636364,18.6078182 79.8636364,19.2727273 C79.8636364,19.9388409 80.4032727,20.4772727 81.0681818,20.4772727 L95.0240455,20.4772727 L92.2620227,23.2392955 C92.044,23.4573182 91.9090909,23.7584545 91.9090909,24.0909091 C91.9090909,24.7570227 92.4487273,25.2954545 93.1136364,25.2954545 C93.4460909,25.2954545 93.7472273,25.16175 93.96525,24.9425227 L98.7834318,20.1243409 C99.0014545,19.9063182 99.1363636,19.6051818 99.1363636,19.2727273 C99.1363636,18.9414773 99.0014545,18.6403409 98.7834318,18.4211136 L98.7846364,18.4211136 L98.7846364,18.4211136 Z" id="Imported-Layers"></path>
                </g>
            </g>
        </g>
    </g>
</svg>