<?xml version="1.0" encoding="UTF-8" standalone="no"?>
<svg width="44px" height="44px" viewBox="0 0 44 44" version="1.1" xmlns="http://www.w3.org/2000/svg" xmlns:xlink="http://www.w3.org/1999/xlink" xmlns:sketch="http://www.bohemiancoding.com/sketch/ns">
    <!-- Generator: Sketch 3.3 (11970) - http://www.bohemiancoding.com/sketch -->
    <title>Imported Layers</title>
    <desc>Created with Sketch.</desc>
    <defs></defs>
    <g id="Page-1" stroke="none" stroke-width="1" fill="none" fill-rule="evenodd" sketch:type="MSPage">
        <g id="Features" sketch:type="MSArtboardGroup" transform="translate(-358.000000, -784.000000)" fill="#DDAF49">
            <path d="M396,797 L396,787 C396,785.343 394.657,784 393,784 C391.343,784 390,785.343 390,787 L390,787.768 L374.653,792.372 L360,794 C358.896,794 358,794.895 358,796 L358,810 C358,811.104 358.896,812 360,812 L366.811,812.757 L370.024,827.217 L370.043,827.213 C370.143,827.66 370.523,828 371,828 L379,828 C379.552,828 380,827.553 380,827 C380,826.925 379.973,826.857 379.957,826.787 L379.976,826.783 L377.224,814.399 L390,818.232 L390,819 C390,820.657 391.343,822 393,822 C394.657,822 396,820.657 396,819 L396,809 C399.314,809 402,806.313 402,803 C402,799.686 399.314,797 396,797 L396,797 Z M360,810 L360,806 L365,806 C365.552,806 366,805.553 366,805 C366,804.447 365.552,804 365,804 L360,804 L360,802 L363,802 C363.552,802 364,801.553 364,801 C364,800.448 363.552,800 363,800 L360,800 L360,796 L374,794.445 L374,811.556 L360,810 L360,810 Z M370.913,822 L368.911,812.99 L374.654,813.629 L375.029,813.741 L376.864,822 L370.913,822 L370.913,822 Z M377.309,824 L377.753,826 L371.802,826 L371.358,824 L377.309,824 L377.309,824 Z M390,816.144 L376,811.944 L376,794.056 L390,789.856 L390,816.144 L390,816.144 Z M394,819 C394,819.553 393.552,820 393,820 C392.448,820 392,819.553 392,819 L392,787 C392,786.448 392.448,786 393,786 C393.552,786 394,786.448 394,787 L394,819 L394,819 Z M396,807 L396,799 C398.209,799 400,800.791 400,803 C400,805.209 398.209,807 396,807 L396,807 Z" id="Imported-Layers" sketch:type="MSShapeGroup"></path>
        </g>
    </g>
</svg>