<?xml version="1.0" encoding="UTF-8" standalone="no"?>
<svg width="36px" height="44px" viewBox="0 0 36 44" version="1.1" xmlns="http://www.w3.org/2000/svg" xmlns:xlink="http://www.w3.org/1999/xlink" xmlns:sketch="http://www.bohemiancoding.com/sketch/ns">
    <!-- Generator: Sketch 3.3 (11970) - http://www.bohemiancoding.com/sketch -->
    <title>Imported Layers</title>
    <desc>Created with Sketch.</desc>
    <defs></defs>
    <g id="Page-1" stroke="none" stroke-width="1" fill="none" fill-rule="evenodd" sketch:type="MSPage">
        <g id="Features-with-phone" sketch:type="MSArtboardGroup" transform="translate(-101.000000, -754.000000)" fill="#000000">
            <g id="BLoggers-Copy-2" sketch:type="MSLayerGroup" transform="translate(101.000000, 749.000000)">
                <path d="M36,36 C36,29 28,29 28,19 C28,14.869 25.494,11.324 21.92,9.799 C21.972,9.541 22,9.273 22,9 C22,6.791 20.209,5 18,5 C15.791,5 14,6.791 14,9 C14,9.273 14.028,9.541 14.08,9.799 C10.506,11.324 8,14.869 8,19 C8,29 0,29 0,36 C0,39.051 5.027,41.639 12.028,42.598 C12.018,42.731 12,42.863 12,43 C12,46.315 14.687,49 18,49 C21.313,49 24,46.315 24,43 C24,42.863 23.982,42.731 23.972,42.598 C30.973,41.639 36,39.051 36,36 L36,36 Z M18,7 C19.104,7 20,7.896 20,9 C20,10.105 19.104,11 18,11 C16.896,11 16,10.105 16,9 C16,7.896 16.896,7 18,7 L18,7 Z M4.913,30.566 C7.18,28.197 10,25.247 10,19 C10,15.657 12.063,12.791 14.981,11.597 C15.714,12.449 16.787,13 18,13 C19.213,13 20.286,12.449 21.019,11.597 C23.938,12.791 26,15.657 26,19 C26,25.247 28.82,28.197 31.087,30.566 C31.519,31.019 31.92,31.439 32.277,31.854 C30.362,33.676 24.709,35 18,35 C11.298,35 5.638,33.68 3.717,31.86 C4.076,31.443 4.479,31.022 4.913,30.566 L4.913,30.566 Z M18,47 C15.791,47 14,45.209 14,43 C14,42.94 14.013,42.883 14.016,42.822 C15.299,42.936 16.629,43 18,43 C19.371,43 20.701,42.936 21.984,42.822 C21.987,42.883 22,42.94 22,43 C22,45.209 20.209,47 18,47 L18,47 Z M18,41 C7.648,41 2,37.697 2,36 C2,34.924 2.258,34.078 2.687,33.306 C5.426,35.489 11.243,37 18,37 C24.76,37 30.574,35.487 33.312,33.302 C33.74,34.074 34,34.922 34,36 C34,37.697 28.352,41 18,41 L18,41 Z" id="Imported-Layers" sketch:type="MSShapeGroup"></path>
            </g>
        </g>
    </g>
</svg>