<?xml version="1.0" encoding="UTF-8" standalone="no"?>
<svg width="44px" height="44px" viewBox="0 0 44 44" version="1.1" xmlns="http://www.w3.org/2000/svg" xmlns:xlink="http://www.w3.org/1999/xlink" xmlns:sketch="http://www.bohemiancoding.com/sketch/ns">
    <!-- Generator: Sketch 3.2.2 (9983) - http://www.bohemiancoding.com/sketch -->
    <title>Imported Layers</title>
    <desc>Created with Sketch.</desc>
    <defs></defs>
    <g id="Page-1" stroke="none" stroke-width="1" fill="none" fill-rule="evenodd" sketch:type="MSPage">
        <g id="Desktop-HD" sketch:type="MSArtboardGroup" transform="translate(-819.000000, -7120.000000)" fill="#000000">
            <g id="More-features" sketch:type="MSLayerGroup" transform="translate(0.000000, 6834.000000)">
                <g id="Business-3" transform="translate(819.000000, 282.000000)" sketch:type="MSShapeGroup">
                    <path d="M15,42 L29,42 C29.553,42 30,41.553 30,41 C30,40.448 29.553,40 29,40 L15,40 C14.447,40 14,40.448 14,41 C14,41.553 14.447,42 15,42 L15,42 Z M15,38 L25,38 C25.553,38 26,37.553 26,37 C26,36.448 25.553,36 25,36 L15,36 C14.447,36 14,36.448 14,37 C14,37.553 14.447,38 15,38 L15,38 Z M36,22 C34.896,22 34,22.896 34,24 C34,25.104 34.896,26 36,26 C37.104,26 38,25.104 38,24 C38,22.896 37.104,22 36,22 L36,22 Z M38,16 L36,16 L36,6 C36,4.896 35.105,4 34,4 L10,4 C8.896,4 8,4.896 8,6 L8,16 L6,16 C2.687,16 0,18.686 0,22 L0,38 C0,41.314 2.687,44 6,44 L8,44 L8,46 C8,47.106 8.896,48 10,48 L34,48 C35.105,48 36,47.106 36,46 L36,44 L38,44 C41.315,44 44,41.314 44,38 L44,22 C44,18.686 41.315,16 38,16 L38,16 Z M10,6 L34,6 L34,16 L10,16 L10,6 Z M34,44 L34,46 L10,46 L10,34 L34,34 L34,44 L34,44 Z M42,38 C42,40.209 40.209,42 38,42 L36,42 L36,34 C36,32.895 35.105,32 34,32 L10,32 C8.896,32 8,32.895 8,34 L8,42 L6,42 C3.791,42 2,40.209 2,38 L2,22 C2,19.791 3.791,18 6,18 L38,18 C40.209,18 42,19.791 42,22 L42,38 L42,38 Z M30,22 C28.896,22 28,22.896 28,24 C28,25.104 28.896,26 30,26 C31.104,26 32,25.104 32,24 C32,22.896 31.104,22 30,22 L30,22 Z" id="Imported-Layers"></path>
                </g>
            </g>
        </g>
    </g>
</svg>