<?xml version="1.0" encoding="UTF-8" standalone="no"?>
<svg width="100px" height="100px" viewBox="0 0 100 100" version="1.1" xmlns="http://www.w3.org/2000/svg" xmlns:xlink="http://www.w3.org/1999/xlink" xmlns:sketch="http://www.bohemiancoding.com/sketch/ns">
    <!-- Generator: Sketch 3.2.2 (9983) - http://www.bohemiancoding.com/sketch -->
    <title>Imported Layers</title>
    <desc>Created with Sketch.</desc>
    <defs></defs>
    <g id="Page-1" stroke="none" stroke-width="1" fill="none" fill-rule="evenodd" sketch:type="MSPage">
        <g id="Desktop-HD" sketch:type="MSArtboardGroup" transform="translate(-652.000000, -2938.000000)" fill="#FFFFFF">
            <g id="stats" sketch:type="MSLayerGroup" transform="translate(-31.000000, 2654.000000)">
                <g id="Imported-Layers-+-Download-+-683,725-2" transform="translate(676.000000, 284.000000)" sketch:type="MSShapeGroup">
                    <path d="M97.8227273,1.64928765 C97.6363636,0.999287647 97.1704545,0.465196738 96.55,0.192469465 C95.9363636,-0.0802578072 95.225,-0.0620759891 94.6204545,0.240196738 C94.4431818,0.326560375 76.6909091,9.09019674 57,9.09019674 C37.3522727,9.09019674 19.5568182,0.326560375 19.3795455,0.240196738 C18.775,-0.0620759891 18.0681818,-0.07798508 17.4477273,0.192469465 C16.8295455,0.465196738 16.3636364,0.999287647 16.1795455,1.64928765 C16.0863636,1.96974219 7,29.5424695 7,56.8174695 C7,85.6401967 54.55,99.5720149 56.575,99.9583786 C56.7159091,99.9856513 56.8568182,99.9992876 57,99.9992876 C57.1431818,99.9992876 57.2863636,99.9856513 57.425,99.9583786 C59.45,99.5720149 107,85.6401967 107,56.8174695 C107,29.5424695 97.9136364,1.96974219 97.8227273,1.64928765 L97.8227273,1.64928765 Z M57,95.4061058 C52.35,94.4288331 11.5454545,80.6106513 11.5454545,56.8174695 C11.5454545,34.6038331 17.75,13.5242876 19.8590909,5.45837856 C25.6181818,7.96519674 40.4818182,13.6356513 57,13.6356513 C73.5204545,13.6356513 88.3818182,7.96519674 94.1431818,5.45837856 C96.2522727,13.5197422 102.454545,34.587924 102.454545,56.8174695 C102.454545,80.5833786 61.6454545,94.4288331 57,95.4061058 L57,95.4061058 Z M64.6772727,40.8311058 L56.9295455,20.312924 L49.1818182,40.8311058 L28.5204545,40.8311058 L45.3090909,53.887924 L37.5590909,77.1311058 L56.9295455,62.9242876 L76.2977273,77.1311058 L68.55,53.887924 L85.3386364,40.8311058 L64.6772727,40.8311058 L64.6772727,40.8311058 Z M64.2386364,55.3242876 L67.4681818,65.0174695 L56.9295455,57.287924 L46.3886364,65.0174695 L50.6363636,52.2720149 L48.0977273,50.2992876 L41.7704545,45.3765604 L52.3227273,45.3765604 L56.9295455,33.1811058 L61.5340909,45.3765604 L72.0886364,45.3765604 L65.7590909,50.2992876 L63.2204545,52.2720149 L64.2386364,55.3242876 L64.2386364,55.3242876 Z" id="Imported-Layers"></path>
                </g>
            </g>
        </g>
    </g>
</svg>