<?xml version="1.0" encoding="UTF-8" standalone="no"?>
<svg width="16px" height="18px" viewBox="0 0 16 18" version="1.1" xmlns="http://www.w3.org/2000/svg" xmlns:xlink="http://www.w3.org/1999/xlink" xmlns:sketch="http://www.bohemiancoding.com/sketch/ns">
    <!-- Generator: Sketch 3.3 (11970) - http://www.bohemiancoding.com/sketch -->
    <title>Fill 98</title>
    <desc>Created with Sketch.</desc>
    <defs></defs>
    <g id="Page-1" stroke="none" stroke-width="1" fill="none" fill-rule="evenodd" sketch:type="MSPage">
        <g id="Latest-News" sketch:type="MSArtboardGroup" transform="translate(-348.000000, -664.000000)" fill="#CDCDCD">
            <g id="Group" sketch:type="MSLayerGroup" transform="translate(226.000000, 181.000000)">
                <g id="Rectangle-82-+-Fill-98" transform="translate(115.000000, 477.000000)" sketch:type="MSShapeGroup">
                    <path d="M19.2403846,22.01417 C18.236625,22.01417 17.4230769,21.1578036 17.4230769,20.1012146 C17.4230769,19.0446255 18.236625,18.1882591 19.2403846,18.1882591 C20.2441442,18.1882591 21.0576923,19.0446255 21.0576923,20.1012146 C21.0576923,21.1578036 20.2441442,22.01417 19.2403846,22.01417 L19.2403846,22.01417 Z M10.7596154,16.9129555 C9.75585577,16.9129555 8.94230769,16.0565891 8.94230769,15 C8.94230769,13.9440486 9.75585577,13.0870445 10.7596154,13.0870445 C11.763375,13.0870445 12.5769231,13.9440486 12.5769231,15 C12.5769231,16.0565891 11.763375,16.9129555 10.7596154,16.9129555 L10.7596154,16.9129555 Z M19.2403846,7.98582996 C20.2441442,7.98582996 21.0576923,8.84219636 21.0576923,9.89878543 C21.0576923,10.9553745 20.2441442,11.8117409 19.2403846,11.8117409 C18.236625,11.8117409 17.4230769,10.9553745 17.4230769,9.89878543 C17.4230769,8.84219636 18.236625,7.98582996 19.2403846,7.98582996 L19.2403846,7.98582996 Z M19.2403846,16.9129555 C18.1681731,16.9129555 17.2322596,17.5027834 16.6937308,18.3872065 L13.4498365,16.4359919 C13.6594327,16.0023887 13.7884615,15.5190486 13.7884615,15 C13.7884615,14.6792611 13.7297019,14.3757389 13.6461058,14.0836943 L17.0208462,12.0540486 C17.5739135,12.6853239 18.3602019,13.0870445 19.2403846,13.0870445 C20.9135192,13.0870445 22.2692308,11.6599798 22.2692308,9.89878543 C22.2692308,8.13759109 20.9135192,6.71052632 19.2403846,6.71052632 C17.56725,6.71052632 16.2115385,8.13759109 16.2115385,9.89878543 C16.2115385,10.2195243 16.2702981,10.5230466 16.3538942,10.8157287 L12.9791538,12.8447368 C12.4260865,12.2140992 11.6397981,11.8117409 10.7596154,11.8117409 C9.08648077,11.8117409 7.73076923,13.2388057 7.73076923,15 C7.73076923,16.7611943 9.08648077,18.1882591 10.7596154,18.1882591 C11.4501923,18.1882591 12.0795865,17.935749 12.5890385,17.5263765 L12.5769231,17.5506073 L16.2448558,19.7568826 C16.2327404,19.8716599 16.2115385,19.9826113 16.2115385,20.1012146 C16.2115385,21.8624089 17.56725,23.2894737 19.2403846,23.2894737 C20.9135192,23.2894737 22.2692308,21.8624089 22.2692308,20.1012146 C22.2692308,18.3400202 20.9135192,16.9129555 19.2403846,16.9129555 L19.2403846,16.9129555 Z" id="Fill-98"></path>
                </g>
            </g>
        </g>
    </g>
</svg>