<?xml version="1.0" encoding="UTF-8" standalone="no"?>
<svg width="36px" height="44px" viewBox="0 0 36 44" version="1.1" xmlns="http://www.w3.org/2000/svg" xmlns:xlink="http://www.w3.org/1999/xlink" xmlns:sketch="http://www.bohemiancoding.com/sketch/ns">
    <!-- Generator: Sketch 3.3 (11970) - http://www.bohemiancoding.com/sketch -->
    <title>Imported Layers</title>
    <desc>Created with Sketch.</desc>
    <defs></defs>
    <g id="Page-1" stroke="none" stroke-width="1" fill="none" fill-rule="evenodd" sketch:type="MSPage">
        <g id="Features" sketch:type="MSArtboardGroup" transform="translate(-683.000000, -310.000000)" fill="#81D44D">
            <path d="M710,316 L684,316 C683.447,316 683,316.447 683,317 L683,353 C683,353.553 683.447,354 684,354 C684.276,354 684.526,353.889 684.707,353.707 L688.922,350.336 L692.293,353.707 C692.474,353.888 692.724,354 693,354 C693.276,354 693.527,353.888 693.707,353.707 L697,350.414 L700.293,353.707 C700.474,353.888 700.724,354 701,354 C701.276,354 701.526,353.889 701.707,353.707 L705.078,350.336 L709.293,353.707 C709.474,353.889 709.724,354 710,354 C710.553,354 711,353.553 711,353 L711,317 C711,316.447 710.553,316 710,316 L710,316 Z M709,350.928 L705.707,348.293 C705.525,348.112 705.276,348 705,348 C704.725,348 704.475,348.112 704.293,348.293 L701,351.586 L697.707,348.293 C697.526,348.112 697.276,348 697,348 C696.725,348 696.475,348.112 696.293,348.293 L693,351.586 L689.707,348.293 C689.525,348.112 689.276,348 689,348 C688.725,348 688.475,348.112 688.293,348.293 L685,350.928 L685,318 L709,318 L709,350.928 L709,350.928 Z M687,330 L689,330 L689,320 L687,320 L687,330 Z M691,330 L695,330 L695,320 L691,320 L691,330 Z M701,330 L703,330 L703,320 L701,320 L701,330 Z M705,330 L707,330 L707,320 L705,320 L705,330 Z M697,330 L699,330 L699,320 L697,320 L697,330 Z M687,344 L701,344 L701,342 L687,342 L687,344 Z M718,310 L692,310 C691.447,310 691,310.448 691,311 L691,314 L693,314 L693,312 L717,312 L717,344.927 L713.707,342.293 C713.526,342.111 713.276,342 713,342 L713,344.414 L713.078,344.336 L717.293,347.707 C717.474,347.888 717.724,348 718,348 C718.553,348 719,347.553 719,347 L719,311 C719,310.448 718.553,310 718,310 L718,310 Z M687,336 L697,336 L697,334 L687,334 L687,336 Z M687,340 L707,340 L707,338 L687,338 L687,340 Z" id="Imported-Layers" sketch:type="MSShapeGroup"></path>
        </g>
    </g>
</svg>