<?xml version="1.0" encoding="UTF-8" standalone="no"?>
<svg width="60px" height="60px" viewBox="0 0 60 60" version="1.1" xmlns="http://www.w3.org/2000/svg" xmlns:xlink="http://www.w3.org/1999/xlink" xmlns:sketch="http://www.bohemiancoding.com/sketch/ns">
    <!-- Generator: Sketch 3.3 (11970) - http://www.bohemiancoding.com/sketch -->
    <title>Imported Layers</title>
    <desc>Created with Sketch.</desc>
    <defs></defs>
    <g id="Page-1" stroke="none" stroke-width="1" fill="none" fill-rule="evenodd" sketch:type="MSPage">
        <g id="Desktop-HD" sketch:type="MSArtboardGroup" transform="translate(-636.000000, -7933.000000)" fill="#FFFFFF">
            <g id="share-the-love" sketch:type="MSLayerGroup" transform="translate(0.000000, 7672.000000)">
                <g id="Group" transform="translate(525.000000, 261.000000)" sketch:type="MSShapeGroup">
                    <path d="M155.245909,19.4959091 C154.164545,20.1272727 152.967273,20.5854545 151.693636,20.8322727 C150.673636,19.7618182 149.218636,19.0936364 147.609545,19.0936364 C144.519545,19.0936364 142.014545,21.5590909 142.014545,24.6 C142.014545,25.0309091 142.062273,25.4509091 142.159091,25.8559091 C137.507727,25.6254545 133.385455,23.4327273 130.626818,20.1 C130.144091,20.9154545 129.868636,21.8590909 129.868636,22.8695455 C129.868636,24.78 130.855909,26.4654545 132.357273,27.4540909 C131.440909,27.4240909 130.577727,27.1772727 129.823636,26.7640909 C129.822273,26.7872727 129.822273,26.8090909 129.822273,26.8336364 C129.822273,29.5022727 131.751818,31.7277273 134.311364,32.235 C133.840909,32.3604545 133.348636,32.4259091 132.837273,32.4259091 C132.477273,32.4259091 132.125455,32.3918182 131.784545,32.3277273 C132.496364,34.5163636 134.562273,36.1077273 137.01,36.1527273 C135.095455,37.6309091 132.683182,38.5090909 130.060909,38.5090909 C129.609545,38.5090909 129.165,38.4845455 128.727273,38.4340909 C131.203636,39.9954545 134.145,40.9077273 137.304545,40.9077273 C147.597273,40.9077273 153.225,32.5172727 153.225,25.2381818 C153.225,24.9995455 153.219545,24.7622727 153.208636,24.5263636 C154.300909,23.7490909 155.248636,22.7795455 156,21.6763636 C154.996364,22.1140909 153.919091,22.41 152.787273,22.5422727 C153.940909,21.8604545 154.828636,20.7818182 155.245909,19.4959091 L155.245909,19.4959091 Z M141,0 C124.431818,0 111,13.4318182 111,30 C111,46.5681818 124.431818,60 141,60 C157.568182,60 171,46.5681818 171,30 C171,13.4318182 157.568182,0 141,0 L141,0 Z M141,57.2727273 C125.937273,57.2727273 113.727273,45.0627273 113.727273,30 C113.727273,14.9386364 125.937273,2.72727273 141,2.72727273 C156.062727,2.72727273 168.272727,14.9386364 168.272727,30 C168.272727,45.0627273 156.062727,57.2727273 141,57.2727273 L141,57.2727273 Z" id="Imported-Layers"></path>
                </g>
            </g>
        </g>
    </g>
</svg>