<?xml version="1.0" encoding="UTF-8" standalone="no"?>
<svg width="33px" height="33px" viewBox="0 0 33 33" version="1.1" xmlns="http://www.w3.org/2000/svg" xmlns:xlink="http://www.w3.org/1999/xlink" xmlns:sketch="http://www.bohemiancoding.com/sketch/ns">
    <!-- Generator: Sketch 3.3 (11970) - http://www.bohemiancoding.com/sketch -->
    <title>Imported Layers</title>
    <desc>Created with Sketch.</desc>
    <defs></defs>
    <g id="Page-1" stroke="none" stroke-width="1" fill="none" fill-rule="evenodd" sketch:type="MSPage">
        <g id="Desktop-HD" sketch:type="MSArtboardGroup" transform="translate(-884.000000, -12368.000000)" fill="#FFFFFF">
            <g id="Footer" sketch:type="MSLayerGroup" transform="translate(0.000000, 12323.000000)">
                <g id="Group-3" transform="translate(837.000000, 45.000000)" sketch:type="MSShapeGroup">
                    <path d="M70.8256547,10.9106387 C70.2612324,11.247366 69.6363108,11.4917296 68.9715309,11.623366 C68.4391375,11.0524569 67.6796941,10.6960932 66.8398223,10.6960932 C65.2269836,10.6960932 63.9194882,12.0110023 63.9194882,13.6328205 C63.9194882,13.8626387 63.9443997,14.0866387 63.9949343,14.3026387 C61.5671353,14.1797296 59.4154975,13.0102751 57.9756156,11.2328205 C57.723654,11.6677296 57.5798793,12.1710023 57.5798793,12.7099114 C57.5798793,13.7288205 58.0951905,14.6277296 58.8788337,15.1550023 C58.4005338,15.1390023 57.9499924,15.007366 57.5563914,14.7870023 C57.5556797,14.799366 57.5556797,14.8110023 57.5556797,14.8240932 C57.5556797,16.247366 58.5628141,17.4342751 59.8987797,17.7048205 C59.653224,17.7717296 59.3962801,17.8066387 59.1293717,17.8066387 C58.9414682,17.8066387 58.7578352,17.7884569 58.5798962,17.7542751 C58.9514328,18.9215478 60.0297428,19.7702751 61.3073445,19.7942751 C60.3080393,20.5826387 59.0489433,21.0510023 57.6802369,21.0510023 C57.4446457,21.0510023 57.2126134,21.0379114 56.9841397,21.0110023 C58.2766883,21.8437296 59.8119455,22.3302751 61.4610837,22.3302751 C66.8334165,22.3302751 69.7708326,17.855366 69.7708326,13.9731841 C69.7708326,13.8459114 69.7679856,13.719366 69.7622916,13.5935478 C70.332408,13.1790023 70.8270782,12.6619114 71.2192557,12.0735478 C70.6954034,12.3070023 70.1331163,12.4648205 69.542359,12.535366 C70.1445044,12.1717296 70.6078575,11.5964569 70.8256547,10.9106387 L70.8256547,10.9106387 Z M63.3899419,0.512820513 C54.742109,0.512820513 47.7313144,7.67645688 47.7313144,16.5128205 C47.7313144,25.3491841 54.742109,32.5128205 63.3899419,32.5128205 C72.0377748,32.5128205 79.0485694,25.3491841 79.0485694,16.5128205 C79.0485694,7.67645688 72.0377748,0.512820513 63.3899419,0.512820513 L63.3899419,0.512820513 Z M63.3899419,31.0582751 C55.5278874,31.0582751 49.154826,24.5462751 49.154826,16.5128205 C49.154826,8.48009324 55.5278874,1.96736597 63.3899419,1.96736597 C71.2519964,1.96736597 77.6250579,8.48009324 77.6250579,16.5128205 C77.6250579,24.5462751 71.2519964,31.0582751 63.3899419,31.0582751 L63.3899419,31.0582751 Z" id="Imported-Layers"></path>
                </g>
            </g>
        </g>
    </g>
</svg>