<?xml version="1.0" encoding="UTF-8" standalone="no"?>
<svg width="44px" height="44px" viewBox="0 0 44 44" version="1.1" xmlns="http://www.w3.org/2000/svg" xmlns:xlink="http://www.w3.org/1999/xlink" xmlns:sketch="http://www.bohemiancoding.com/sketch/ns">
    <!-- Generator: Sketch 3.3 (11970) - http://www.bohemiancoding.com/sketch -->
    <title>Imported Layers</title>
    <desc>Created with Sketch.</desc>
    <defs></defs>
    <g id="Page-1" stroke="none" stroke-width="1" fill="none" fill-rule="evenodd" sketch:type="MSPage">
        <g id="Features-with-phone" sketch:type="MSArtboardGroup" transform="translate(-97.000000, -502.000000)" fill="#000000">
            <g id="Artists-Copy-2" sketch:type="MSLayerGroup" transform="translate(97.000000, 500.000000)">
                <path d="M5,14 C4.448,14 4,14.448 4,15 C4,15.553 4.448,16 5,16 C5.552,16 6,15.553 6,15 C6,14.448 5.552,14 5,14 L5,14 Z M9,14 C8.448,14 8,14.448 8,15 C8,15.553 8.448,16 9,16 C9.552,16 10,15.553 10,15 C10,14.448 9.552,14 9,14 L9,14 Z M40,2 L12,2 C9.791,2 8,3.791 8,6 L8,7 C8,7.553 8.448,8 9,8 C9.552,8 10,7.553 10,7 L10,6 C10,4.895 10.896,4 12,4 L40,4 C41.105,4 42,4.895 42,6 L42,34 C42,35.106 41.105,36 40,36 L39,36 C38.448,36 38,36.447 38,37 C38,37.553 38.448,38 39,38 L40,38 C42.209,38 44,36.21 44,34 L44,6 C44,3.791 42.209,2 40,2 L40,2 Z M13,14 C12.448,14 12,14.448 12,15 C12,15.553 12.448,16 13,16 C13.552,16 14,15.553 14,15 C14,14.448 13.552,14 13,14 L13,14 Z M32,10 L4,10 C1.791,10 0,11.791 0,14 L0,42 C0,44.209 1.791,46 4,46 L32,46 C34.209,46 36,44.209 36,42 L36,14 C36,11.791 34.209,10 32,10 L32,10 Z M34,42 C34,43.104 33.104,44 32,44 L4,44 C2.896,44 2,43.104 2,42 L2,20 L34,20 L34,42 L34,42 Z M34,18 L2,18 L2,14 C2,12.896 2.896,12 4,12 L32,12 C33.104,12 34,12.896 34,14 L34,18 L34,18 Z M31,14 L17,14 C16.448,14 16,14.448 16,15 C16,15.553 16.448,16 17,16 L31,16 C31.552,16 32,15.553 32,15 C32,14.448 31.552,14 31,14 L31,14 Z" id="Imported-Layers" sketch:type="MSShapeGroup"></path>
            </g>
        </g>
    </g>
</svg>